<?xml version="1.0" standalone="no"?>
<!DOCTYPE svg PUBLIC "-//W3C//DTD SVG 1.1//EN" "http://www.w3.org/Graphics/SVG/1.1/DTD/svg11.dtd" >
<svg>
<metadata>
Created by FontForge 20090914 at Tue Mar  9 08:53:53 2021
 By www-data
&#194;&#169; 1990-91 Apple Computer Inc. &#194;&#169; 1990-91 Type Solutions Inc. &#194;&#169; 1990-91 The Font Bureau Inc.
</metadata>
<defs>
<font id="NewYork" horiz-adv-x="1365" >
  <font-face 
    font-family="New York"
    font-weight="400"
    font-stretch="normal"
    units-per-em="2048"
    panose-1="0 0 0 0 0 0 0 0 0 0"
    ascent="1638"
    descent="-410"
    x-height="1117"
    cap-height="1552"
    bbox="-559 -496 2580 1986"
    underline-thickness="124"
    underline-position="-20"
    unicode-range="U+0020-U+F002"
  />
<missing-glyph horiz-adv-x="1024" 
d="M877 0h-730v1552h730v-1552zM727 1402h-430v-1252h430v1252z" />
    <glyph glyph-name=".notdef" horiz-adv-x="1024" 
d="M877 0h-730v1552h730v-1552zM727 1402h-430v-1252h430v1252z" />
    <glyph glyph-name="space" unicode=" " horiz-adv-x="683" 
 />
    <glyph glyph-name="exclam" unicode="!" horiz-adv-x="621" 
d="M340 388h-60l-96 1162l248 48zM310 -47c-36 0 -67.001 13 -93.001 39s-39 57 -39 93c0 36.667 12.833 67.834 38.5 93.501s56.834 38.5 93.501 38.5c36 0 67 -12.833 93 -38.5s39 -56.834 39 -93.501c0 -36 -13 -67 -39 -93s-57 -39 -93 -39z" />
    <glyph glyph-name="quotedbl" unicode="&#x22;" horiz-adv-x="1024" 
d="M332 993h-66l-80 621h218zM763 993h-65l-73 621h213z" />
    <glyph glyph-name="numbersign" unicode="#" 
d="M208 0l118 442h-264v93h290l120 458h-264v93h290l124 466h93l-123 -466h414l123 466h96l-125 -466h264v-93h-289l-123 -458h264v-93h-288l-117 -442h-96l116 442h-412l-117 -442h-94zM445 535h411l125 458h-414z" />
    <glyph glyph-name="dollar" unicode="$" 
d="M768 -155l-78.001 -0.00195312v155h-42c-126.667 0 -260 20.667 -400 62l-23 341h78l3 -18c15.333 -92 46 -161 92 -207c77.333 -78 165 -117 263 -117c5.33301 0 15 0.333008 29 1v627l-112 71c-141.333 87.333 -234.166 156.333 -278.499 207
s-66.5 112.334 -66.5 185.001c0 109.333 40.5 199.333 121.5 270s192.833 113.334 335.5 128.001v157h78v-157c134.667 0 261.667 -20.667 381 -62l35 -301h-82l-5 17c-46 169.333 -155.667 264 -329 284v-609l106 -65c130 -80 217.167 -146.833 261.5 -200.5
s66.5 -119.167 66.5 -196.5c0 -111.333 -37.5 -202 -112.5 -272s-182.167 -115 -321.5 -135v-165zM689.999 929.998v558c-77.333 -12.667 -139.333 -44 -186 -94s-70 -110.333 -70 -181c0 -82 68.667 -166 206 -252zM767.999 638.998v-563c155.333 56 233 152 233 288
c0 84.667 -61 165.667 -183 243z" />
    <glyph glyph-name="percent" unicode="%" horiz-adv-x="1808" 
d="M273 0l1114 1552h131l-1110 -1552h-135zM400 624c-104 0 -188.833 43.333 -254.5 130s-98.5 198.667 -98.5 336s32.833 249.166 98.5 335.499s150.5 129.5 254.5 129.5s188.833 -43.167 254.5 -129.5s98.5 -198.166 98.5 -335.499s-32.833 -249.333 -98.5 -336
s-150.5 -130 -254.5 -130zM400 687c58.667 0 105 36 139 108s51 170.333 51 295s-17 223 -51 295s-80.333 108 -139 108s-105 -36 -139 -108s-51 -170.333 -51 -295s17 -223 51 -295s80.333 -108 139 -108zM1408 0c-104 0 -188.833 43.333 -254.5 130
s-98.5 198.334 -98.5 335.001c0 137.333 32.833 249.333 98.5 336s150.5 130 254.5 130c104.667 0 189.667 -43.333 255 -130s98 -198.667 98 -336c0 -136.667 -32.667 -248.334 -98 -335.001s-150.333 -130 -255 -130zM1408 62c59.333 0 106 36 140 108s51 170.333 51 295
s-17 223.167 -51 295.5s-80.667 108.5 -140 108.5c-58.667 0 -105 -36 -139 -108s-51 -170.667 -51 -296c0 -124.667 17 -223 51 -295s80.333 -108 139 -108z" />
    <glyph glyph-name="ampersand" unicode="&#x26;" horiz-adv-x="1738" 
d="M1014 143c-138 -126.667 -283.667 -190.001 -437 -190.001c-145.333 0 -264.833 43.833 -358.5 131.5s-140.5 198.834 -140.5 333.501c0 112.667 37.167 217.667 111.5 315s181.166 180.333 320.499 249c-50 120 -75 214.667 -75 284c0 96 34 175.333 102 238
s154 94 258 94c91.333 0 168 -24.833 230 -74.5s93 -111.5 93 -185.5c0 -147.333 -132 -266 -396 -356c112.667 -260 240.334 -475.333 383.001 -646c96 134 144 239.667 144 317c0 38 -12.167 69.333 -36.5 94s-55.833 37 -94.5 37h-13l43 124h544l-62 -163h-223
c-44 -161.333 -130.333 -311.333 -259 -450c135.333 -144.667 242.333 -217 321 -217c48 0 101.667 11 161 33v-56c-100.667 -68 -199 -102 -295 -102c-96.667 0 -203.667 63.333 -321 190zM702 1040c163.333 78.667 244.999 184.999 244.999 318.999
c0 50.667 -14.333 92.834 -43 126.501s-64 50.5 -106 50.5c-45.333 0 -83.666 -20.333 -114.999 -61s-47 -90 -47 -148c0 -58.667 19.667 -146.667 59 -264c0.666992 -3.33301 3 -11 7 -23zM530.999 921.998c-167.333 -100 -251.002 -243.667 -251.002 -431
c0 -120.667 38.833 -223.667 116.5 -309s171.834 -128 282.501 -128c96.667 0 194.334 44.333 293.001 133c-183.333 202.667 -330.333 447.667 -441 735z" />
    <glyph glyph-name="quotesingle" unicode="'" horiz-adv-x="621" 
d="M348 993h-72l-105 621h279z" />
    <glyph glyph-name="parenleft" unicode="(" horiz-adv-x="915" 
d="M698 -299v-72.999c-138.667 76 -256 211.5 -352 406.5s-144 395.5 -144 601.5s48 406.5 144 601.5s213.333 330.833 352 407.5v-74c-196 -160 -294 -471.667 -294 -935c0 -462.667 98 -774.334 294 -935.001z" />
    <glyph glyph-name="parenright" unicode=")" horiz-adv-x="915" 
d="M202 -299c196.667 160.667 295 472.333 295 935c0 463.333 -98.333 775 -295 935v74c139.333 -76.667 256.833 -212.5 352.5 -407.5s143.5 -395.5 143.5 -601.5s-47.833 -406.5 -143.5 -601.5s-213.167 -330.5 -352.5 -406.5v73z" />
    <glyph glyph-name="asterisk" unicode="*" horiz-adv-x="1040" 
d="M520 1102l-175 -352l-128 82l250 301l-389 71l42 150l367 -164l-45 408h156l-44 -408l366 164l42 -150l-388 -71l249 -301l-127 -82z" />
    <glyph glyph-name="plus" unicode="+" 
d="M1241 613v-109h-504v-504h-109v504h-504v109h504v504h109v-504h504z" />
    <glyph glyph-name="comma" unicode="," horiz-adv-x="621" 
d="M155 -372l-0.000976562 66c104 66 160.333 170.667 169 314l-169 86c14.667 113.333 71 170 169 170c44.667 0 81.334 -17 110.001 -51s43 -77.333 43 -130c0 -174 -107.333 -325.667 -322 -455z" />
    <glyph glyph-name="hyphen" unicode="-" horiz-adv-x="776" 
d="M78 559v139h621v-139h-621z" />
    <glyph glyph-name="hyphen" unicode="&#xad;" horiz-adv-x="776" 
d="M78 559v139h621v-139h-621z" />
    <glyph glyph-name="period" unicode="." horiz-adv-x="621" 
d="M310 -47c-42.667 0 -79.167 15.167 -109.5 45.5s-45.5 67.166 -45.5 110.499c0 42.667 15.167 79.167 45.5 109.5s66.833 45.5 109.5 45.5s79.167 -15.167 109.5 -45.5s45.5 -66.833 45.5 -109.5c0 -43.333 -15.167 -80.166 -45.5 -110.499s-66.833 -45.5 -109.5 -45.5z
" />
    <glyph glyph-name="slash" unicode="/" horiz-adv-x="1195" 
d="M62 -47l942 1645h129l-944 -1645h-127z" />
    <glyph glyph-name="zero" unicode="0" 
d="M683 -47c-178 0 -320.833 75.167 -428.5 225.5s-161.5 349.5 -161.5 597.5s53.833 447 161.5 597s250.5 225 428.5 225c177.333 0 319.833 -75 427.5 -225s161.5 -349 161.5 -597s-53.833 -447.167 -161.5 -597.5s-250.167 -225.5 -427.5 -225.5zM683 16
c124 0 217 63.333 279 190s93 316.667 93 570s-31 443.333 -93 570s-155 190 -279 190s-217.167 -63.333 -279.5 -190s-93.5 -316.667 -93.5 -570s31.167 -443.333 93.5 -570s155.5 -190 279.5 -190z" />
    <glyph glyph-name="one" unicode="1" 
d="M287 1346v62l496 190v-1382c0 -66 18.5 -108.167 55.5 -126.5s120.167 -27.5 249.5 -27.5h2h2h2v-62h-807v62c133.333 0 218.333 9.16699 255 27.5s55 60.5 55 126.5v1183z" />
    <glyph glyph-name="two" unicode="2" 
d="M163 0l-0.000976562 72.999c243.333 269.333 428.333 504 555 704s190 354 190 462c0 77.333 -24.667 139 -74 185s-115.666 69 -198.999 69c-130 0 -274 -66 -432 -198l7 131c138 114.667 288.333 172 451 172c136 0 244.667 -33.5 326 -100.5s122 -156.5 122 -268.5
c0 -99.333 -38.667 -203.166 -116 -311.499s-285.333 -349.5 -624 -723.5h779v-194h-985z" />
    <glyph glyph-name="three" unicode="3" 
d="M401 760l60 154.998h38c102.667 0 192.5 33 269.5 99s115.5 142.333 115.5 229c0 74.667 -27.667 138.334 -83 191.001s-122 79 -200 79c-111.333 0 -226.333 -42 -345 -126v95c131.333 77.333 266.333 116 405 116c123.333 0 222.333 -29 297 -87s112 -135 112 -231
c0 -83.333 -30.667 -156.666 -92 -219.999s-153.666 -116.666 -276.999 -159.999c142 -25.333 250.667 -75.166 326 -149.499s113 -169.166 113 -284.499c0 -134.667 -55.167 -253.834 -165.5 -357.501s-237.5 -155.5 -381.5 -155.5c-190 0 -338.667 59.667 -446 179
l134 136c94.667 -158 214 -237 358 -237c93.333 0 169.166 32.667 227.499 98s87.5 150.666 87.5 255.999c0 125.333 -42.333 219.166 -127 281.499s-212 93.5 -382 93.5h-44z" />
    <glyph glyph-name="four" unicode="4" 
d="M845 450h-760v163l885 985h61v-985h264v-163h-264v-450h-186v450zM845 613v751l-671 -751h671z" />
    <glyph glyph-name="five" unicode="5" 
d="M277 884l104.001 668h728v-179h-659l-51 -318l34 1c90.667 0 188.5 -20.5 293.5 -61.5s187.833 -90.5 248.5 -148.5c110.667 -106.667 166 -233.667 166 -381c0 -140.667 -55.5 -261.167 -166.5 -361.5s-243.833 -150.5 -398.5 -150.5
c-166.667 0 -304.334 53 -413.001 159l140 139c80.667 -152 192.667 -228 336 -228c90 0 165 35 225 105s90 157.667 90 263c0 148 -59.5 267.167 -178.5 357.5s-275.833 135.5 -470.5 135.5h-28z" />
    <glyph glyph-name="six" unicode="6" 
d="M1071 1504c-30.667 10.667 -64.333 16.002 -101 16.002c-172 0 -311.667 -56.667 -419 -170c-61.333 -64.667 -111.5 -154.834 -150.5 -270.501s-58.5 -231.5 -58.5 -347.5c0 -34 3.33301 -74 10 -120c42.667 105.333 105.5 188.666 188.5 249.999s174.5 92 274.5 92
c124 0 226.167 -43.5 306.5 -130.5s120.5 -198.167 120.5 -333.5c0 -150 -51.667 -277 -155 -381s-229 -156 -377 -156c-168 0 -305 69.5 -411 208.5s-159 318.5 -159 538.5c0 260 76 474.667 228 644s344.667 254 578 254c40 0 81.667 -3.66699 125 -11v-83z
M752.001 23.002c93.333 0 168.501 37.333 225.501 112s85.5 172.667 85.5 294c0 119.333 -30 216 -90 290s-138 111 -234 111c-102.667 0 -184.334 -35 -245.001 -105s-91 -164.667 -91 -284c0 -118.667 33.333 -218 100 -298s149.667 -120 249 -120z" />
    <glyph glyph-name="seven" unicode="7" 
d="M406 0c68 331.333 279.665 786.333 634.998 1365h-878v187h1032v-59c-165.333 -266 -290.666 -510.667 -375.999 -734s-150.666 -476.333 -195.999 -759h-217z" />
    <glyph glyph-name="eight" unicode="8" 
d="M517 850c-97.333 66 -165.332 126 -203.999 180s-58 116.667 -58 188c0 112 42.5 203.333 127.5 274s194.5 106 328.5 106c124.667 0 226 -30.833 304 -92.5s117 -141.5 117 -239.5c0 -72 -28 -142.167 -84 -210.5s-133 -125.833 -231 -172.5
c159.333 -110.667 264.666 -197.834 315.999 -261.501s77 -139.5 77 -227.5c0 -121.333 -53.667 -225.166 -161 -311.499s-237 -129.5 -389 -129.5c-138.667 0 -253.667 39.667 -345 119s-137 179.333 -137 300c0 182.667 113 342 339 478zM757.001 920
c136.667 76 205 175.333 205 298c0 88 -28.333 163 -85 225s-125 93 -205 93c-70.667 0 -130.667 -24.333 -180 -73s-74 -107.667 -74 -177c0 -102.667 88 -209 264 -319zM578.001 815c-142.667 -92.667 -214.001 -221.999 -214.001 -387.999
c0 -108.667 37.167 -200.667 111.5 -276s165.5 -113 273.5 -113c78 0 144.5 28.167 199.5 84.5s82.5 124.166 82.5 203.499c0 74 -27.167 143.167 -81.5 207.5s-149.166 139.5 -284.499 225.5z" />
    <glyph glyph-name="nine" unicode="9" 
d="M295 48c30 -11.333 63.667 -16.998 101 -16.998c171.333 0 311 57 419 171c60.667 64 110.667 154 150 270s59 232 59 348c0 33.333 -3.66699 73 -11 119c-42 -104.667 -104.667 -187.834 -188 -249.501s-175 -92.5 -275 -92.5c-124 0 -226 43.667 -306 131
s-120 198.666 -120 333.999c0 149.333 51.5 276 154.5 380s228.833 156 377.5 156c168 0 305 -69.5 411 -208.5s159 -318.5 159 -538.5c0 -259.333 -76.167 -473.833 -228.5 -643.5s-344.833 -254.5 -577.5 -254.5c-40 0 -81.667 3.66699 -125 11v84zM614 1528
c-93.333 0 -168.666 -37.167 -225.999 -111.5s-86 -172.5 -86 -294.5c0 -118.667 30 -215.167 90 -289.5s138.333 -111.5 235 -111.5c102.667 0 184.167 35.167 244.5 105.5s90.5 164.833 90.5 283.5s-33.333 218 -100 298s-149.334 120 -248.001 120z" />
    <glyph glyph-name="colon" unicode=":" horiz-adv-x="621" 
d="M310 -47c-42.667 0 -79.167 15.167 -109.5 45.5s-45.5 67.166 -45.5 110.499c0 42.667 15.167 79.167 45.5 109.5s66.833 45.5 109.5 45.5s79.167 -15.167 109.5 -45.5s45.5 -66.833 45.5 -109.5c0 -43.333 -15.167 -80.166 -45.5 -110.499s-66.833 -45.5 -109.5 -45.5z
M310 838c-42.667 0 -79.167 15.167 -109.5 45.5s-45.5 66.833 -45.5 109.5s15.167 79.167 45.5 109.5s66.833 45.5 109.5 45.5s79.167 -15.167 109.5 -45.5s45.5 -66.833 45.5 -109.5s-15.167 -79.167 -45.5 -109.5s-66.833 -45.5 -109.5 -45.5z" />
    <glyph glyph-name="semicolon" unicode=";" horiz-adv-x="621" 
d="M155 -372l-0.000976562 66c104 66 160.333 170.667 169 314l-169 86c14.667 113.333 71 170 169 170c44.667 0 81.334 -17 110.001 -51s43 -77.333 43 -130c0 -174 -107.333 -325.667 -322 -455zM309.999 838c-42.667 0 -79.167 15.167 -109.5 45.5
s-45.5 66.833 -45.5 109.5s15.167 79.167 45.5 109.5s66.833 45.5 109.5 45.5s79.167 -15.167 109.5 -45.5s45.5 -66.833 45.5 -109.5s-15.167 -79.167 -45.5 -109.5s-66.833 -45.5 -109.5 -45.5z" />
    <glyph glyph-name="semicolon" unicode="&#x37e;" horiz-adv-x="621" 
d="M155 -372l-0.000976562 66c104 66 160.333 170.667 169 314l-169 86c14.667 113.333 71 170 169 170c44.667 0 81.334 -17 110.001 -51s43 -77.333 43 -130c0 -174 -107.333 -325.667 -322 -455zM309.999 838c-42.667 0 -79.167 15.167 -109.5 45.5
s-45.5 66.833 -45.5 109.5s15.167 79.167 45.5 109.5s66.833 45.5 109.5 45.5s79.167 -15.167 109.5 -45.5s45.5 -66.833 45.5 -109.5s-15.167 -79.167 -45.5 -109.5s-66.833 -45.5 -109.5 -45.5z" />
    <glyph glyph-name="less" unicode="&#x3c;" 
d="M1241 1117v-114l-883 -444l883 -434v-125l-1117 559z" />
    <glyph glyph-name="equal" unicode="=" 
d="M1241 768v-109h-1117v109h1117zM1241 458v-109h-1117v109h1117z" />
    <glyph glyph-name="greater" unicode="&#x3e;" 
d="M124 0v115l883 444l-883 433v125l1117 -558z" />
    <glyph glyph-name="question" unicode="?" horiz-adv-x="931" 
d="M473 396l-186 -0.00195312v78c0 78.667 9.66699 140.5 29 185.5s68 120.167 146 225.5l41 55c88.667 118.667 133 228 133 328c5.33301 80 -15.5 139.5 -62.5 178.5s-107.833 58.5 -182.5 58.5c-86 0 -185 -36 -297 -108l-32 50c122 100.667 264 151 426 151
c96.667 0 179.167 -26.167 247.5 -78.5s102.5 -115.166 102.5 -188.499c0 -88 -47 -183.667 -141 -287l-33 -36c-79.333 -87.333 -131 -163.166 -155 -227.499s-36 -159.833 -36 -286.5v-98zM249 84.998c0 36.667 12.832 67.834 38.499 93.501s56.834 38.5 93.501 38.5
s67.834 -12.833 93.501 -38.5s38.5 -56.834 38.5 -93.501c0 -36 -12.833 -67 -38.5 -93s-56.834 -39 -93.501 -39c-36 0 -67 13 -93 39s-39 57 -39 93z" />
    <glyph glyph-name="at" unicode="@" horiz-adv-x="1707" 
d="M1218 140l-0.000976562 -95c-108.667 -61.333 -233.334 -92 -374.001 -92c-219.333 0 -400.666 77.667 -543.999 233s-215 351.666 -215 588.999c0 244 73.333 442.167 220 594.5s337 228.5 571 228.5c222 0 401.667 -66.167 539 -198.5s206 -305.166 206 -518.499
c0 -130.667 -37.667 -240.334 -113 -329.001s-168 -133 -278 -133c-72.667 0 -130.167 16.667 -172.5 50s-69.166 83 -80.499 149c-40 -61.333 -83 -107.333 -129 -138s-94.667 -46 -146 -46c-75.333 0 -138.833 32.333 -190.5 97s-77.5 143.667 -77.5 237
c0 132 41.667 240 125 324c78 78.667 205.667 118 383 118h190v-436c0 -84.667 13.833 -148.167 41.5 -190.5s69.167 -63.5 124.5 -63.5c70 0 128.5 33.333 175.5 100s70.5 150 70.5 250c0 194.667 -60.667 351.834 -182 471.501s-280.333 179.5 -477 179.5
c-252.667 0 -439.667 -84.333 -561 -253c-102.667 -141.333 -154 -305.333 -154 -492c0 -212.667 63.667 -388.667 191 -528s288 -209 482 -209c126 0 251 33.667 375 101zM976.999 1148h-56.002c-108 0 -189 -30.5 -243 -91.5s-81 -152.5 -81 -274.5
c0 -82 13.833 -143.667 41.5 -185s68.834 -62 123.501 -62c31.333 0 64.833 15.333 100.5 46s73.834 76.667 114.501 138v429z" />
    <glyph glyph-name="A" unicode="A" horiz-adv-x="1552" 
d="M398 489l-95 -231.001c-27.333 -65.333 -41 -106.666 -41 -123.999c0 -40.667 34.333 -64 103 -70l16 -2v-62h-381v62h16c40 0 73 14.167 99 42.5s55 81.833 87 160.5l548 1333h63l567 -1333c35.333 -82.667 63.333 -137.167 84 -163.5s45.667 -39.5 75 -39.5h13v-62
h-458v62h17c40.667 0 68 4 82 12s21 23.667 21 47c0 19.333 -16 67.333 -48 144l-94 224h-674zM427 565.999h606l-310 732z" />
    <glyph glyph-name="B" unicode="B" horiz-adv-x="1311" 
d="M811 854c124.667 -32 222.5 -86.668 293.5 -164.001s106.5 -168 106.5 -272c0 -128.667 -46.333 -230.5 -139 -305.5s-218.334 -112.5 -377.001 -112.5h-617v62h20c68 0 112.667 12.833 134 38.5s32 79.834 32 162.501v1023c0 84 -10.667 138.833 -32 164.5
s-66 38.5 -134 38.5h-20v63h551c133.333 0 225.333 -4 276 -12s96 -25.333 136 -52c76.667 -52 115 -126 115 -222c0 -89.333 -28.667 -168.333 -86 -237s-143.666 -127 -258.999 -175zM466 1489l-0.000976562 -620h192c66.667 0 137.334 38 212.001 114
c62 63.333 93 141.333 93 234c0 90.667 -31.833 158.667 -95.5 204s-159.5 68 -287.5 68h-114zM465.999 806.999l-0.00195312 -543.001c0 -134.667 90 -202 270 -202c82.667 0 151.334 28.833 206.001 86.5s82 130.167 82 217.5c0 124.667 -50.167 229.334 -150.5 314.001
s-224.166 127 -371.499 127h-36z" />
    <glyph glyph-name="C" unicode="C" horiz-adv-x="1451" 
d="M1314 33c-166 -53.333 -320.001 -80 -462.001 -80c-235.333 0 -422 74.333 -560 223s-207 349.334 -207 602.001c0 247.333 68.667 445.833 206 595.5s319 224.5 545 224.5c167.333 0 322 -21 464 -63l31 -309h-75l-3 18c-16 92.667 -59.5 164.5 -130.5 215.5
s-163.167 76.5 -276.5 76.5c-156 0 -284.333 -71 -385 -213s-151 -323.333 -151 -544c0 -228.667 51.5 -413.334 154.5 -554.001s237.833 -211 404.5 -211c224.667 0 355.334 101 392.001 303l3 17h78z" />
    <glyph glyph-name="D" unicode="D" horiz-adv-x="1660" 
d="M85 0l0.000976562 61.999h20c68 0 112.667 12.833 134 38.5s32 79.834 32 162.501v1023c0 84 -10.667 138.833 -32 164.5s-66 38.5 -134 38.5h-20v63h577c197.333 -4 336.666 -16.5 417.999 -37.5s168.333 -63.833 261 -128.5c155.333 -120 233 -303 233 -549
c0 -236 -70.333 -437.667 -211 -605c-74.667 -88 -162.167 -148.667 -262.5 -182s-246.5 -50 -438.5 -50h-577zM473.001 1489v-1226c0 -128.667 111 -193 333 -193c165.333 0 297.333 62.833 396 188.5s148 293.834 148 504.501c0 206.667 -59.333 378.334 -178 515.001
c-70 80 -147.5 135.167 -232.5 165.5s-205.167 45.5 -360.5 45.5h-106z" />
    <glyph glyph-name="E" unicode="E" horiz-adv-x="1241" 
d="M466 784l-0.00195312 -526.996c0 -66.667 28.167 -113.167 84.5 -139.5s155.5 -39.5 297.5 -39.5h42c62 0 107.833 15.667 137.5 47s50.834 86.666 63.501 165.999l3 19h78l-31 -338c-127.333 8.66699 -222 13 -284 13c-66 0 -143.667 2.66699 -233 8
c-87.333 4.66699 -140 7 -158 7h-388v62h18c66.667 0 111.334 13.5 134.001 40.5s34 80.833 34 161.5v1021c0 85.333 -10.5 140.666 -31.5 165.999s-66.5 38 -136.5 38h-18v63h1024l31 -288h-78l-3 21c-12.667 87.333 -37.834 140.666 -75.501 159.999
s-136.167 29 -295.5 29h-215v-628h232c106.667 0 174.834 9.16699 204.501 27.5s44.5 60.166 44.5 125.499v17h77v-403h-77v15c0 58.667 -12.333 100.667 -37 126c-20 20 -90.667 30 -212 30h-232z" />
    <glyph glyph-name="F" unicode="F" horiz-adv-x="1202" 
d="M466 752l0.00195312 -487.997c0 -86.667 12.333 -142 37 -166s82 -36 172 -36h16v-62h-613v62h18c69.333 0 114.666 13 135.999 39s32 80.333 32 163v1021c0 85.333 -10.5 140.666 -31.5 165.999s-66.5 38 -136.5 38h-18v63h1024l31 -288h-78l-3 21
c-12.667 87.333 -37.834 140.666 -75.501 159.999s-136.167 29 -295.5 29h-215v-659h237c104 0 170.667 9.16699 200 27.5s44 60.166 44 125.499v17h77v-403h-77v15c0 58.667 -12.333 100.667 -37 126c-18.667 19.333 -87.667 29 -207 29h-237z" />
    <glyph glyph-name="G" unicode="G" horiz-adv-x="1583" 
d="M1334 40c-168.667 -58 -326.332 -86.999 -472.999 -86.999c-271.333 0 -473 88.333 -605 265c-114 153.333 -171 339.666 -171 558.999c0 246 68.167 444.333 204.5 595s316.166 226 539.499 226c176.667 0 335 -21 475 -63l30 -309h-78l-3 17
c-1.33301 49.333 -24.333 105.333 -69 168c-77.333 83.333 -190 125 -338 125c-161.333 0 -291.666 -70.667 -390.999 -212s-149 -327.333 -149 -558c0 -228.667 55.167 -404.5 165.5 -527.5s267.833 -184.5 472.5 -184.5c52 0 120 6.66699 204 20v354
c0 82 -10.833 135.833 -32.5 161.5s-66.834 38.5 -135.501 38.5h-18v62h558v-62h-14c-70.667 0 -117 -12.833 -139 -38.5s-33 -79.5 -33 -161.5v-388z" />
    <glyph glyph-name="H" unicode="H" horiz-adv-x="1637" 
d="M466 776v-512c0 -82.667 11 -137 33 -163s68 -39 138 -39h15v-62h-574v62h16c70 0 115.833 12.833 137.5 38.5s32.5 80.167 32.5 163.5v1024c0 82.667 -10.833 136.834 -32.5 162.501s-67.5 38.5 -137.5 38.5h-16v63h574v-63h-15c-70 0 -116 -12.833 -138 -38.5
s-33 -79.834 -33 -162.501v-435h706v435c0 82.667 -11 136.834 -33 162.501s-68 38.5 -138 38.5h-15v63h574v-63h-16c-70 0 -115.833 -12.833 -137.5 -38.5s-32.5 -79.834 -32.5 -162.501v-1024c0 -83.333 10.833 -137.833 32.5 -163.5s67.5 -38.5 137.5 -38.5h16v-62h-574
v62h15c70 0 116 13 138 39s33 80.333 33 163v512h-706z" />
    <glyph glyph-name="I" unicode="I" horiz-adv-x="729" 
d="M652 0h-574v62h16c70 0 115.833 12.833 137.5 38.5s32.5 80.167 32.5 163.5v1024c0 82.667 -10.833 136.834 -32.5 162.501s-67.5 38.5 -137.5 38.5h-16v63h574v-63h-15c-70 0 -116 -12.833 -138 -38.5s-33 -79.834 -33 -162.501v-1024c0 -82.667 11 -137 33 -163
s68 -39 138 -39h15v-62z" />
    <glyph glyph-name="J" unicode="J" horiz-adv-x="946" 
d="M0 -305l0.000976562 257.998h78l3 -15l9 -80c6.66699 -44 25 -79.667 55 -107c39.333 -36 87.666 -54 144.999 -54c73.333 0 126 31.5 158 94.5s48 166.167 48 309.5v1187c0 82.667 -10.833 136.834 -32.5 162.501s-67.5 38.5 -137.5 38.5h-16v63h574v-63h-16
c-70 0 -115.833 -12.833 -137.5 -38.5s-32.5 -79.834 -32.5 -162.501v-1093c0 -137.333 -6.5 -236.166 -19.5 -296.499s-39.5 -112.166 -79.5 -155.499c-69.333 -76.667 -170 -115 -302 -115c-117.333 0 -216.333 22.333 -297 67z" />
    <glyph glyph-name="K" unicode="K" horiz-adv-x="1505" 
d="M466 779l-0.000976562 -515c0 -82.667 10.833 -137 32.5 -163s67.5 -39 137.5 -39h16v-62h-574v62h19c68.667 0 113.667 13 135 39s32 80.333 32 163v1024c0 82.667 -10.667 136.834 -32 162.501s-66.333 38.5 -135 38.5h-19v63h574v-63h-16
c-70 0 -115.833 -12.833 -137.5 -38.5s-32.5 -79.834 -32.5 -162.501v-472l463 473c79.333 80 119 130.667 119 152c0 32 -29 48 -87 48h-14v63h411v-63h-17c-68 0 -167 -66.667 -297 -200l-409 -417l570 -610c72.667 -77.333 128.834 -130 168.501 -158
s78.167 -42 115.5 -42h16v-62h-316z" />
    <glyph glyph-name="L" unicode="L" horiz-adv-x="1195" 
d="M1094 349h78l-36 -370c-229.333 14 -452.666 21 -669.999 21h-388v62h18c69.333 0 114.666 13 135.999 39s32 81 32 165v1022c0 82.667 -10.833 136.834 -32.5 162.501s-66.834 38.5 -135.501 38.5h-18v63h574v-63h-17c-69.333 0 -114.833 -12.833 -136.5 -38.5
s-32.5 -79.834 -32.5 -162.501v-1022c0 -67.333 24.333 -113 73 -137s141.334 -36 278.001 -36h49c82 0 134.667 16 158 48c34 47.333 56.333 109 67 185z" />
    <glyph glyph-name="M" unicode="M" horiz-adv-x="1994" 
d="M365 1288l0.000976562 -1024c0 -82.667 11 -137 33 -163s68.333 -39 139 -39h14v-62h-473v62h14c70.667 0 117 13 139 39s33 80.333 33 163v1024c0 82.667 -11 136.834 -33 162.501s-68.333 38.5 -139 38.5h-14v63h361l576 -1115l529 1115h373v-63h-16
c-70 0 -116 -12.833 -138 -38.5s-33 -79.834 -33 -162.501v-985c0 -109.333 11 -176.833 33 -202.5s68 -38.5 138 -38.5h16v-62h-559v62h12c71.333 0 118.166 12.833 140.499 38.5s33.5 80.167 33.5 163.5v1127l-592 -1239z" />
    <glyph glyph-name="N" unicode="N" horiz-adv-x="1645" 
d="M404 1205l0.00195312 -941c0 -83.333 10.667 -137.833 32 -163.5s66.666 -38.5 135.999 -38.5h18v-62h-481v62h12c68.667 0 113.5 12.833 134.5 38.5s31.5 80.167 31.5 163.5v1068l-30 41c-58 77.333 -111.667 116 -161 116h-18v63h297l929 -1141v877
c0 82.667 -10.833 136.834 -32.5 162.501s-67.5 38.5 -137.5 38.5h-16v63h480v-63h-18c-68.667 0 -113.834 -12.833 -135.501 -38.5s-32.5 -79.834 -32.5 -162.501v-1335z" />
    <glyph glyph-name="O" unicode="O" horiz-adv-x="1645" 
d="M822 -47c-216 0 -392.832 76.999 -530.499 230.999s-206.5 351.333 -206.5 592s68.833 437.834 206.5 591.501s314.5 230.5 530.5 230.5c195.333 0 355 -58.667 479 -176c79.333 -74.667 142.166 -170 188.499 -286s69.5 -236 69.5 -360
c0 -240.667 -68.833 -438 -206.5 -592s-314.5 -231 -530.5 -231zM822.001 15.999c146.667 0 267.336 71.167 362.003 213.5s142 324.5 142 546.5c0 221.333 -47.333 403.333 -142 546s-215.334 214 -362.001 214s-267.334 -71.333 -362.001 -214s-142 -324.667 -142 -546
c0 -222 47.167 -404.167 141.5 -546.5s215.166 -213.5 362.499 -213.5z" />
    <glyph glyph-name="P" unicode="P" horiz-adv-x="1241" 
d="M466 644l0.000976562 -379.002c0 -86.667 10.167 -142.167 30.5 -166.5s67.166 -36.5 140.499 -36.5h46v-62h-605v62h16c70 0 115.833 13 137.5 39s32.5 80.667 32.5 164v1023c0 82.667 -10.833 136.834 -32.5 162.501s-67.5 38.5 -137.5 38.5h-16v63h585
c122.667 0 211 -6 265 -18s101.333 -36 142 -72c78 -69.333 117 -166.666 117 -291.999c0 -161.333 -57.667 -289.333 -173 -384s-271.333 -142 -468 -142h-80zM466.001 705.998l58 -0.000976562c148.667 0 260.167 36.333 334.5 109s111.5 181.334 111.5 326.001
c0 126 -30.333 215.5 -91 268.5s-163.667 79.5 -309 79.5h-104v-783z" />
    <glyph glyph-name="Q" unicode="Q" horiz-adv-x="1645" 
d="M820 -47c-195.333 19.333 -340.001 65.999 -434.001 139.999c-91.333 72 -164.333 170 -219 294s-82 253.667 -82 389c0 240.667 68.833 437.834 206.5 591.501s314.5 230.5 530.5 230.5s392.833 -76.833 530.5 -230.5s206.5 -351.167 206.5 -592.5
c0 -218 -58.667 -402 -176 -552s-271.666 -237.333 -462.999 -262c135.333 -59.333 265.833 -103.833 391.5 -133.5s246.5 -44.5 362.5 -44.5c112.667 0 234.667 19.667 366 59v-59c-131.333 -104 -279 -156 -443 -156c-113.333 0 -245 31.5 -395 94.5
s-277.333 140.167 -382 231.5zM821.999 15.999c147.333 0 268.166 71.167 362.499 213.5s141.5 324.5 141.5 546.5c0 221.333 -47.167 403.333 -141.5 546s-215.166 214 -362.499 214c-146.667 0 -267.334 -71.333 -362.001 -214s-142 -324.667 -142 -546
c0 -222 47.333 -404.167 142 -546.5s215.334 -213.5 362.001 -213.5z" />
    <glyph glyph-name="R" unicode="R" horiz-adv-x="1420" 
d="M466 737l-0.000976562 -473c0 -82.667 10.833 -137 32.5 -163s67.167 -39 136.5 -39h9v-62h-566v62h15c70.667 0 116.834 12.833 138.501 38.5s32.5 80.167 32.5 163.5v1024c0 82.667 -10.833 136.834 -32.5 162.501s-67.834 38.5 -138.501 38.5h-15v63h587
c185.333 0 316.166 -23.667 392.499 -71s114.5 -128.666 114.5 -243.999c0 -108 -30.5 -199.833 -91.5 -275.5s-152.833 -135.5 -275.5 -179.5c43.333 -26.667 77.833 -55.334 103.5 -86.001s72.5 -99.667 140.5 -207l101 -163
c70.667 -110.667 121.334 -182.334 152.001 -215.001s63.334 -49 98.001 -49h12v-62h-300l-447 737h-199zM465.999 799h225c86 26 152.667 73.667 200 143s71 153.666 71 252.999c0 102.667 -32.5 177.334 -97.5 224.001s-169.167 70 -312.5 70h-86v-690z" />
    <glyph glyph-name="S" unicode="S" horiz-adv-x="1171" 
d="M107 16l-22 340.998h78l3 -16c20 -104 61.667 -184.167 125 -240.5s143.666 -84.5 240.999 -84.5c88 0 163.5 29.833 226.5 89.5s94.5 131.5 94.5 215.5c0 106 -81 214.333 -243 325l-154 106c-149.333 102.667 -247.166 182.5 -293.499 239.5s-69.5 125.833 -69.5 206.5
c0 120 48.5 216.667 145.5 290s224.833 110 383.5 110c124 0 250.333 -22 379 -66l33 -291h-80l-5 16c-53.333 186 -175.333 279 -366 279c-85.333 0 -156 -25.667 -212 -77s-84 -116.333 -84 -195c0 -99.333 69.333 -196.666 208 -291.999l222 -152
c138.667 -95.333 229.667 -171.166 273 -227.499s65 -126.833 65 -211.5c0 -130.667 -49.833 -234.667 -149.5 -312s-233.5 -116 -401.5 -116c-140 0 -272.333 21 -397 63z" />
    <glyph glyph-name="T" unicode="T" horiz-adv-x="1443" 
d="M617 1474h-158c-118.667 0 -200.667 -16 -246 -48s-75 -94.667 -89 -188l-3 -20h-82l38 361c172.667 -18 352.667 -27 540 -27h209c187.333 0 367.333 9 540 27l38 -361h-81l-4 20c-14 93.333 -43.667 156 -89 188s-127.333 48 -246 48h-158v-1211
c0 -83.333 12.833 -137.666 38.5 -162.999s80.167 -38 163.5 -38h15v-62h-643v62h15c84 0 138.667 12.667 164 38s38 79.666 38 162.999v1211z" />
    <glyph glyph-name="U" unicode="U" horiz-adv-x="1598" 
d="M54 1489l0.00292969 63h573v-63h-16c-70 0 -116 -12.833 -138 -38.5s-33 -79.834 -33 -162.501v-697c0 -213.333 37.333 -362.333 112 -447c74.667 -85.333 177 -128 307 -128c117.333 0 208.666 40.667 273.999 122s98.666 216.333 99.999 405v745
c0 82.667 -10.833 136.834 -32.5 162.501s-67.834 38.5 -138.501 38.5h-15v63h496v-63h-13c-70.667 0 -117.167 -12.833 -139.5 -38.5s-33.5 -79.834 -33.5 -162.501v-663c0 -162 -9.16699 -277 -27.5 -345s-57.166 -130 -116.499 -186c-99.333 -94 -243 -141 -431 -141
c-160 0 -287 37.333 -381 112c-64.667 51.333 -107.834 112.5 -129.501 183.5s-32.5 185.167 -32.5 342.5v697c0 82.667 -11 136.834 -33 162.501s-68 38.5 -138 38.5h-14z" />
    <glyph glyph-name="V" unicode="V" horiz-adv-x="1552" 
d="M828 257l421 1036c27.333 66.667 41 108.334 41 125.001c0 40 -34.333 63.333 -103 70l-17 1v63h382v-63h-17c-39.333 0 -72 -14.167 -98 -42.5s-55.333 -81.5 -88 -159.5l-548 -1334h-62l-568 1334c-57.333 134.667 -110 202 -158 202h-13v63h458v-63h-18
c-40 0 -67 -4 -81 -12s-21 -23.667 -21 -47c0 -21.333 16 -69 48 -143z" />
    <glyph glyph-name="W" unicode="W" horiz-adv-x="2110" 
d="M1029 1217l-390.001 -1264h-67l-397 1329c-22.667 75.333 -46.167 128.666 -70.5 159.999s-54.166 47 -89.499 47h-15v63h496v-63h-19c-48 0 -80 -6.16699 -96 -18.5s-24 -36.833 -24 -73.5c0 -34.667 6.66699 -74.667 20 -120l289 -972l383 1247h63l447 -1252l285 976
c16 56 24 101.333 24 136c0 44 -39.667 69.333 -119 76l-19 1v63h380v-63h-17c-34 0 -62 -15.167 -84 -45.5s-44.667 -85.166 -68 -164.499l-389 -1326h-65z" />
    <glyph glyph-name="X" unicode="X" horiz-adv-x="1334" 
d="M623 694l-269.999 -430c-49.333 -78.667 -74 -129 -74 -151c0 -34 38.333 -51 115 -51h17v-62h-411v62h15c41.333 0 79.166 14.5 113.499 43.5s75.833 81.833 124.5 158.5l323 506l-324 521c-82 132 -147.333 198 -196 198h-17v63h520v-63h-22
c-68.667 0 -103 -20.667 -103 -62c0 -30.667 18.667 -77 56 -139l199 -336l203 336c57.333 98 86 153.667 86 167c0 22.667 -24 34 -72 34h-14v63h334v-63h-21c-57.333 0 -128 -66.667 -212 -200l-259 -414l370 -613c80.667 -133.333 151.667 -200 213 -200h17v-62h-496v62
h13c63.333 0 95 17.333 95 52c0 24.667 -21.333 73 -64 145z" />
    <glyph glyph-name="Y" unicode="Y" horiz-adv-x="1319" 
d="M566 728l-329.999 562c-78 132.667 -151.667 199 -221 199h-15v63h496v-63h-21c-48 0 -72 -16.333 -72 -49c0 -31.333 20 -81.333 60 -150l271 -472l259 476c37.333 68 56 113 56 135c0 35.333 -27.333 55 -82 59l-23 1v63h375v-63h-22c-50 0 -87.333 -11.167 -112 -33.5
s-61.334 -77.833 -110.001 -166.5l-307 -561v-464c0 -84 12.667 -138.667 38 -164s79.333 -38 162 -38h16v-62h-634v62h16c82.667 0 136.667 12.667 162 38s38 80 38 164v464z" />
    <glyph glyph-name="Z" unicode="Z" horiz-adv-x="1226" 
d="M85 0v62.001l789 1427h-206c-181.333 0 -300.666 -12.333 -357.999 -37c-33.333 -14 -55.5 -31.833 -66.5 -53.5s-21.5 -66.834 -31.5 -135.501l-3 -22h-77v341l869 -30h100v-63l-786 -1427h275c219.333 0 347.666 19.667 384.999 59c31.333 34 57 102 77 204l3 16h77
l-23 -370c-294 19.333 -572.333 29 -835 29h-189z" />
    <glyph glyph-name="bracketleft" unicode="[" horiz-adv-x="838" 
d="M760 -295v-77h-496v2017h496v-78h-341v-1862h341z" />
    <glyph glyph-name="backslash" unicode="\" horiz-adv-x="1195" 
d="M1133 -47h-127l-944 1645h129z" />
    <glyph glyph-name="bracketright" unicode="]" horiz-adv-x="838" 
d="M78 1567v78h496v-2017h-496v77h341v1862h-341z" />
    <glyph glyph-name="asciicircum" unicode="^" 
d="M1241 434h-120l-438 871l-436 -871h-123l559 1118z" />
    <glyph glyph-name="underscore" unicode="_" 
d="M62 -124v124h1241v-124h-1241z" />
    <glyph glyph-name="grave" unicode="`" horiz-adv-x="1303" 
d="M869 1288h-86l-426 326h219z" />
    <glyph glyph-name="a" unicode="a" horiz-adv-x="1210" 
d="M775 197c-58.667 -76 -120.831 -132.999 -186.498 -170.999s-135.167 -57 -208.5 -57s-134.333 24.833 -183 74.5s-73 112.167 -73 187.5c0 83.333 38.667 154.166 116 212.499s205 112.833 383 163.5l137 40v157c0 68.667 -4 116.5 -12 143.5s-25.333 49.833 -52 68.5
c-40.667 30 -90.667 45 -150 45c-61.333 0 -107.333 -13 -138 -39s-46 -65.333 -46 -118v-50l-215 -69v30c0 80 46.333 156 139 228c91.333 70 205 105 341 105c112.667 0 194 -23 244 -69c50 -46.667 75 -122 75 -226v-474c0 -120.667 10.667 -201 32 -241
s63.666 -60 126.999 -60c20 0 42 1.66699 66 5v-59c-65.333 -36.667 -130.333 -55 -195 -55c-56 0 -100.833 19 -134.5 57s-55.834 95 -66.501 171zM760.003 581.001l-57 -18c-154.667 -48.667 -256.167 -92.5 -304.5 -131.5s-72.5 -95.167 -72.5 -168.5
c0 -48 16.5 -89.667 49.5 -125s71.833 -53 116.5 -53c74.667 0 143.667 35 207 105c40.667 46 61 109.667 61 191v200z" />
    <glyph glyph-name="b" unicode="b" horiz-adv-x="1373" 
d="M202 -37l-0.000976562 1241c0 96 -6.5 157 -19.5 183s-49.5 52 -109.5 78l-57 24v16l372 138v-703c74.667 69.333 147.167 121.333 217.5 156s138.5 52 204.5 52c134.667 0 245.5 -52.167 332.5 -156.5s130.5 -236.833 130.5 -397.5
c0 -184 -57.167 -334.167 -171.5 -450.5s-262.166 -174.5 -443.499 -174.5c-56.667 0 -113.167 5 -169.5 15s-112.5 24.667 -168.5 44zM387.999 855l-0.000976562 -658c39.333 -48 88.5 -86.667 147.5 -116s116.833 -44 173.5 -44c105.333 0 192 45 260 135
s102 204.667 102 344c0 138.667 -34.333 251.5 -103 338.5s-157.334 130.5 -266.001 130.5c-49.333 0 -100.166 -10.833 -152.499 -32.5s-106.166 -54.167 -161.499 -97.5z" />
    <glyph glyph-name="c" unicode="c" horiz-adv-x="1109" 
d="M1031 140v-97.001c-128.667 -49.333 -254.667 -74 -378 -74c-169.333 0 -306.833 51.833 -412.5 155.5s-158.5 238.834 -158.5 405.501c0 180 57.667 328 173 444s262.666 174 441.999 174c141.333 0 266 -42.333 374 -127l-141 -152c-88 139.333 -192.333 209 -313 209
c-97.333 0 -174.666 -43.667 -231.999 -131s-86 -204.666 -86 -351.999c0 -162.667 37.5 -289.834 112.5 -381.501s179.167 -137.5 312.5 -137.5c110.667 0 213 21.333 307 64z" />
    <glyph glyph-name="d" unicode="d" horiz-adv-x="1420" 
d="M985 177c-74.667 -69.333 -147 -121.334 -217 -156.001s-138 -52 -204 -52c-134.667 0 -245.5 52.167 -332.5 156.5s-130.5 236.833 -130.5 397.5c0 185.333 57.333 335.833 172 451.5s263.667 173.5 447 173.5c42 0 85 -2.83301 129 -8.5s89.333 -14.167 136 -25.5v200
c0 42 -7.5 71.5 -22.5 88.5s-52.167 37.833 -111.5 62.5l-60 24v16l381 140v-1384c0 -53.333 12.333 -89.666 37 -108.999s71.667 -29 141 -29h8v-60l-373 -98v212zM985 261.999l0.00195312 658c-38.667 48 -87.5 86.667 -146.5 116s-116.833 44 -173.5 44
c-105.333 0 -192 -45 -260 -135s-102 -204.667 -102 -344c0 -138.667 34.167 -251.5 102.5 -338.5s157.166 -130.5 266.499 -130.5c49.333 0 100.166 10.833 152.499 32.5s105.833 54.167 160.5 97.5z" />
    <glyph glyph-name="e" unicode="e" horiz-adv-x="1171" 
d="M1078 188v-94c-146 -83.333 -287.667 -125 -425 -125c-165.333 0 -301.333 55.333 -408 166s-160 251.667 -160 423c0 169.333 51.167 310 153.5 422s230.5 168 384.5 168c138.667 0 246.5 -45.667 323.5 -137s115.5 -218.666 115.5 -381.999v-32h-766
c-0.666992 -22.667 -1 -38.334 -1 -47.001c0 -129.333 41 -237.833 123 -325.5s183.667 -131.5 305 -131.5c116 0 234.333 31.667 355 95zM300 659l207.001 0.000976562c149.333 0 243.833 7.5 283.5 22.5s59.5 50.833 59.5 107.5c0 87.333 -21.667 158.666 -65 213.999
s-99 83 -167 83c-84 0 -154.833 -38.5 -212.5 -115.5s-92.834 -180.833 -105.501 -311.5z" />
    <glyph glyph-name="f" unicode="f" horiz-adv-x="822" 
d="M233 1040h-185.999v77h186v102c0 142 34 248.5 102 319.5s169.667 106.5 305 106.5c127.333 0 222.666 -33 285.999 -99l-141 -156c-49.333 128.667 -119.333 193 -210 193c-52 0 -91 -23.333 -117 -70s-39 -117 -39 -211v-185h318v-77h-318v-776
c0 -83.333 12.833 -137.833 38.5 -163.5s80.5 -38.5 164.5 -38.5h15v-62h-590v62h20c68.667 0 113.5 12.833 134.5 38.5s31.5 80.167 31.5 163.5v776z" />
    <glyph glyph-name="g" unicode="g" horiz-adv-x="1233" 
d="M321 0c-50.667 38.667 -84.001 70.167 -100.001 94.5s-26.667 59.5 -32 105.5l250 172c-88 22.667 -158 68 -210 136s-78 147.667 -78 239c0 119.333 38.5 215.833 115.5 289.5s177.833 110.5 302.5 110.5c71.333 0 138.333 -10.333 201 -31h401v-93h-251
c66.667 -88.667 100 -177.667 100 -267c0 -124.667 -39.167 -222.5 -117.5 -293.5s-186.5 -106.5 -324.5 -106.5h-50c-78 -45.333 -117 -85 -117 -119c0 -54.667 74.333 -82 223 -82h230c194.667 0 292 -79.333 292 -238c0 -114.667 -51 -207 -153 -277s-237 -105 -405 -105
c-159.333 0 -281.166 26.333 -365.499 79s-130.833 131.667 -139.5 237zM586.999 419c72 0 128.833 29.667 170.5 89s62.5 140.666 62.5 243.999c0 104 -20.833 185.667 -62.5 245s-98.5 89 -170.5 89s-128.833 -29.667 -170.5 -89s-62.5 -141 -62.5 -245
c0 -103.333 20.833 -184.666 62.5 -243.999s98.5 -89 170.5 -89zM397.999 0c-58.667 -52 -88 -113.332 -88 -183.999c0 -64.667 29.167 -117.5 87.5 -158.5s133.5 -61.5 225.5 -61.5c98.667 0 181.167 24.167 247.5 72.5s99.5 108.166 99.5 179.499
c0 56.667 -18.333 96.167 -55 118.5s-100.667 33.5 -192 33.5h-325z" />
    <glyph glyph-name="h" unicode="h" horiz-adv-x="1427" 
d="M450 854l-0.00195312 -590.001c0 -83.333 11.167 -137.833 33.5 -163.5s69.166 -38.5 140.499 -38.5h13v-62h-559v62h18c68.667 0 113.834 12.833 135.501 38.5s32.5 80.167 32.5 163.5v940c0 95.333 -6.5 156.333 -19.5 183s-49.5 52.667 -109.5 78l-57 24v16l372 140
v-729c80 77.333 155.833 135.333 227.5 174s138.834 58 201.501 58c90.667 0 165.667 -31 225 -93c60.667 -63.333 91 -178.666 91 -345.999v-445c0 -83.333 11 -137.833 33 -163.5s68.333 -38.5 139 -38.5h14v-62h-558v62h16c70 0 115.833 13 137.5 39
s32.5 80.333 32.5 163v449c0 98.667 -16.167 170 -48.5 214s-85.166 66 -158.499 66c-53.333 0 -109.333 -11.5 -168 -34.5s-120 -57.833 -184 -104.5z" />
    <glyph glyph-name="i" unicode="i" horiz-adv-x="698" 
d="M450 1143v-879c0 -82.667 11 -137 33 -163s68 -39 138 -39h16v-62h-559v62h20c68 0 112.667 12.833 134 38.5s32 80.167 32 163.5v439c0 100.667 -5.83301 162.5 -17.5 185.5s-50.5 49.5 -116.5 79.5l-52 25v15zM324 1288c-37.333 0 -68.666 12.667 -93.999 38
s-38 56.666 -38 93.999c0 36.667 12.667 67.834 38 93.501s56.666 38.5 93.999 38.5s68.666 -12.833 93.999 -38.5s38 -56.834 38 -93.501c0 -37.333 -12.667 -68.666 -38 -93.999s-56.666 -38 -93.999 -38z" />
    <glyph glyph-name="j" unicode="j" horiz-adv-x="690" 
d="M8 -465l0.000976562 73c124 54 204.833 113.167 242.5 177.5s56.5 175.833 56.5 334.5v590c0 94.667 -6.83301 155 -20.5 181s-51.834 51.667 -114.501 77l-59 25v15l380 139v-1032c0 -124 -12.333 -218.167 -37 -282.5s-69 -117.833 -133 -160.5
c-102.667 -68 -207.667 -113.667 -315 -137zM404.001 1288c-37.333 0 -68.666 12.667 -93.999 38s-38 56.666 -38 93.999c0 36.667 12.667 67.834 38 93.501s56.666 38.5 93.999 38.5c36.667 0 67.834 -12.833 93.501 -38.5s38.5 -56.834 38.5 -93.501
c0 -37.333 -12.833 -68.666 -38.5 -93.999s-56.834 -38 -93.501 -38z" />
    <glyph glyph-name="k" unicode="k" horiz-adv-x="1280" 
d="M442 629l0.00292969 -365c0 -82.667 11.333 -137 34 -163s70 -39 142 -39h11v-62h-559v62h18c69.333 0 114.666 12.833 135.999 38.5s32 80.167 32 163.5v945c0 92 -6.83301 151.833 -20.5 179.5s-48.834 53.167 -105.501 76.5l-60 24v16l372 140v-1017l301 255
c88 74 132.667 121 134 141c1.33301 20.667 -27.334 31 -86.001 31h-15v62h396v-62h-17c-48.667 0 -148 -62 -298 -186l-222 -184l371 -420c120 -135.333 206.667 -203 260 -203h14v-62h-277z" />
    <glyph glyph-name="l" unicode="l" horiz-adv-x="698" 
d="M434 1645l0.00195312 -1381c0 -83.333 11.167 -137.833 33.5 -163.5s69.166 -38.5 140.499 -38.5h13v-62h-559v62h18c69.333 0 114.666 12.833 135.999 38.5s32 80.167 32 163.5v940c0 96 -6.5 157 -19.5 183s-49.5 52 -109.5 78l-57 24v16z" />
    <glyph glyph-name="m" unicode="m" horiz-adv-x="2048" 
d="M450 853v-589.001c0 -83.333 11.167 -137.833 33.5 -163.5s69.166 -38.5 140.499 -38.5h13v-62h-559v62h17c69.333 0 114.833 12.833 136.5 38.5s32.5 80.167 32.5 163.5v463c0 84.667 -6.83301 139.834 -20.5 165.501s-49.834 50.834 -108.501 75.501l-57 25v15l372 140
v-219c79.333 73.333 151.333 128.166 216 164.499s122.334 54.5 173.001 54.5c72.667 0 134.334 -20.833 185.001 -62.5s83 -98.5 97 -170.5c82 78 157.333 136.333 226 175s130.667 58 186 58c94 0 167 -37.333 219 -112c42.667 -60.667 64 -168.667 64 -324v-448
c0 -82.667 10.833 -137 32.5 -163s67.5 -39 137.5 -39h16v-62h-559v62h19c68.667 0 113.834 13 135.501 39s32.5 80.333 32.5 163v466c0 90.667 -15 157.167 -45 199.5s-77.333 63.5 -142 63.5c-48 0 -97.833 -11.667 -149.5 -35s-105.167 -58.333 -160.5 -105v-589
c0 -83.333 11.167 -137.833 33.5 -163.5s68.833 -38.5 139.5 -38.5h13v-62h-558v62h17c69.333 0 114.833 12.833 136.5 38.5s32.5 80.167 32.5 163.5v470c0 91.333 -14.333 157.333 -43 198s-75.334 61 -140.001 61c-44 0 -92.167 -11.667 -144.5 -35
s-108.833 -58.333 -169.5 -105z" />
    <glyph glyph-name="n" unicode="n" horiz-adv-x="1427" 
d="M450 854l-0.00292969 -590.001c0 -83.333 11.167 -137.833 33.5 -163.5s69.166 -38.5 140.499 -38.5h13v-62h-559v62h18c68.667 0 113.834 12.833 135.501 38.5s32.5 80.167 32.5 163.5v450c0 92 -6.66699 151 -20 177s-49.666 51.667 -108.999 77l-57 25v15l372 139
v-231c80 77.333 155.833 135.333 227.5 174s138.834 58 201.501 58c90.667 0 165.667 -31 225 -93c60.667 -63.333 91 -178.666 91 -345.999v-445c0 -83.333 11 -137.833 33 -163.5s68.333 -38.5 139 -38.5h14v-62h-558v62h16c70 0 115.833 13 137.5 39
s32.5 80.333 32.5 163v449c0 98.667 -16.167 170 -48.5 214s-85.166 66 -158.499 66c-53.333 0 -109.333 -11.5 -168 -34.5s-120 -57.833 -184 -104.5z" />
    <glyph glyph-name="o" unicode="o" horiz-adv-x="1303" 
d="M651 -31c-164.667 0 -300.167 55.333 -406.5 166s-159.5 252 -159.5 424c0 171.333 53.167 312.333 159.5 423s241.833 166 406.5 166c165.333 0 301.166 -55.333 407.499 -166s159.5 -251.667 159.5 -423c0 -172 -53.167 -313.333 -159.5 -424
s-242.166 -166 -407.499 -166zM651 39c102.667 0 185.334 47.667 248.001 143s94 221 94 377c0 155.333 -31.333 280.666 -94 375.999s-145.334 143 -248.001 143c-102 0 -184.333 -47.667 -247 -143s-94 -220.666 -94 -375.999c0 -156 31.333 -281.667 94 -377
s145 -143 247 -143z" />
    <glyph glyph-name="p" unicode="p" horiz-adv-x="1412" 
d="M426 7l-0.000976562 -178c0 -82.667 11.167 -136.834 33.5 -162.501s69.166 -38.5 140.499 -38.5h13v-62h-559v62h9c72.667 0 120.334 12.833 143.001 38.5s34 79.834 34 162.501v880c0 94 -6.66699 154.833 -20 182.5s-48.666 53.167 -105.999 76.5l-60 25v15l372 140
v-208c74.667 69.333 147.167 121.333 217.5 156s138.5 52 204.5 52c134.667 0 245.5 -52.167 332.5 -156.5s130.5 -236.833 130.5 -397.5c0 -185.333 -57.5 -335.833 -172.5 -451.5s-264.833 -173.5 -449.5 -173.5c-42.667 0 -86 3.16699 -130 9.5s-88.333 15.833 -133 28.5
zM425.999 855l-0.000976562 -658c39.333 -48 88.5 -86.667 147.5 -116s116.833 -44 173.5 -44c105.333 0 192 45 260 135s102 204.667 102 344c0 138.667 -34.333 251.5 -103 338.5s-157.334 130.5 -266.001 130.5c-49.333 0 -100.166 -10.833 -152.499 -32.5
s-106.166 -54.167 -161.499 -97.5z" />
    <glyph glyph-name="q" unicode="q" 
d="M1172 1148l0.000976562 -1319c0 -82.667 11 -136.834 33 -162.501s68.667 -38.5 140 -38.5h13v-62h-559v62h18c69.333 0 114.666 12.833 135.999 38.5s32 79.834 32 162.501v348c-74.667 -69.333 -147 -121.333 -217 -156s-138 -52 -204 -52
c-134.667 0 -245.5 52.167 -332.5 156.5s-130.5 236.833 -130.5 397.5c0 182.667 57 332.5 171 449.5s259.667 175.5 437 175.5c60 0 118.333 -4.83301 175 -14.5s111.667 -24.167 165 -43.5zM985.001 262l2.00195 658c-45.333 53.333 -95 93.333 -149 120s-112 40 -174 40
c-104.667 0 -191 -45 -259 -135s-102 -204.667 -102 -344c0 -138.667 34.167 -251.5 102.5 -338.5s157.166 -130.5 266.499 -130.5c49.333 0 100.166 10.833 152.499 32.5s105.833 54.167 160.5 97.5z" />
    <glyph glyph-name="r" unicode="r" horiz-adv-x="1008" 
d="M458 836v-571.999c0 -83.333 12.833 -137.666 38.5 -162.999s80.167 -38 163.5 -38h15v-63h-597v62h18c72.667 0 120.167 12.833 142.5 38.5s33.5 80.167 33.5 163.5v439c0 98.667 -6.66699 161.167 -20 187.5s-51.333 52.166 -114 77.499l-60 25v15l380 135v-220
c70 75.333 134.167 131.666 192.5 168.999s110.833 56 157.5 56c84 0 153.667 -42.667 209 -128l-151 -164c-50 86 -104.667 129 -164 129c-52.667 0 -127 -43.667 -223 -131c-2.66699 -2 -9.66699 -8 -21 -18z" />
    <glyph glyph-name="s" unicode="s" horiz-adv-x="993" 
d="M133 44l-24.001 281.998h80l3 -20c28.667 -183.333 122.667 -275 282 -275c68.667 0 127.667 21.5 177 64.5s74 94.5 74 154.5c0 37.333 -12.667 70.333 -38 99c-25.333 28 -86.666 68.333 -183.999 121l-95 52c-181.333 99.333 -272 210 -272 332
c0 90.667 33.333 162.334 100 215.001s157 79 271 79c96.667 0 202.667 -21 318 -63v-232h-80l-3 19c-4.66699 32 -11 59.5 -19 82.5s-19.5 43.333 -34.5 61s-36.167 33.834 -63.5 48.501s-67.666 22 -120.999 22c-56 0 -101.833 -16.167 -137.5 -48.5
s-53.5 -73.833 -53.5 -124.5c0 -74 70.333 -150 211 -228l105 -58c102.667 -56.667 173.667 -109 213 -157c38.667 -48.667 58 -108 58 -178c0 -97.333 -39 -175.5 -117 -234.5s-181 -88.5 -309 -88.5c-134.667 0 -248.334 25 -341.001 75z" />
    <glyph glyph-name="t" unicode="t" horiz-adv-x="838" 
d="M791 129l0.000976562 -90c-82.667 -46.667 -169.334 -70 -260.001 -70c-114 0 -195.333 34 -244 102s-73 182 -73 342v627h-183l369 361v-284h357v-77h-357v-594c0 -131.333 17.5 -226.833 52.5 -286.5s91.167 -89.5 168.5 -89.5c41.333 0 98 19.667 170 59z" />
    <glyph glyph-name="u" unicode="u" horiz-adv-x="1412" 
d="M978 189c-67.333 -73.333 -136.168 -128.33 -206.501 -164.997s-142.166 -55 -215.499 -55c-111.333 0 -193 35.667 -245 107c-52 70.667 -78 182 -78 334v293c0 98.667 -6.33301 161.167 -19 187.5s-49.334 52.166 -110.001 77.499l-57 25v15l372 140v-672
c0 -144.667 15.333 -240.834 46 -288.501s84 -71.5 160 -71.5c61.333 0 115.833 10 163.5 30s110.834 59.333 189.501 118v442c0 96.667 -6.5 158.167 -19.5 184.5s-49.5 52.166 -109.5 77.499l-57 25v15l372 140v-884c0 -55.333 13 -92.833 39 -112.5s75 -29.5 147 -29.5h8
v-60l-380 -93v220z" />
    <glyph glyph-name="v" unicode="v" horiz-adv-x="1257" 
d="M621 -31l-426 885.999c-42.667 84.667 -75 139.167 -97 163.5s-49.667 36.5 -83 36.5h-15v62h465v-62h-18c-65.333 0 -98 -16.333 -98 -49c0 -22 18.333 -71.667 55 -149l300 -631l262 630c28.667 66.667 43 112.334 43 137.001c0 41.333 -36 62 -108 62h-17v62h373v-62
h-15c-31.333 0 -58.833 -14 -82.5 -42s-52.167 -80.333 -85.5 -157l-386 -887h-67z" />
    <glyph glyph-name="w" unicode="w" horiz-adv-x="1691" 
d="M448 -31l-304.002 881.001c-46 136.667 -89.667 205 -131 205h-13v62h427v-62h-13c-72.667 0 -109 -22 -109 -66c0 -12 3 -27.667 9 -47c6.66699 -22.667 10.334 -36 11.001 -40c8.66699 -32 13.667 -49.667 15 -53l206 -597l303 865h64l359 -870l183 602
c19.333 65.333 29 112.666 29 141.999c0 42.667 -29.333 64 -88 64h-15v62h310v-62h-15c-49.333 0 -95.666 -68.667 -138.999 -206l-277 -880h-63l-365 897l-318 -897h-66z" />
    <glyph glyph-name="x" unicode="x" horiz-adv-x="1171" 
d="M548 465l-171.002 -207.001c-68.667 -84 -103.667 -136.333 -105 -157c-1.33301 -26 19.334 -39 62.001 -39h16v-62h-334v62h23c48 0 125.667 65 233 195l225 272l-236 318c-72 96.667 -118.5 155.5 -139.5 176.5s-43.167 31.5 -66.5 31.5h-16v62h427v-62h-16
c-41.333 0 -62 -12.667 -62 -38c0 -16.667 36.333 -73.667 109 -171l127 -171l142 170c79.333 94.667 119 153.334 119 176.001s-21 34 -63 34h-15v62h326v-62h-16c-31.333 0 -64.166 -14.167 -98.499 -42.5s-85.166 -83.5 -152.499 -165.5l-193 -235l267 -358
c95.333 -128 167.666 -192 216.999 -192h15v-62h-458v62h15c42 0 63 14.333 63 43c0 22.667 -29 72.667 -87 150z" />
    <glyph glyph-name="y" unicode="y" horiz-adv-x="1303" 
d="M634 35l-392.002 818.002c-42.667 84 -75.334 138.667 -98.001 164s-50 38 -82 38h-15v62h465v-62h-18c-65.333 0 -98 -16.667 -98 -50c0 -21.333 18.667 -72 56 -152l284 -604l286 604c33.333 69.333 50 114.666 50 135.999c0 44 -33.333 66 -100 66h-10v62h342v-62h-14
c-33.333 0 -61.166 -12.833 -83.499 -38.5s-53.833 -80.834 -94.5 -165.501l-455 -942c-45.333 -94.667 -81.333 -159.667 -108 -195s-67 -72.333 -121 -111c-76 -45.333 -159 -68 -249 -68c-50.667 0 -105 7.66699 -163 23l98 173c50 -12 94.333 -18 133 -18
c78.667 0 147.334 20.667 206.001 62s107.334 103.333 146.001 186z" />
    <glyph glyph-name="z" unicode="z" horiz-adv-x="1117" 
d="M101 0v62l651 1001h-203c-158.667 0 -254 -13.333 -286 -40c-38 -32 -62.667 -77.667 -74 -137l-3 -17h-75l32 248h835v-54l-650 -1001h265c118.667 0 201 13.167 247 39.5s75.333 76.833 88 151.5l3 19h85l-34 -272h-881z" />
    <glyph glyph-name="braceleft" unicode="{" horiz-adv-x="915" 
d="M410 640c114.667 -82 172 -173.329 172 -273.996c0 -38.667 -16.667 -104.334 -50 -197.001l-30 -83c-30 -82 -45 -141 -45 -177c0 -55.333 22.333 -106 67 -152s100 -75.333 166 -88v-41c-109.333 9.33301 -200 46.666 -272 111.999s-108 143 -108 233
c0 63.333 18.333 138.333 55 225l41 95c29.333 68 44 129 44 183c0 81.333 -54.333 122 -163 122h-78v85h78c108 0 162 40.333 162 121c0 54.667 -14.333 116 -43 184l-41 95c-36.667 86.667 -55 161.667 -55 225c0 90 36 167.667 108 233s162.667 102.666 272 111.999v-41
c-66 -12.667 -121.333 -41.834 -166 -87.501s-67 -95.834 -67 -150.501c0 -37.333 15 -97 45 -179l30 -83c33.333 -92.667 50 -159.667 50 -201c0 -97.333 -57.333 -187.666 -172 -270.999z" />
    <glyph glyph-name="bar" unicode="|" horiz-adv-x="504" 
d="M171 -47v1645h163v-1645h-163z" />
    <glyph glyph-name="braceright" unicode="}" horiz-adv-x="915" 
d="M505 640c-114.667 82.667 -172 174.328 -172 274.995c0 38.667 16.667 104.334 50 197.001l30 83c30 82 45 141 45 177c0 55.333 -22.333 106 -67 152s-100 75.333 -166 88v41c109.333 -9.33301 200 -46.666 272 -111.999s108 -143 108 -233
c0 -63.333 -18.333 -138.333 -55 -225l-41 -95c-29.333 -68 -44 -129 -44 -183c0 -81.333 54.333 -122 163 -122h78v-85h-78c-108.667 0 -163 -40.333 -163 -121c0 -54.667 14.667 -116 44 -184l41 -95c36.667 -86.667 55 -161.667 55 -225c0 -90 -36 -167.667 -108 -233
s-162.667 -102.666 -272 -111.999v41c66 12.667 121.333 41.834 166 87.501s67 95.834 67 150.501c0 37.333 -15 97 -45 179l-30 83c-33.333 92.667 -50 159.667 -50 201c0 97.333 57.333 187.333 172 270z" />
    <glyph glyph-name="asciitilde" unicode="~" 
d="M202 396l-77.999 0.000976562v17c0 92 27.167 170.333 81.5 235s120.166 97 197.499 97c60.667 0 147 -34.333 259 -103l75 -46c118 -71.333 201 -107 249 -107c41.333 0 81.333 23 120 69s58 94 58 144v12h77v-19c0 -90.667 -28.333 -168.334 -85 -233.001
s-125 -97 -205 -97c-62 0 -144.667 33 -248 99l-78 50c-111.333 71.333 -191 107 -239 107c-46 0 -88.167 -21.5 -126.5 -64.5s-57.5 -90.167 -57.5 -141.5v-19z" />
    <glyph glyph-name="nonbreakingspace" unicode="&#xa0;" 
 />
    <glyph glyph-name="exclamdown" unicode="&#xa1;" horiz-adv-x="621" 
d="M280 714h60l95 -1163l-247 -47zM310 1148c37.333 0 68.666 -12.667 93.999 -38s38 -56.666 38 -93.999c0 -36.667 -12.667 -67.834 -38 -93.501s-56.666 -38.5 -93.999 -38.5s-68.666 12.833 -93.999 38.5s-38 56.834 -38 93.501c0 37.333 12.667 68.666 38 93.999
s56.666 38 93.999 38z" />
    <glyph glyph-name="cent" unicode="&#xa2;" 
d="M768 -155l-77 -0.000976562v340c-166.667 23.333 -295 85.333 -385 186s-135 232.667 -135 396c0 164 46.667 299 140 405s220 168.333 380 187v348h77v-348c50.667 0 113.834 -6.66699 189.501 -20s131.167 -27.666 166.5 -42.999l32 -295h-77l-5 13
c-58.667 166.667 -160.667 260.667 -306 282v-1001c34 -1.33301 60.667 -2 80 -2c88 0 183 17.667 285 53v-90c-120.667 -47.333 -242.334 -71 -365.001 -71v-340zM691 309.999l0.000976562 985.999c-92.667 -12 -166.334 -65.667 -221.001 -161s-82 -218.666 -82 -369.999
c0 -257.333 101 -409 303 -455z" />
    <glyph glyph-name="sterling" unicode="&#xa3;" 
d="M155 0l-0.000976562 163.001c127.333 34 215.333 174.333 264 421l45 231h-185v77h202l21 107c43.333 222.667 97.833 378.167 163.5 466.5s158.834 132.5 279.501 132.5c111.333 0 197 -44.333 257 -133l-116 -140c-15.333 62.667 -38.833 113.5 -70.5 152.5
s-65.5 58.5 -101.5 58.5c-49.333 0 -88 -29.833 -116 -89.5s-59.333 -177.5 -94 -353.5l-39 -201h328v-77h-343l-20 -104c-27.333 -136.667 -63 -239.334 -107 -308.001s-125.333 -148.667 -244 -240h838v-163h-962z" />
    <glyph glyph-name="currency" unicode="&#xa4;" horiz-adv-x="1350" 
d="M385 405l-251.999 -250l-75 76l251 248c-66 88.667 -99 186 -99 292c0 108.667 32.667 202.667 98 282l-253 252l80 76l251 -247c46 36 93.167 62.833 141.5 80.5s97.5 26.5 147.5 26.5c100.667 0 197 -35.667 289 -107l250 247l80 -76l-252 -252
c65.333 -79.333 98 -173.333 98 -282c0 -106 -33.333 -203.333 -100 -292l252 -248l-76 -76l-252 250c-44 -31.333 -90 -55 -138 -71s-98.333 -24 -151 -24c-104.667 0 -201.334 31.667 -290.001 95zM675.001 419c98 0 181.833 34.833 251.5 104.5
s104.5 153.834 104.5 252.501s-34.833 182.667 -104.5 252s-153.5 104 -251.5 104c-98.667 0 -182.667 -34.667 -252 -104s-104 -153.333 -104 -252s34.667 -182.834 104 -252.501s153.333 -104.5 252 -104.5z" />
    <glyph glyph-name="yen" unicode="&#xa5;" 
d="M597 419h-348.998v77h349v156h-349v77h341l-330 561c-78 132.667 -151.667 199 -221 199h-15v63h496v-63h-21c-48 0 -72 -16.333 -72 -49c0 -30.667 20 -80.667 60 -150l277 -486l262 486c35.333 66 53 112 53 138c0 40.667 -30 61 -90 61h-19v63h373v-63h-22
c-50 0 -87.333 -11 -112 -33s-61.334 -77.667 -110.001 -167l-307 -560h349v-77h-357v-156h357v-77h-357v-155c0 -84 12.667 -138.667 38 -164s79.666 -38 162.999 -38h15v-62h-618v62h16c82.667 0 136.667 12.667 162 38s38 80 38 164v155z" />
    <glyph glyph-name="section" unicode="&#xa7;" 
d="M225 -306l-22.998 337.002h78l3 -17c18 -100.667 59.667 -179.834 125 -237.501s145.333 -86.5 240 -86.5c92 0 170 25.667 234 77s96 114.333 96 189c0 84.667 -81 170 -243 256l-138 73c-147.333 78 -248.666 146.333 -303.999 205s-83 127 -83 205
c0 91.333 41.667 187.666 125 288.999c-41.333 30.667 -72.5 66 -93.5 106s-31.5 84.667 -31.5 134c0 110.667 48.5 200.667 145.5 270s222.833 104 377.5 104c136 0 264.667 -22 386 -66l32 -291h-80l-3 15c-16.667 80.667 -60.167 147.5 -130.5 200.5
s-150.5 79.5 -240.5 79.5c-84.667 0 -157.334 -24.333 -218.001 -73s-91 -107 -91 -175c0 -48.667 20 -93 60 -133c39.333 -40 108.666 -85.667 207.999 -137l107 -56c150 -78 256.833 -149.5 320.5 -214.5s95.5 -135.5 95.5 -211.5c0 -94.667 -43 -191 -129 -289
c81.333 -57.333 122 -135.333 122 -234c0 -112 -51.5 -204.333 -154.5 -277s-234.5 -109 -394.5 -109c-136.667 0 -269.334 22.333 -398.001 67zM997.002 280.002c38.667 49.333 58 98.668 58 148.001c0 57.333 -27.333 112.666 -82 165.999s-151 118 -289 194l-296 165
c-36 -47.333 -54 -98.333 -54 -153c0 -63.333 30.833 -123 92.5 -179s178.5 -129.667 350.5 -221z" />
    <glyph glyph-name="dieresis" unicode="&#xa8;" horiz-adv-x="1303" 
d="M439 1288c-29.333 0 -54.166 10.167 -74.499 30.5s-30.5 44.833 -30.5 73.5c0 29.333 10.167 54.166 30.5 74.499s45.166 30.5 74.499 30.5c28.667 0 53.167 -10.167 73.5 -30.5s30.5 -45.166 30.5 -74.499c0 -28.667 -10.167 -53.167 -30.5 -73.5
s-44.833 -30.5 -73.5 -30.5zM865 1288c-28.667 0 -53.167 10.167 -73.5 30.5s-30.5 44.833 -30.5 73.5c0 29.333 10.167 54.166 30.5 74.499s44.833 30.5 73.5 30.5c29.333 0 54.166 -10.167 74.499 -30.5s30.5 -45.166 30.5 -74.499c0 -28.667 -10.167 -53.167 -30.5 -73.5
s-45.166 -30.5 -74.499 -30.5z" />
    <glyph glyph-name="copyright" unicode="&#xa9;" horiz-adv-x="1815" 
d="M1242 303c-102.667 -36.667 -200.001 -55.001 -292.001 -55.001c-152.667 0 -274 47.333 -364 142s-135 222 -135 382c0 157.333 44.833 284 134.5 380s208.5 144 356.5 144c122.667 0 222.667 -11.333 300 -34l23 -230h-70l-3 17
c-28.667 122.667 -110.334 184 -245.001 184c-91.333 0 -167.166 -45.667 -227.499 -137s-90.5 -205.666 -90.5 -342.999c0 -127.333 31.833 -233 95.5 -317s143.834 -126 240.501 -126c132.667 0 211 68.667 235 206l3 19h62zM906.999 -47.001
c-227.333 0 -421.166 80.333 -581.499 241s-240.5 354.334 -240.5 581.001c0 227.333 80.167 421.333 240.5 582s354.166 241 581.499 241s421.333 -80.333 582 -241s241 -354.667 241 -582c0 -226.667 -80.333 -420.334 -241 -581.001s-354.667 -241 -582 -241z
M906.999 30.999c206 0 381.666 72.667 526.999 218s218 320.666 218 525.999c0 206 -72.667 381.667 -218 527s-321 218 -527 218c-205.333 0 -380.666 -72.667 -525.999 -218s-218 -321 -218 -527c0 -205.333 72.5 -380.666 217.5 -525.999s320.5 -218 526.5 -218z" />
    <glyph glyph-name="ordfeminine" unicode="&#xaa;" horiz-adv-x="745" 
d="M471 1011c-33.333 -41.333 -69.332 -72.333 -107.999 -93s-80 -31 -124 -31c-46 0 -84.333 15.333 -115 46s-46 69.334 -46 116.001c0 51.333 23.5 94.666 70.5 129.999s125.167 68.666 234.5 99.999l77 21v87c0 102.667 -42.667 154 -128 154c-62.667 0 -94 -31 -94 -93
v-37l-146 -45v28c0 54.667 29.5 102.334 88.5 143.001s127.833 61 206.5 61c133.333 0 200 -60.667 200 -182v-280c0 -68 5.66699 -113.333 17 -136s34.333 -34 69 -34c13.333 0 29.666 1.66699 48.999 5v-49c-43.333 -23.333 -85 -35 -125 -35
c-68.667 0 -110.667 41.333 -126 124zM460.001 1245l-25 -6.99902c-90.667 -28.667 -150.167 -53.834 -178.5 -75.501s-42.5 -53.167 -42.5 -94.5c0 -26 9.16699 -48.667 27.5 -68s40.166 -29 65.499 -29c42.667 0 78.834 16 108.501 48s44.5 71.667 44.5 119v107z" />
    <glyph glyph-name="guillemotleft" unicode="&#xab;" horiz-adv-x="1109" 
d="M278 559l303 -435h-61l-435 404v62l435 403h61zM728 559l303 -435h-61l-435 404v62l435 403h61z" />
    <glyph glyph-name="logicalnot" unicode="&#xac;" 
d="M1241 776v-435h-109v326h-1008v109h1117z" />
    <glyph glyph-name="registered" unicode="&#xae;" horiz-adv-x="1815" 
d="M799 752v-290.999c0 -45.333 5.16699 -76.333 15.5 -93s30.166 -25 59.499 -25c6.66699 0 18.334 0.666992 35.001 2l5 -64h-395v63h26c39.333 0 64.833 7.16699 76.5 21.5s17.5 46.166 17.5 95.499v656c0 49.333 -5.83301 81.166 -17.5 95.499s-37.167 21.5 -76.5 21.5
h-26v63h391c123.333 0 210.833 -16.167 262.5 -48.5s77.5 -86.833 77.5 -163.5c0 -69.333 -18.5 -128.666 -55.5 -177.999s-92.5 -88.333 -166.5 -117c32 -20.667 79 -79.667 141 -177l65 -104c69.333 -110 118.333 -165 147 -165h23v-63h-217l-287 471h-101zM799 815.001
l126 0.000976562c53.333 16.667 93.333 45.167 120 85.5s40 92.5 40 156.5c0 59.333 -20.5 103.666 -61.5 132.999s-102.833 44 -185.5 44h-39v-419zM907 -46.998c-227.333 0 -421.166 80.333 -581.499 241s-240.5 354.334 -240.5 581.001
c0 227.333 80.167 421.333 240.5 582s354.166 241 581.499 241s421.333 -80.333 582 -241s241 -354.667 241 -582c0 -226.667 -80.333 -420.334 -241 -581.001s-354.667 -241 -582 -241zM907 31.002c206 0 381.666 72.667 526.999 218s218 320.666 218 525.999
c0 206 -72.667 381.667 -218 527s-321 218 -527 218c-205.333 0 -380.666 -72.667 -525.999 -218s-218 -321 -218 -527c0 -205.333 72.5 -380.666 217.5 -525.999s320.5 -218 526.5 -218z" />
    <glyph glyph-name="degree" unicode="&#xb0;" horiz-adv-x="667" 
d="M334 1086c-70.667 0 -131 25 -181 75s-75 110.333 -75 181s25 131 75 181s110.333 75 181 75s131 -25 181 -75s75 -110.333 75 -181s-25 -131 -75 -181s-110.333 -75 -181 -75zM334 1148c53.333 0 99 19 137 57s57 83.667 57 137s-19 99 -57 137s-83.667 57 -137 57
s-99 -19 -137 -57s-57 -83.667 -57 -137s19 -99 57 -137s83.667 -57 137 -57z" />
    <glyph glyph-name="plusminus" unicode="&#xb1;" 
d="M1241 830v-109h-504v-504h-109v504h-504v109h504v504h109v-504h504zM1241 109v-109h-1117v109h1117z" />
    <glyph glyph-name="acute" unicode="&#xb4;" horiz-adv-x="1303" 
d="M650 1614h219l-426 -326h-86z" />
    <glyph glyph-name="mu" unicode="&#xb5;" horiz-adv-x="1373" 
d="M228 -372h-186.002l298 1489h186l-115 -577c-14 -70 -21 -128.333 -21 -175c0 -72.667 19 -131 57 -175s88.667 -66 152 -66c60.667 0 120.334 24.167 179.001 72.5s116.667 120.833 174 217.5l140 703h186l-170 -853c-15.333 -76 -23 -144.667 -23 -206l1 -58h-189
c-2 20 -3 33.667 -3 41c0 66 9.33301 140.333 28 223c-63.333 -98 -127.333 -171.667 -192 -221s-130 -74 -196 -74c-79.333 0 -152.666 28.333 -219.999 85z" />
    <glyph glyph-name="paragraph" unicode="&#xb6;" 
d="M1066 -372h-85.001v1838h-186v-1838h-86v1047h-25c-173.333 0 -312 39 -416 117s-156 182 -156 312s46.667 237.667 140 323c90.667 83.333 247.334 125 470.001 125h499v-86h-155v-1838z" />
    <glyph glyph-name="periodcentered" unicode="&#xb7;" 
d="M683 403c-42.667 0 -79.167 15.167 -109.5 45.5s-45.5 67.166 -45.5 110.499c0 42.667 15.167 79.167 45.5 109.5s66.833 45.5 109.5 45.5s79.167 -15.167 109.5 -45.5s45.5 -66.833 45.5 -109.5c0 -43.333 -15.167 -80.166 -45.5 -110.499s-66.833 -45.5 -109.5 -45.5z
" />
    <glyph glyph-name="periodcentered" unicode="&#x2219;" 
d="M683 403c-42.667 0 -79.167 15.167 -109.5 45.5s-45.5 67.166 -45.5 110.499c0 42.667 15.167 79.167 45.5 109.5s66.833 45.5 109.5 45.5s79.167 -15.167 109.5 -45.5s45.5 -66.833 45.5 -109.5c0 -43.333 -15.167 -80.166 -45.5 -110.499s-66.833 -45.5 -109.5 -45.5z
" />
    <glyph glyph-name="cedilla" unicode="&#xb8;" horiz-adv-x="1303" 
d="M713 0l-79 -144c130.667 -12 196 -62.667 196 -152c0 -46 -15.167 -80.667 -45.5 -104s-75.833 -35 -136.5 -35s-113.667 9 -159 27v61c44 -17.333 79.333 -26 106 -26c34.667 0 60.5 6.83301 77.5 20.5s25.5 34.167 25.5 61.5c0 56.667 -55 91 -165 103l101 188h79z" />
    <glyph glyph-name="ordmasculine" unicode="&#xba;" horiz-adv-x="799" 
d="M400 1598c100.667 0 183.667 -33.333 249 -100s98 -152 98 -256c0 -103.333 -32.667 -188.333 -98 -255s-148.333 -100 -249 -100c-101.333 0 -184.666 33.333 -249.999 100s-98 151.667 -98 255c0 104 32.667 189.333 98 256s148.666 100 249.999 100zM400 1541
c-59.333 0 -107.166 -27.333 -143.499 -82s-54.5 -127 -54.5 -217c0 -89.333 18.167 -161.5 54.5 -216.5s84.166 -82.5 143.499 -82.5c58.667 0 106.167 27.5 142.5 82.5s54.5 127.167 54.5 216.5c0 90 -18.167 162.333 -54.5 217s-83.833 82 -142.5 82z" />
    <glyph glyph-name="guillemotright" unicode="&#xbb;" horiz-adv-x="1109" 
d="M831 559l-303 434h62l434 -403v-62l-434 -404h-62zM381 559l-303 434h62l434 -403v-62l-434 -404h-62z" />
    <glyph glyph-name="questiondown" unicode="&#xbf;" horiz-adv-x="931" 
d="M458 706h186v-78c0 -79.333 -9.5 -141.333 -28.5 -186s-68.167 -119.667 -147.5 -225l-40 -55c-88.667 -119.333 -133 -228.666 -133 -327.999c0 -72 22.167 -129.5 66.5 -172.5s103.833 -64.5 178.5 -64.5c86 0 185 35.667 297 107l32 -49
c-122 -100.667 -264.333 -151 -427 -151c-96 0 -178.167 26 -246.5 78s-102.5 115 -102.5 189c0 88 46.667 183.333 140 286l33 37c80 87.333 132 163.166 156 227.499s36 159.833 36 286.5v98zM550 1148c36.667 0 67.834 -12.667 93.501 -38s38.5 -56.666 38.5 -93.999
c0 -36.667 -12.833 -67.834 -38.5 -93.501s-56.834 -38.5 -93.501 -38.5c-37.333 0 -68.666 12.833 -93.999 38.5s-38 56.834 -38 93.501c0 37.333 12.667 68.666 38 93.999s56.666 38 93.999 38z" />
    <glyph glyph-name="Agrave" unicode="&#xc0;" horiz-adv-x="1552" 
d="M398 489l-95 -231.001c-27.333 -65.333 -41 -106.666 -41 -123.999c0 -40.667 34.333 -64 103 -70l16 -2v-62h-381v62h16c40 0 73 14.167 99 42.5s55 81.833 87 160.5l548 1333h63l567 -1333c35.333 -82.667 63.333 -137.167 84 -163.5s45.667 -39.5 75 -39.5h13v-62
h-458v62h17c40.667 0 68 4 82 12s21 23.667 21 47c0 19.333 -16 67.333 -48 144l-94 224h-674zM427 565.999h606l-310 732zM1120 1722h-194l-442 202h318z" />
    <glyph glyph-name="Aacute" unicode="&#xc1;" horiz-adv-x="1552" 
d="M398 489l-95 -231.001c-27.333 -65.333 -41 -106.666 -41 -123.999c0 -40.667 34.333 -64 103 -70l16 -2v-62h-381v62h16c40 0 73 14.167 99 42.5s55 81.833 87 160.5l548 1333h63l567 -1333c35.333 -82.667 63.333 -137.167 84 -163.5s45.667 -39.5 75 -39.5h13v-62
h-458v62h17c40.667 0 68 4 82 12s21 23.667 21 47c0 19.333 -16 67.333 -48 144l-94 224h-674zM427 565.999h606l-310 732zM333 1722l318 202h318l-442 -202h-194z" />
    <glyph glyph-name="Acircumflex" unicode="&#xc2;" horiz-adv-x="1552" 
d="M398 489l-95 -231.001c-27.333 -65.333 -41 -106.666 -41 -123.999c0 -40.667 34.333 -64 103 -70l16 -2v-62h-381v62h16c40 0 73 14.167 99 42.5s55 81.833 87 160.5l548 1333h63l567 -1333c35.333 -82.667 63.333 -137.167 84 -163.5s45.667 -39.5 75 -39.5h13v-62
h-458v62h17c40.667 0 68 4 82 12s21 23.667 21 47c0 19.333 -16 67.333 -48 144l-94 224h-674zM427 565.999h606l-310 732zM651 1784l-178 -62h-179l326 202h62l326 -202h-194z" />
    <glyph glyph-name="Atilde" unicode="&#xc3;" horiz-adv-x="1552" 
d="M398 489l-95 -231.001c-27.333 -65.333 -41 -106.666 -41 -123.999c0 -40.667 34.333 -64 103 -70l16 -2v-62h-381v62h16c40 0 73 14.167 99 42.5s55 81.833 87 160.5l548 1333h63l567 -1333c35.333 -82.667 63.333 -137.167 84 -163.5s45.667 -39.5 75 -39.5h13v-62
h-458v62h17c40.667 0 68 4 82 12s21 23.667 21 47c0 19.333 -16 67.333 -48 144l-94 224h-674zM427 565.999h606l-310 732zM294 1722h-78.002c8.66699 60.667 32.667 109.5 72 146.5s87 55.5 143 55.5c30.667 0 75.334 -9.66699 134.001 -29l84 -27
c45.333 -14.667 82.333 -22 111 -22c52 0 88 26 108 78h78c-8 -61.333 -31 -110.333 -69 -147s-85 -55 -141 -55c-39.333 0 -84.333 9.66699 -135 29l-74 27c-39.333 14.667 -76.666 22 -111.999 22c-56.667 0 -97 -26 -121 -78z" />
    <glyph glyph-name="Adieresis" unicode="&#xc4;" horiz-adv-x="1552" 
d="M398 489l-95 -231.001c-27.333 -65.333 -41 -106.666 -41 -123.999c0 -40.667 34.333 -64 103 -70l16 -2v-62h-381v62h16c40 0 73 14.167 99 42.5s55 81.833 87 160.5l548 1333h63l567 -1333c35.333 -82.667 63.333 -137.167 84 -163.5s45.667 -39.5 75 -39.5h13v-62
h-458v62h17c40.667 0 68 4 82 12s21 23.667 21 47c0 19.333 -16 67.333 -48 144l-94 224h-674zM427 565.999h606l-310 732zM438 1719c-29.333 0 -54.166 10.167 -74.499 30.5s-30.5 44.833 -30.5 73.5c0 29.333 10.167 54.166 30.5 74.499s45.166 30.5 74.499 30.5
c28.667 0 53.167 -10.167 73.5 -30.5s30.5 -45.166 30.5 -74.499c0 -28.667 -10.167 -53.167 -30.5 -73.5s-44.833 -30.5 -73.5 -30.5zM864 1719c-28.667 0 -53.167 10.167 -73.5 30.5s-30.5 44.833 -30.5 73.5c0 29.333 10.167 54.166 30.5 74.499s44.833 30.5 73.5 30.5
c29.333 0 54.166 -10.167 74.499 -30.5s30.5 -45.166 30.5 -74.499c0 -28.667 -10.167 -53.167 -30.5 -73.5s-45.166 -30.5 -74.499 -30.5z" />
    <glyph glyph-name="Aring" unicode="&#xc5;" horiz-adv-x="1552" 
d="M1552 62v-62.001h-454v62h17c40 0 67 4 81 12s21 23.333 21 46c0 18.667 -16.333 66 -49 142l-92 227h-681l-95 -231c-27.333 -65.333 -41 -106.666 -41 -123.999c0 -40.667 34.333 -64 103 -70l16 -2v-62h-378v62h12c38.667 0 71.334 14.5 98.001 43.5
s56 82.167 88 159.5l552 1325c-45.333 17.333 -79.5 39.833 -102.5 67.5s-34.5 60.834 -34.5 99.501c0 47.333 16.667 87.666 50 120.999s73.666 50 120.999 50c46.667 0 86.667 -16.667 120 -50s50 -73.666 50 -120.999c0 -38.667 -11.333 -71.834 -34 -99.501
s-57 -50.167 -103 -67.5l563 -1325c35.333 -82.667 63.333 -137.167 84 -163.5s45.667 -39.5 75 -39.5h13zM425 565.999h606l-310 732zM675 1757c0 -29.333 10.667 -54.667 32 -76s47 -32 77 -32s55.5 10.5 76.5 31.5s31.5 46.5 31.5 76.5c0 30.667 -10.5 56.5 -31.5 77.5
s-46.5 31.5 -76.5 31.5s-55.667 -10.667 -77 -32s-32 -47 -32 -77z" />
    <glyph glyph-name="AE" unicode="&#xc6;" horiz-adv-x="2071" 
d="M1097 1552l842.999 0.00292969l31 -288h-77l-3 21c-13.333 87.333 -38.833 140.666 -76.5 159.999s-136.167 29 -295.5 29h-220v-628h232c106 0 174 9.16699 204 27.5s45 60.166 45 125.499v17h77v-403h-77v15c0 58.667 -12.667 100.667 -38 126
c-19.333 20 -89.666 30 -210.999 30h-232v-527c0 -66.667 28.167 -113.167 84.5 -139.5s155.5 -39.5 297.5 -39.5h42c62 0 107.833 15.667 137.5 47s50.834 86.666 63.501 165.999l3 19h78l-31 -338c-127.333 8.66699 -222.333 13 -285 13
c-65.333 0 -142.666 2.66699 -231.999 8c-87.333 4.66699 -140 7 -158 7h-388v62h17c67.333 0 112.333 13.5 135 40.5s34 80.833 34 161.5v225h-629l-151 -227c-49.333 -80 -74 -128.667 -74 -146c0 -36 35.667 -54 107 -54h18v-62h-368v62h11
c29.333 0 55.666 11.333 78.999 34s65.666 78 126.999 166zM1097 551.003v864l-586 -864h586z" />
    <glyph glyph-name="Ccedilla" unicode="&#xc7;" horiz-adv-x="1451" 
d="M1314 33c-188.667 -52.667 -342.002 -79 -460.002 -79l-53 -98c130.667 -12 196 -62.667 196 -152c0 -46 -15.167 -80.667 -45.5 -104s-75.833 -35 -136.5 -35s-113.667 9 -159 27v61c44 -17.333 79.333 -26 106 -26c34.667 0 60.5 6.83301 77.5 20.5
s25.5 34.167 25.5 61.5c0 56.667 -55 91 -165 103l75 142c-219.333 22.667 -389.166 104.834 -509.499 246.501s-180.5 331.167 -180.5 568.5c0 252 68.167 453.167 204.5 603.5s318.5 225.5 546.5 225.5c167.333 0 322 -21 464 -63l31 -309h-75l-3 18
c-16 92.667 -59.5 164.5 -130.5 215.5s-163.167 76.5 -276.5 76.5c-156 0 -284.333 -71 -385 -213s-151 -323.333 -151 -544c0 -228.667 51.5 -413.334 154.5 -554.001s237.833 -211 404.5 -211c224.667 0 355.334 101 392.001 303l3 17h78z" />
    <glyph glyph-name="Egrave" unicode="&#xc8;" horiz-adv-x="1241" 
d="M466 784l-0.00195312 -526.996c0 -66.667 28.167 -113.167 84.5 -139.5s155.5 -39.5 297.5 -39.5h42c62 0 107.833 15.667 137.5 47s50.834 86.666 63.501 165.999l3 19h78l-31 -338c-127.333 8.66699 -222 13 -284 13c-66 0 -143.667 2.66699 -233 8
c-87.333 4.66699 -140 7 -158 7h-388v62h18c66.667 0 111.334 13.5 134.001 40.5s34 80.833 34 161.5v1021c0 85.333 -10.5 140.666 -31.5 165.999s-66.5 38 -136.5 38h-18v63h1024l31 -288h-78l-3 21c-12.667 87.333 -37.834 140.666 -75.501 159.999
s-136.167 29 -295.5 29h-215v-628h232c106.667 0 174.834 9.16699 204.501 27.5s44.5 60.166 44.5 125.499v17h77v-403h-77v15c0 58.667 -12.333 100.667 -37 126c-20 20 -90.667 30 -212 30h-232zM1019 1722h-194l-442 202h318z" />
    <glyph glyph-name="Eacute" unicode="&#xc9;" horiz-adv-x="1241" 
d="M466 784l-0.00195312 -526.996c0 -66.667 28.167 -113.167 84.5 -139.5s155.5 -39.5 297.5 -39.5h42c62 0 107.833 15.667 137.5 47s50.834 86.666 63.501 165.999l3 19h78l-31 -338c-127.333 8.66699 -222 13 -284 13c-66 0 -143.667 2.66699 -233 8
c-87.333 4.66699 -140 7 -158 7h-388v62h18c66.667 0 111.334 13.5 134.001 40.5s34 80.833 34 161.5v1021c0 85.333 -10.5 140.666 -31.5 165.999s-66.5 38 -136.5 38h-18v63h1024l31 -288h-78l-3 21c-12.667 87.333 -37.834 140.666 -75.501 159.999
s-136.167 29 -295.5 29h-215v-628h232c106.667 0 174.834 9.16699 204.501 27.5s44.5 60.166 44.5 125.499v17h77v-403h-77v15c0 58.667 -12.333 100.667 -37 126c-20 20 -90.667 30 -212 30h-232zM182.998 1722l318 202h318l-442 -202h-194z" />
    <glyph glyph-name="Ecircumflex" unicode="&#xca;" horiz-adv-x="1241" 
d="M466 784l-0.00195312 -526.996c0 -66.667 28.167 -113.167 84.5 -139.5s155.5 -39.5 297.5 -39.5h42c62 0 107.833 15.667 137.5 47s50.834 86.666 63.501 165.999l3 19h78l-31 -338c-127.333 8.66699 -222 13 -284 13c-66 0 -143.667 2.66699 -233 8
c-87.333 4.66699 -140 7 -158 7h-388v62h18c66.667 0 111.334 13.5 134.001 40.5s34 80.833 34 161.5v1021c0 85.333 -10.5 140.666 -31.5 165.999s-66.5 38 -136.5 38h-18v63h1024l31 -288h-78l-3 21c-12.667 87.333 -37.834 140.666 -75.501 159.999
s-136.167 29 -295.5 29h-215v-628h232c106.667 0 174.834 9.16699 204.501 27.5s44.5 60.166 44.5 125.499v17h77v-403h-77v15c0 58.667 -12.333 100.667 -37 126c-20 20 -90.667 30 -212 30h-232zM554.998 1784l-178 -62h-179l326 202h62l326 -202h-194z" />
    <glyph glyph-name="Edieresis" unicode="&#xcb;" horiz-adv-x="1241" 
d="M466 784l-0.00195312 -526.996c0 -66.667 28.167 -113.167 84.5 -139.5s155.5 -39.5 297.5 -39.5h42c62 0 107.833 15.667 137.5 47s50.834 86.666 63.501 165.999l3 19h78l-31 -338c-127.333 8.66699 -222 13 -284 13c-66 0 -143.667 2.66699 -233 8
c-87.333 4.66699 -140 7 -158 7h-388v62h18c66.667 0 111.334 13.5 134.001 40.5s34 80.833 34 161.5v1021c0 85.333 -10.5 140.666 -31.5 165.999s-66.5 38 -136.5 38h-18v63h1024l31 -288h-78l-3 21c-12.667 87.333 -37.834 140.666 -75.501 159.999
s-136.167 29 -295.5 29h-215v-628h232c106.667 0 174.834 9.16699 204.501 27.5s44.5 60.166 44.5 125.499v17h77v-403h-77v15c0 58.667 -12.333 100.667 -37 126c-20 20 -90.667 30 -212 30h-232zM287.998 1719c-29.333 0 -54.166 10.167 -74.499 30.5
s-30.5 44.833 -30.5 73.5c0 29.333 10.167 54.166 30.5 74.499s45.166 30.5 74.499 30.5c28.667 0 53.167 -10.167 73.5 -30.5s30.5 -45.166 30.5 -74.499c0 -28.667 -10.167 -53.167 -30.5 -73.5s-44.833 -30.5 -73.5 -30.5zM713.998 1719
c-28.667 0 -53.167 10.167 -73.5 30.5s-30.5 44.833 -30.5 73.5c0 29.333 10.167 54.166 30.5 74.499s44.833 30.5 73.5 30.5c29.333 0 54.166 -10.167 74.499 -30.5s30.5 -45.166 30.5 -74.499c0 -28.667 -10.167 -53.167 -30.5 -73.5s-45.166 -30.5 -74.499 -30.5z" />
    <glyph glyph-name="Igrave" unicode="&#xcc;" horiz-adv-x="729" 
d="M652 0h-574v62h16c70 0 115.833 12.833 137.5 38.5s32.5 80.167 32.5 163.5v1024c0 82.667 -10.833 136.834 -32.5 162.501s-67.5 38.5 -137.5 38.5h-16v63h574v-63h-15c-70 0 -116 -12.833 -138 -38.5s-33 -79.834 -33 -162.501v-1024c0 -82.667 11 -137 33 -163
s68 -39 138 -39h15v-62zM751 1722h-194l-442 202h318z" />
    <glyph glyph-name="Iacute" unicode="&#xcd;" horiz-adv-x="729" 
d="M652 0h-574v62h16c70 0 115.833 12.833 137.5 38.5s32.5 80.167 32.5 163.5v1024c0 82.667 -10.833 136.834 -32.5 162.501s-67.5 38.5 -137.5 38.5h-16v63h574v-63h-15c-70 0 -116 -12.833 -138 -38.5s-33 -79.834 -33 -162.501v-1024c0 -82.667 11 -137 33 -163
s68 -39 138 -39h15v-62zM-41 1722l318 202h318l-442 -202h-194z" />
    <glyph glyph-name="Icircumflex" unicode="&#xce;" horiz-adv-x="729" 
d="M652 0h-574v62h16c70 0 115.833 12.833 137.5 38.5s32.5 80.167 32.5 163.5v1024c0 82.667 -10.833 136.834 -32.5 162.501s-67.5 38.5 -137.5 38.5h-16v63h574v-63h-15c-70 0 -116 -12.833 -138 -38.5s-33 -79.834 -33 -162.501v-1024c0 -82.667 11 -137 33 -163
s68 -39 138 -39h15v-62zM251 1784l-178 -62h-179l326 202h62l326 -202h-194z" />
    <glyph glyph-name="Idieresis" unicode="&#xcf;" horiz-adv-x="729" 
d="M652 0h-574v62h16c70 0 115.833 12.833 137.5 38.5s32.5 80.167 32.5 163.5v1024c0 82.667 -10.833 136.834 -32.5 162.501s-67.5 38.5 -137.5 38.5h-16v63h574v-63h-15c-70 0 -116 -12.833 -138 -38.5s-33 -79.834 -33 -162.501v-1024c0 -82.667 11 -137 33 -163
s68 -39 138 -39h15v-62zM27 1719c-29.333 0 -54.166 10.167 -74.499 30.5s-30.5 44.833 -30.5 73.5c0 29.333 10.167 54.166 30.5 74.499s45.166 30.5 74.499 30.5c28.667 0 53.167 -10.167 73.5 -30.5s30.5 -45.166 30.5 -74.499c0 -28.667 -10.167 -53.167 -30.5 -73.5
s-44.833 -30.5 -73.5 -30.5zM453 1719c-28.667 0 -53.167 10.167 -73.5 30.5s-30.5 44.833 -30.5 73.5c0 29.333 10.167 54.166 30.5 74.499s44.833 30.5 73.5 30.5c29.333 0 54.166 -10.167 74.499 -30.5s30.5 -45.166 30.5 -74.499c0 -28.667 -10.167 -53.167 -30.5 -73.5
s-45.166 -30.5 -74.499 -30.5z" />
    <glyph glyph-name="Ntilde" unicode="&#xd1;" horiz-adv-x="1645" 
d="M404 1205l0.00195312 -941c0 -83.333 10.667 -137.833 32 -163.5s66.666 -38.5 135.999 -38.5h18v-62h-481v62h12c68.667 0 113.5 12.833 134.5 38.5s31.5 80.167 31.5 163.5v1068l-30 41c-58 77.333 -111.667 116 -161 116h-18v63h297l929 -1141v877
c0 82.667 -10.833 136.834 -32.5 162.501s-67.5 38.5 -137.5 38.5h-16v63h480v-63h-18c-68.667 0 -113.834 -12.833 -135.501 -38.5s-32.5 -79.834 -32.5 -162.501v-1335zM364.002 1722h-78.002c8.66699 60.667 32.667 109.5 72 146.5s87 55.5 143 55.5
c30.667 0 75.334 -9.66699 134.001 -29l84 -27c45.333 -14.667 82.333 -22 111 -22c52 0 88 26 108 78h78c-8 -61.333 -31 -110.333 -69 -147s-85 -55 -141 -55c-39.333 0 -84.333 9.66699 -135 29l-74 27c-39.333 14.667 -76.666 22 -111.999 22
c-56.667 0 -97 -26 -121 -78z" />
    <glyph glyph-name="Ograve" unicode="&#xd2;" horiz-adv-x="1645" 
d="M822 -47c-216 0 -392.832 76.999 -530.499 230.999s-206.5 351.333 -206.5 592s68.833 437.834 206.5 591.501s314.5 230.5 530.5 230.5c195.333 0 355 -58.667 479 -176c79.333 -74.667 142.166 -170 188.499 -286s69.5 -236 69.5 -360
c0 -240.667 -68.833 -438 -206.5 -592s-314.5 -231 -530.5 -231zM822.001 15.999c146.667 0 267.336 71.167 362.003 213.5s142 324.5 142 546.5c0 221.333 -47.333 403.333 -142 546s-215.334 214 -362.001 214s-267.334 -71.333 -362.001 -214s-142 -324.667 -142 -546
c0 -222 47.167 -404.167 141.5 -546.5s215.166 -213.5 362.499 -213.5zM1237 1722h-194l-442 202h318z" />
    <glyph glyph-name="Oacute" unicode="&#xd3;" horiz-adv-x="1645" 
d="M822 -47c-216 0 -392.832 76.999 -530.499 230.999s-206.5 351.333 -206.5 592s68.833 437.834 206.5 591.501s314.5 230.5 530.5 230.5c195.333 0 355 -58.667 479 -176c79.333 -74.667 142.166 -170 188.499 -286s69.5 -236 69.5 -360
c0 -240.667 -68.833 -438 -206.5 -592s-314.5 -231 -530.5 -231zM822.001 15.999c146.667 0 267.336 71.167 362.003 213.5s142 324.5 142 546.5c0 221.333 -47.333 403.333 -142 546s-215.334 214 -362.001 214s-267.334 -71.333 -362.001 -214s-142 -324.667 -142 -546
c0 -222 47.167 -404.167 141.5 -546.5s215.166 -213.5 362.499 -213.5zM329.003 1722l318 202h318l-442 -202h-194z" />
    <glyph glyph-name="Ocircumflex" unicode="&#xd4;" horiz-adv-x="1645" 
d="M822 -47c-216 0 -392.832 76.999 -530.499 230.999s-206.5 351.333 -206.5 592s68.833 437.834 206.5 591.501s314.5 230.5 530.5 230.5c195.333 0 355 -58.667 479 -176c79.333 -74.667 142.166 -170 188.499 -286s69.5 -236 69.5 -360
c0 -240.667 -68.833 -438 -206.5 -592s-314.5 -231 -530.5 -231zM822.001 15.999c146.667 0 267.336 71.167 362.003 213.5s142 324.5 142 546.5c0 221.333 -47.333 403.333 -142 546s-215.334 214 -362.001 214s-267.334 -71.333 -362.001 -214s-142 -324.667 -142 -546
c0 -222 47.167 -404.167 141.5 -546.5s215.166 -213.5 362.499 -213.5zM651.003 1784l-178 -62h-179l326 202h62l326 -202h-194z" />
    <glyph glyph-name="Otilde" unicode="&#xd5;" horiz-adv-x="1645" 
d="M822 -47c-216 0 -392.832 76.999 -530.499 230.999s-206.5 351.333 -206.5 592s68.833 437.834 206.5 591.501s314.5 230.5 530.5 230.5c195.333 0 355 -58.667 479 -176c79.333 -74.667 142.166 -170 188.499 -286s69.5 -236 69.5 -360
c0 -240.667 -68.833 -438 -206.5 -592s-314.5 -231 -530.5 -231zM822.001 15.999c146.667 0 267.336 71.167 362.003 213.5s142 324.5 142 546.5c0 221.333 -47.333 403.333 -142 546s-215.334 214 -362.001 214s-267.334 -71.333 -362.001 -214s-142 -324.667 -142 -546
c0 -222 47.167 -404.167 141.5 -546.5s215.166 -213.5 362.499 -213.5zM341.003 1722h-78.002c8.66699 60.667 32.667 109.5 72 146.5s87 55.5 143 55.5c30.667 0 75.334 -9.66699 134.001 -29l84 -27c45.333 -14.667 82.333 -22 111 -22c52 0 88 26 108 78h78
c-8 -61.333 -31 -110.333 -69 -147s-85 -55 -141 -55c-39.333 0 -84.333 9.66699 -135 29l-74 27c-39.333 14.667 -76.666 22 -111.999 22c-56.667 0 -97 -26 -121 -78z" />
    <glyph glyph-name="Odieresis" unicode="&#xd6;" horiz-adv-x="1645" 
d="M822 -47c-216 0 -392.832 76.999 -530.499 230.999s-206.5 351.333 -206.5 592s68.833 437.834 206.5 591.501s314.5 230.5 530.5 230.5c195.333 0 355 -58.667 479 -176c79.333 -74.667 142.166 -170 188.499 -286s69.5 -236 69.5 -360
c0 -240.667 -68.833 -438 -206.5 -592s-314.5 -231 -530.5 -231zM822.001 15.999c146.667 0 267.336 71.167 362.003 213.5s142 324.5 142 546.5c0 221.333 -47.333 403.333 -142 546s-215.334 214 -362.001 214s-267.334 -71.333 -362.001 -214s-142 -324.667 -142 -546
c0 -222 47.167 -404.167 141.5 -546.5s215.166 -213.5 362.499 -213.5zM485.003 1719c-29.333 0 -54.166 10.167 -74.499 30.5s-30.5 44.833 -30.5 73.5c0 29.333 10.167 54.166 30.5 74.499s45.166 30.5 74.499 30.5c28.667 0 53.167 -10.167 73.5 -30.5
s30.5 -45.166 30.5 -74.499c0 -28.667 -10.167 -53.167 -30.5 -73.5s-44.833 -30.5 -73.5 -30.5zM911.003 1719c-28.667 0 -53.167 10.167 -73.5 30.5s-30.5 44.833 -30.5 73.5c0 29.333 10.167 54.166 30.5 74.499s44.833 30.5 73.5 30.5
c29.333 0 54.166 -10.167 74.499 -30.5s30.5 -45.166 30.5 -74.499c0 -28.667 -10.167 -53.167 -30.5 -73.5s-45.166 -30.5 -74.499 -30.5z" />
    <glyph glyph-name="Oslash" unicode="&#xd8;" horiz-adv-x="1645" 
d="M185 -47l-100 0.000976562l198 239c-132 170.667 -198 364 -198 580c0 242.667 69.167 441 207.5 595s316.5 231 534.5 231c189.333 0 350.333 -63 483 -189l153 181h96l-195 -241c130 -170 195 -360.333 195 -571c0 -240.667 -69 -438.334 -207 -593.001
s-314.333 -232 -529 -232c-190.667 0 -353 60 -487 180zM393 323.001l820 970.001c-103.333 162 -234 243 -392 243c-154.667 0 -278.5 -68.667 -371.5 -206s-139.5 -319.333 -139.5 -546c0 -172.667 27.667 -326.334 83 -461.001zM1254 1218l-821.001 -970
c108.667 -154.667 238.334 -232 389.001 -232c152 0 275.333 69.5 370 208.5s142 320.167 142 543.5c0 171.333 -26.667 321.333 -80 450z" />
    <glyph glyph-name="Ugrave" unicode="&#xd9;" horiz-adv-x="1598" 
d="M54 1489l0.00292969 63h573v-63h-16c-70 0 -116 -12.833 -138 -38.5s-33 -79.834 -33 -162.501v-697c0 -213.333 37.333 -362.333 112 -447c74.667 -85.333 177 -128 307 -128c117.333 0 208.666 40.667 273.999 122s98.666 216.333 99.999 405v745
c0 82.667 -10.833 136.834 -32.5 162.501s-67.834 38.5 -138.501 38.5h-15v63h496v-63h-13c-70.667 0 -117.167 -12.833 -139.5 -38.5s-33.5 -79.834 -33.5 -162.501v-663c0 -162 -9.16699 -277 -27.5 -345s-57.166 -130 -116.499 -186c-99.333 -94 -243 -141 -431 -141
c-160 0 -287 37.333 -381 112c-64.667 51.333 -107.834 112.5 -129.501 183.5s-32.5 185.167 -32.5 342.5v697c0 82.667 -11 136.834 -33 162.501s-68 38.5 -138 38.5h-14zM1260 1722h-194l-442 202h318z" />
    <glyph glyph-name="Uacute" unicode="&#xda;" horiz-adv-x="1598" 
d="M54 1489l0.00292969 63h573v-63h-16c-70 0 -116 -12.833 -138 -38.5s-33 -79.834 -33 -162.501v-697c0 -213.333 37.333 -362.333 112 -447c74.667 -85.333 177 -128 307 -128c117.333 0 208.666 40.667 273.999 122s98.666 216.333 99.999 405v745
c0 82.667 -10.833 136.834 -32.5 162.501s-67.834 38.5 -138.501 38.5h-15v63h496v-63h-13c-70.667 0 -117.167 -12.833 -139.5 -38.5s-33.5 -79.834 -33.5 -162.501v-663c0 -162 -9.16699 -277 -27.5 -345s-57.166 -130 -116.499 -186c-99.333 -94 -243 -141 -431 -141
c-160 0 -287 37.333 -381 112c-64.667 51.333 -107.834 112.5 -129.501 183.5s-32.5 185.167 -32.5 342.5v697c0 82.667 -11 136.834 -33 162.501s-68 38.5 -138 38.5h-14zM383.003 1722l318 202h318l-442 -202h-194z" />
    <glyph glyph-name="Ucircumflex" unicode="&#xdb;" horiz-adv-x="1598" 
d="M54 1489l0.00292969 63h573v-63h-16c-70 0 -116 -12.833 -138 -38.5s-33 -79.834 -33 -162.501v-697c0 -213.333 37.333 -362.333 112 -447c74.667 -85.333 177 -128 307 -128c117.333 0 208.666 40.667 273.999 122s98.666 216.333 99.999 405v745
c0 82.667 -10.833 136.834 -32.5 162.501s-67.834 38.5 -138.501 38.5h-15v63h496v-63h-13c-70.667 0 -117.167 -12.833 -139.5 -38.5s-33.5 -79.834 -33.5 -162.501v-663c0 -162 -9.16699 -277 -27.5 -345s-57.166 -130 -116.499 -186c-99.333 -94 -243 -141 -431 -141
c-160 0 -287 37.333 -381 112c-64.667 51.333 -107.834 112.5 -129.501 183.5s-32.5 185.167 -32.5 342.5v697c0 82.667 -11 136.834 -33 162.501s-68 38.5 -138 38.5h-14zM726.003 1784l-178 -62h-179l326 202h62l326 -202h-194z" />
    <glyph glyph-name="Udieresis" unicode="&#xdc;" horiz-adv-x="1598" 
d="M54 1489l0.00292969 63h573v-63h-16c-70 0 -116 -12.833 -138 -38.5s-33 -79.834 -33 -162.501v-697c0 -213.333 37.333 -362.333 112 -447c74.667 -85.333 177 -128 307 -128c117.333 0 208.666 40.667 273.999 122s98.666 216.333 99.999 405v745
c0 82.667 -10.833 136.834 -32.5 162.501s-67.834 38.5 -138.501 38.5h-15v63h496v-63h-13c-70.667 0 -117.167 -12.833 -139.5 -38.5s-33.5 -79.834 -33.5 -162.501v-663c0 -162 -9.16699 -277 -27.5 -345s-57.166 -130 -116.499 -186c-99.333 -94 -243 -141 -431 -141
c-160 0 -287 37.333 -381 112c-64.667 51.333 -107.834 112.5 -129.501 183.5s-32.5 185.167 -32.5 342.5v697c0 82.667 -11 136.834 -33 162.501s-68 38.5 -138 38.5h-14zM508.003 1719c-29.333 0 -54.166 10.167 -74.499 30.5s-30.5 44.833 -30.5 73.5
c0 29.333 10.167 54.166 30.5 74.499s45.166 30.5 74.499 30.5c28.667 0 53.167 -10.167 73.5 -30.5s30.5 -45.166 30.5 -74.499c0 -28.667 -10.167 -53.167 -30.5 -73.5s-44.833 -30.5 -73.5 -30.5zM934.003 1719c-28.667 0 -53.167 10.167 -73.5 30.5
s-30.5 44.833 -30.5 73.5c0 29.333 10.167 54.166 30.5 74.499s44.833 30.5 73.5 30.5c29.333 0 54.166 -10.167 74.499 -30.5s30.5 -45.166 30.5 -74.499c0 -28.667 -10.167 -53.167 -30.5 -73.5s-45.166 -30.5 -74.499 -30.5z" />
    <glyph glyph-name="germandbls" unicode="&#xdf;" horiz-adv-x="1327" 
d="M707 21l-24 235h70l3 -19c22 -137.333 83 -206 183 -206c46 0 86 19.667 120 59s51 86 51 140c0 88 -81 189.333 -243 304l-93 65c-148.667 104.667 -223 201 -223 289c0 55.333 28.667 119 86 191l43 55c90 114 135 207.333 135 280c0 45.333 -20.333 84.833 -61 118.5
s-88.334 50.5 -143.001 50.5c-67.333 0 -116.166 -24.333 -146.499 -73s-45.5 -128 -45.5 -238v-999c0 -85.333 7.16699 -141.833 21.5 -169.5s43.166 -41.5 86.499 -41.5h16v-62h-496v62h19c68.667 0 113.667 13 135 39s32 80.667 32 164v916c0 108 9.83301 188 29.5 240
s57.834 100 114.501 144c69.333 53.333 161 80 275 80c105.333 0 189.833 -20.5 253.5 -61.5s95.5 -95.5 95.5 -163.5c0 -70 -45.667 -140.333 -137 -211l-40 -32l-55 -47c-57.333 -48.667 -86 -93 -86 -133c0 -61.333 63.333 -139 190 -233l111 -81
c118 -88 197 -159.5 237 -214.5s60 -119.833 60 -194.5c0 -95.333 -29.667 -170 -89 -224s-141.333 -81 -246 -81c-80 0 -159.667 17.333 -239 52z" />
    <glyph glyph-name="agrave" unicode="&#xe0;" horiz-adv-x="1210" 
d="M775 197c-58.667 -76 -120.831 -132.999 -186.498 -170.999s-135.167 -57 -208.5 -57s-134.333 24.833 -183 74.5s-73 112.167 -73 187.5c0 83.333 38.667 154.166 116 212.499s205 112.833 383 163.5l137 40v157c0 68.667 -4 116.5 -12 143.5s-25.333 49.833 -52 68.5
c-40.667 30 -90.667 45 -150 45c-61.333 0 -107.333 -13 -138 -39s-46 -65.333 -46 -118v-50l-215 -69v30c0 80 46.333 156 139 228c91.333 70 205 105 341 105c112.667 0 194 -23 244 -69c50 -46.667 75 -122 75 -226v-474c0 -120.667 10.667 -201 32 -241
s63.666 -60 126.999 -60c20 0 42 1.66699 66 5v-59c-65.333 -36.667 -130.333 -55 -195 -55c-56 0 -100.833 19 -134.5 57s-55.834 95 -66.501 171zM760.003 581.001l-57 -18c-154.667 -48.667 -256.167 -92.5 -304.5 -131.5s-72.5 -95.167 -72.5 -168.5
c0 -48 16.5 -89.667 49.5 -125s71.833 -53 116.5 -53c74.667 0 143.667 35 207 105c40.667 46 61 109.667 61 191v200zM742.003 1288h-86l-426 326h219z" />
    <glyph glyph-name="aacute" unicode="&#xe1;" horiz-adv-x="1210" 
d="M775 197c-58.667 -76 -120.831 -132.999 -186.498 -170.999s-135.167 -57 -208.5 -57s-134.333 24.833 -183 74.5s-73 112.167 -73 187.5c0 83.333 38.667 154.166 116 212.499s205 112.833 383 163.5l137 40v157c0 68.667 -4 116.5 -12 143.5s-25.333 49.833 -52 68.5
c-40.667 30 -90.667 45 -150 45c-61.333 0 -107.333 -13 -138 -39s-46 -65.333 -46 -118v-50l-215 -69v30c0 80 46.333 156 139 228c91.333 70 205 105 341 105c112.667 0 194 -23 244 -69c50 -46.667 75 -122 75 -226v-474c0 -120.667 10.667 -201 32 -241
s63.666 -60 126.999 -60c20 0 42 1.66699 66 5v-59c-65.333 -36.667 -130.333 -55 -195 -55c-56 0 -100.833 19 -134.5 57s-55.834 95 -66.501 171zM760.003 581.001l-57 -18c-154.667 -48.667 -256.167 -92.5 -304.5 -131.5s-72.5 -95.167 -72.5 -168.5
c0 -48 16.5 -89.667 49.5 -125s71.833 -53 116.5 -53c74.667 0 143.667 35 207 105c40.667 46 61 109.667 61 191v200zM700.003 1614h219l-426 -326h-86z" />
    <glyph glyph-name="acircumflex" unicode="&#xe2;" horiz-adv-x="1210" 
d="M775 197c-58.667 -76 -120.831 -132.999 -186.498 -170.999s-135.167 -57 -208.5 -57s-134.333 24.833 -183 74.5s-73 112.167 -73 187.5c0 83.333 38.667 154.166 116 212.499s205 112.833 383 163.5l137 40v157c0 68.667 -4 116.5 -12 143.5s-25.333 49.833 -52 68.5
c-40.667 30 -90.667 45 -150 45c-61.333 0 -107.333 -13 -138 -39s-46 -65.333 -46 -118v-50l-215 -69v30c0 80 46.333 156 139 228c91.333 70 205 105 341 105c112.667 0 194 -23 244 -69c50 -46.667 75 -122 75 -226v-474c0 -120.667 10.667 -201 32 -241
s63.666 -60 126.999 -60c20 0 42 1.66699 66 5v-59c-65.333 -36.667 -130.333 -55 -195 -55c-56 0 -100.833 19 -134.5 57s-55.834 95 -66.501 171zM760.003 581.001l-57 -18c-154.667 -48.667 -256.167 -92.5 -304.5 -131.5s-72.5 -95.167 -72.5 -168.5
c0 -48 16.5 -89.667 49.5 -125s71.833 -53 116.5 -53c74.667 0 143.667 35 207 105c40.667 46 61 109.667 61 191v200zM576.003 1458l-217 -170h-62l248 326h62l249 -326h-63z" />
    <glyph glyph-name="atilde" unicode="&#xe3;" horiz-adv-x="1210" 
d="M775 197c-58.667 -76 -120.831 -132.999 -186.498 -170.999s-135.167 -57 -208.5 -57s-134.333 24.833 -183 74.5s-73 112.167 -73 187.5c0 83.333 38.667 154.166 116 212.499s205 112.833 383 163.5l137 40v157c0 68.667 -4 116.5 -12 143.5s-25.333 49.833 -52 68.5
c-40.667 30 -90.667 45 -150 45c-61.333 0 -107.333 -13 -138 -39s-46 -65.333 -46 -118v-50l-215 -69v30c0 80 46.333 156 139 228c91.333 70 205 105 341 105c112.667 0 194 -23 244 -69c50 -46.667 75 -122 75 -226v-474c0 -120.667 10.667 -201 32 -241
s63.666 -60 126.999 -60c20 0 42 1.66699 66 5v-59c-65.333 -36.667 -130.333 -55 -195 -55c-56 0 -100.833 19 -134.5 57s-55.834 95 -66.501 171zM760.003 581.001l-57 -18c-154.667 -48.667 -256.167 -92.5 -304.5 -131.5s-72.5 -95.167 -72.5 -168.5
c0 -48 16.5 -89.667 49.5 -125s71.833 -53 116.5 -53c74.667 0 143.667 35 207 105c40.667 46 61 109.667 61 191v200zM304.003 1288h-63.001c0 78.667 15.5 141 46.5 187s73.167 69 126.5 69c37.333 0 76.666 -13 117.999 -39l42 -27c53.333 -34 95 -51 125 -51
c58 0 91 39 99 117h64c0 -80 -15.667 -142.667 -47 -188s-74.666 -68 -129.999 -68c-39.333 0 -84.666 16 -135.999 48l-43 27c-41.333 27.333 -74.333 41 -99 41c-60.667 0 -95 -38.667 -103 -116z" />
    <glyph glyph-name="adieresis" unicode="&#xe4;" horiz-adv-x="1210" 
d="M775 197c-58.667 -76 -120.831 -132.999 -186.498 -170.999s-135.167 -57 -208.5 -57s-134.333 24.833 -183 74.5s-73 112.167 -73 187.5c0 83.333 38.667 154.166 116 212.499s205 112.833 383 163.5l137 40v157c0 68.667 -4 116.5 -12 143.5s-25.333 49.833 -52 68.5
c-40.667 30 -90.667 45 -150 45c-61.333 0 -107.333 -13 -138 -39s-46 -65.333 -46 -118v-50l-215 -69v30c0 80 46.333 156 139 228c91.333 70 205 105 341 105c112.667 0 194 -23 244 -69c50 -46.667 75 -122 75 -226v-474c0 -120.667 10.667 -201 32 -241
s63.666 -60 126.999 -60c20 0 42 1.66699 66 5v-59c-65.333 -36.667 -130.333 -55 -195 -55c-56 0 -100.833 19 -134.5 57s-55.834 95 -66.501 171zM760.003 581.001l-57 -18c-154.667 -48.667 -256.167 -92.5 -304.5 -131.5s-72.5 -95.167 -72.5 -168.5
c0 -48 16.5 -89.667 49.5 -125s71.833 -53 116.5 -53c74.667 0 143.667 35 207 105c40.667 46 61 109.667 61 191v200zM404.003 1288c-29.333 0 -54.166 10.167 -74.499 30.5s-30.5 44.833 -30.5 73.5c0 29.333 10.167 54.166 30.5 74.499s45.166 30.5 74.499 30.5
c28.667 0 53.167 -10.167 73.5 -30.5s30.5 -45.166 30.5 -74.499c0 -28.667 -10.167 -53.167 -30.5 -73.5s-44.833 -30.5 -73.5 -30.5zM830.003 1288c-28.667 0 -53.167 10.167 -73.5 30.5s-30.5 44.833 -30.5 73.5c0 29.333 10.167 54.166 30.5 74.499
s44.833 30.5 73.5 30.5c29.333 0 54.166 -10.167 74.499 -30.5s30.5 -45.166 30.5 -74.499c0 -28.667 -10.167 -53.167 -30.5 -73.5s-45.166 -30.5 -74.499 -30.5z" />
    <glyph glyph-name="aring" unicode="&#xe5;" horiz-adv-x="1210" 
d="M775 197c-58.667 -76 -120.831 -132.999 -186.498 -170.999s-135.167 -57 -208.5 -57s-134.333 24.833 -183 74.5s-73 112.167 -73 187.5c0 83.333 38.667 154.166 116 212.499s205 112.833 383 163.5l137 40v157c0 68.667 -4 116.5 -12 143.5s-25.333 49.833 -52 68.5
c-40.667 30 -90.667 45 -150 45c-61.333 0 -107.333 -13 -138 -39s-46 -65.333 -46 -118v-50l-215 -69v30c0 80 46.333 156 139 228c91.333 70 205 105 341 105c112.667 0 194 -23 244 -69c50 -46.667 75 -122 75 -226v-474c0 -120.667 10.667 -201 32 -241
s63.666 -60 126.999 -60c20 0 42 1.66699 66 5v-59c-65.333 -36.667 -130.333 -55 -195 -55c-56 0 -100.833 19 -134.5 57s-55.834 95 -66.501 171zM760.003 581.001l-57 -18c-154.667 -48.667 -256.167 -92.5 -304.5 -131.5s-72.5 -95.167 -72.5 -168.5
c0 -48 16.5 -89.667 49.5 -125s71.833 -53 116.5 -53c74.667 0 143.667 35 207 105c40.667 46 61 109.667 61 191v200zM552.003 1350c29.333 0 54.667 10.667 76 32s32 46.666 32 75.999c0 30 -10.5 55.667 -31.5 77s-46.5 32 -76.5 32s-55.667 -10.667 -77 -32
s-32 -47 -32 -77c0 -29.333 10.667 -54.666 32 -75.999s47 -32 77 -32zM552.004 1288c-47.333 0 -87.666 16.667 -120.999 50s-50 73.333 -50 120c0 47.333 16.667 87.666 50 120.999s73.666 50 120.999 50c46.667 0 86.667 -16.667 120 -50s50 -73.666 50 -120.999
c0 -46.667 -16.667 -86.667 -50 -120s-73.333 -50 -120 -50z" />
    <glyph glyph-name="ae" unicode="&#xe6;" horiz-adv-x="1831" 
d="M1738 188l-0.00195312 -93.999c-147.333 -84 -294.333 -126 -441 -126c-107.333 0 -200.5 23.667 -279.5 71s-144.167 118.333 -195.5 213c-36 -81.333 -95.333 -148.833 -178 -202.5s-168 -80.5 -256 -80.5c-77.333 0 -140.666 24.333 -189.999 73s-74 111.667 -74 189
c0 83.333 38.667 154.166 116 212.499s205 112.833 383 163.5l137 40v157c0 68.667 -4 116.5 -12 143.5s-25 49.833 -51 68.5c-41.333 30 -91.333 45 -150 45c-61.333 0 -107.333 -13 -138 -39s-46 -65.333 -46 -118v-50l-215 -69v30c0 80 46.333 156 139 228
c90.667 70 209.334 105 356.001 105c70 0 128.667 -10.667 176 -32s83 -53.333 107 -96c90 85.333 203 128 339 128c142.667 0 253 -45.167 331 -135.5s117 -218.166 117 -383.499v-32h-766c-1.33301 -22.667 -2 -38.334 -2 -47.001c0 -130 41 -238.667 123 -326
s184.333 -131 307 -131c98.667 0 219.667 31.667 363 95zM759.998 580.001l-57 -18.001c-154 -49.333 -255.333 -93.333 -304 -132s-73 -95 -73 -169c0 -47.333 16.5 -88.666 49.5 -123.999s71.833 -53 116.5 -53c75.333 0 144.333 35 207 105c40.667 45.333 61 109 61 191
v200zM950.998 659l207 0.000976562c149.333 0 243.666 7.5 282.999 22.5s59 50.833 59 107.5c0 87.333 -21.667 158.666 -65 213.999s-98.666 83 -165.999 83c-84.667 0 -155.667 -38.5 -213 -115.5s-92.333 -180.833 -105 -311.5z" />
    <glyph glyph-name="ccedilla" unicode="&#xe7;" horiz-adv-x="1109" 
d="M1031 140v-96.999c-142 -49.333 -263.333 -74 -364 -74l-61 -113c130.667 -12 196 -62.667 196 -152c0 -46 -15.167 -80.667 -45.5 -104s-75.833 -35 -136.5 -35s-113.667 9 -159 27v61c43.333 -17.333 78.333 -26 105 -26c34.667 0 60.667 6.83301 78 20.5
s26 34.167 26 61.5c0 56.667 -55 91 -165 103l85 157c-160.667 20.667 -285 78.667 -373 174s-132 219.666 -132 372.999c0 187.333 57 339.5 171 456.5s262 175.5 444 175.5c141.333 0 266 -42.333 374 -127l-141 -152c-38.667 61.333 -88.5 111.5 -149.5 150.5
s-119.833 58.5 -176.5 58.5c-90 0 -163.333 -44.833 -220 -134.5s-85 -205.5 -85 -347.5c0 -160 38.167 -286.333 114.5 -379s180.5 -139 312.5 -139c102 0 202.667 20.667 302 62z" />
    <glyph glyph-name="egrave" unicode="&#xe8;" horiz-adv-x="1171" 
d="M1078 188v-94c-146 -83.333 -287.667 -125 -425 -125c-165.333 0 -301.333 55.333 -408 166s-160 251.667 -160 423c0 169.333 51.167 310 153.5 422s230.5 168 384.5 168c138.667 0 246.5 -45.667 323.5 -137s115.5 -218.666 115.5 -381.999v-32h-766
c-0.666992 -22.667 -1 -38.334 -1 -47.001c0 -129.333 41 -237.833 123 -325.5s183.667 -131.5 305 -131.5c116 0 234.333 31.667 355 95zM300 659l207.001 0.000976562c149.333 0 243.833 7.5 283.5 22.5s59.5 50.833 59.5 107.5c0 87.333 -21.667 158.666 -65 213.999
s-99 83 -167 83c-84 0 -154.833 -38.5 -212.5 -115.5s-92.834 -180.833 -105.501 -311.5zM792.001 1288h-86l-426 326h219z" />
    <glyph glyph-name="eacute" unicode="&#xe9;" horiz-adv-x="1171" 
d="M1078 188v-94c-146 -83.333 -287.667 -125 -425 -125c-165.333 0 -301.333 55.333 -408 166s-160 251.667 -160 423c0 169.333 51.167 310 153.5 422s230.5 168 384.5 168c138.667 0 246.5 -45.667 323.5 -137s115.5 -218.666 115.5 -381.999v-32h-766
c-0.666992 -22.667 -1 -38.334 -1 -47.001c0 -129.333 41 -237.833 123 -325.5s183.667 -131.5 305 -131.5c116 0 234.333 31.667 355 95zM300 659l207.001 0.000976562c149.333 0 243.833 7.5 283.5 22.5s59.5 50.833 59.5 107.5c0 87.333 -21.667 158.666 -65 213.999
s-99 83 -167 83c-84 0 -154.833 -38.5 -212.5 -115.5s-92.834 -180.833 -105.501 -311.5zM777.001 1614h219l-426 -326h-86z" />
    <glyph glyph-name="ecircumflex" unicode="&#xea;" horiz-adv-x="1171" 
d="M1078 188v-94c-146 -83.333 -287.667 -125 -425 -125c-165.333 0 -301.333 55.333 -408 166s-160 251.667 -160 423c0 169.333 51.167 310 153.5 422s230.5 168 384.5 168c138.667 0 246.5 -45.667 323.5 -137s115.5 -218.666 115.5 -381.999v-32h-766
c-0.666992 -22.667 -1 -38.334 -1 -47.001c0 -129.333 41 -237.833 123 -325.5s183.667 -131.5 305 -131.5c116 0 234.333 31.667 355 95zM300 659l207.001 0.000976562c149.333 0 243.833 7.5 283.5 22.5s59.5 50.833 59.5 107.5c0 87.333 -21.667 158.666 -65 213.999
s-99 83 -167 83c-84 0 -154.833 -38.5 -212.5 -115.5s-92.834 -180.833 -105.501 -311.5zM639.001 1458l-217 -170h-62l248 326h62l249 -326h-63z" />
    <glyph glyph-name="edieresis" unicode="&#xeb;" horiz-adv-x="1171" 
d="M1078 188v-94c-146 -83.333 -287.667 -125 -425 -125c-165.333 0 -301.333 55.333 -408 166s-160 251.667 -160 423c0 169.333 51.167 310 153.5 422s230.5 168 384.5 168c138.667 0 246.5 -45.667 323.5 -137s115.5 -218.666 115.5 -381.999v-32h-766
c-0.666992 -22.667 -1 -38.334 -1 -47.001c0 -129.333 41 -237.833 123 -325.5s183.667 -131.5 305 -131.5c116 0 234.333 31.667 355 95zM300 659l207.001 0.000976562c149.333 0 243.833 7.5 283.5 22.5s59.5 50.833 59.5 107.5c0 87.333 -21.667 158.666 -65 213.999
s-99 83 -167 83c-84 0 -154.833 -38.5 -212.5 -115.5s-92.834 -180.833 -105.501 -311.5zM427.001 1288c-29.333 0 -54.166 10.167 -74.499 30.5s-30.5 44.833 -30.5 73.5c0 29.333 10.167 54.166 30.5 74.499s45.166 30.5 74.499 30.5c28.667 0 53.167 -10.167 73.5 -30.5
s30.5 -45.166 30.5 -74.499c0 -28.667 -10.167 -53.167 -30.5 -73.5s-44.833 -30.5 -73.5 -30.5zM853.001 1288c-28.667 0 -53.167 10.167 -73.5 30.5s-30.5 44.833 -30.5 73.5c0 29.333 10.167 54.166 30.5 74.499s44.833 30.5 73.5 30.5
c29.333 0 54.166 -10.167 74.499 -30.5s30.5 -45.166 30.5 -74.499c0 -28.667 -10.167 -53.167 -30.5 -73.5s-45.166 -30.5 -74.499 -30.5z" />
    <glyph glyph-name="igrave" unicode="&#xec;" horiz-adv-x="698" 
d="M450 1143v-879c0 -82.667 11 -137 33 -163s68 -39 138 -39h16v-62h-559v62h20c68 0 112.667 12.833 134 38.5s32 80.167 32 163.5v439c0 100.667 -5.83301 162.5 -17.5 185.5s-50.5 49.5 -116.5 79.5l-52 25v15zM535 1288h-86l-426 326h219z" />
    <glyph glyph-name="iacute" unicode="&#xed;" horiz-adv-x="698" 
d="M450 1143v-879c0 -82.667 11 -137 33 -163s68 -39 138 -39h16v-62h-559v62h20c68 0 112.667 12.833 134 38.5s32 80.167 32 163.5v439c0 100.667 -5.83301 162.5 -17.5 185.5s-50.5 49.5 -116.5 79.5l-52 25v15zM487 1614h219l-426 -326h-86z" />
    <glyph glyph-name="icircumflex" unicode="&#xee;" horiz-adv-x="698" 
d="M451 1143v-879c0 -82.667 11 -137 33 -163s68 -39 138 -39h16v-62h-559v62h20c68 0 112.667 12.833 134 38.5s32 80.167 32 163.5v439c0 100.667 -5.83301 162.5 -17.5 185.5s-50.5 49.5 -116.5 79.5l-52 25v15zM326 1458l-217 -170h-62l248 326h62l249 -326h-63z" />
    <glyph glyph-name="idieresis" unicode="&#xef;" horiz-adv-x="698" 
d="M450 1143v-879c0 -82.667 11 -137 33 -163s68 -39 138 -39h16v-62h-559v62h20c68 0 112.667 12.833 134 38.5s32 80.167 32 163.5v439c0 100.667 -5.83301 162.5 -17.5 185.5s-50.5 49.5 -116.5 79.5l-52 25v15zM113 1288c-29.333 0 -54.166 10.167 -74.499 30.5
s-30.5 44.833 -30.5 73.5c0 29.333 10.167 54.166 30.5 74.499s45.166 30.5 74.499 30.5c28.667 0 53.167 -10.167 73.5 -30.5s30.5 -45.166 30.5 -74.499c0 -28.667 -10.167 -53.167 -30.5 -73.5s-44.833 -30.5 -73.5 -30.5zM539 1288c-28.667 0 -53.167 10.167 -73.5 30.5
s-30.5 44.833 -30.5 73.5c0 29.333 10.167 54.166 30.5 74.499s44.833 30.5 73.5 30.5c29.333 0 54.166 -10.167 74.499 -30.5s30.5 -45.166 30.5 -74.499c0 -28.667 -10.167 -53.167 -30.5 -73.5s-45.166 -30.5 -74.499 -30.5z" />
    <glyph glyph-name="ntilde" unicode="&#xf1;" horiz-adv-x="1427" 
d="M450 854l-0.00292969 -590.001c0 -83.333 11.167 -137.833 33.5 -163.5s69.166 -38.5 140.499 -38.5h13v-62h-559v62h18c68.667 0 113.834 12.833 135.501 38.5s32.5 80.167 32.5 163.5v450c0 92 -6.66699 151 -20 177s-49.666 51.667 -108.999 77l-57 25v15l372 139
v-231c80 77.333 155.833 135.333 227.5 174s138.834 58 201.501 58c90.667 0 165.667 -31 225 -93c60.667 -63.333 91 -178.666 91 -345.999v-445c0 -83.333 11 -137.833 33 -163.5s68.333 -38.5 139 -38.5h14v-62h-558v62h16c70 0 115.833 13 137.5 39
s32.5 80.333 32.5 163v449c0 98.667 -16.167 170 -48.5 214s-85.166 66 -158.499 66c-53.333 0 -109.333 -11.5 -168 -34.5s-120 -57.833 -184 -104.5zM481.997 1288h-63.001c0 78.667 15.5 141 46.5 187s73.167 69 126.5 69c37.333 0 76.666 -13 117.999 -39l42 -27
c53.333 -34 95 -51 125 -51c58 0 91 39 99 117h64c0 -80 -15.667 -142.667 -47 -188s-74.666 -68 -129.999 -68c-39.333 0 -84.666 16 -135.999 48l-43 27c-41.333 27.333 -74.333 41 -99 41c-60.667 0 -95 -38.667 -103 -116z" />
    <glyph glyph-name="ograve" unicode="&#xf2;" horiz-adv-x="1303" 
d="M651 -31c-164.667 0 -300.167 55.333 -406.5 166s-159.5 252 -159.5 424c0 171.333 53.167 312.333 159.5 423s241.833 166 406.5 166c165.333 0 301.166 -55.333 407.499 -166s159.5 -251.667 159.5 -423c0 -172 -53.167 -313.333 -159.5 -424
s-242.166 -166 -407.499 -166zM651 39c102.667 0 185.334 47.667 248.001 143s94 221 94 377c0 155.333 -31.333 280.666 -94 375.999s-145.334 143 -248.001 143c-102 0 -184.333 -47.667 -247 -143s-94 -220.666 -94 -375.999c0 -156 31.333 -281.667 94 -377
s145 -143 247 -143zM830 1288h-86l-426 326h219z" />
    <glyph glyph-name="oacute" unicode="&#xf3;" horiz-adv-x="1303" 
d="M651 -31c-164.667 0 -300.167 55.333 -406.5 166s-159.5 252 -159.5 424c0 171.333 53.167 312.333 159.5 423s241.833 166 406.5 166c165.333 0 301.166 -55.333 407.499 -166s159.5 -251.667 159.5 -423c0 -172 -53.167 -313.333 -159.5 -424
s-242.166 -166 -407.499 -166zM651 39c102.667 0 185.334 47.667 248.001 143s94 221 94 377c0 155.333 -31.333 280.666 -94 375.999s-145.334 143 -248.001 143c-102 0 -184.333 -47.667 -247 -143s-94 -220.666 -94 -375.999c0 -156 31.333 -281.667 94 -377
s145 -143 247 -143zM789 1614h219l-426 -326h-86z" />
    <glyph glyph-name="ocircumflex" unicode="&#xf4;" horiz-adv-x="1303" 
d="M651 -31c-164.667 0 -300.167 55.333 -406.5 166s-159.5 252 -159.5 424c0 171.333 53.167 312.333 159.5 423s241.833 166 406.5 166c165.333 0 301.166 -55.333 407.499 -166s159.5 -251.667 159.5 -423c0 -172 -53.167 -313.333 -159.5 -424
s-242.166 -166 -407.499 -166zM651 39c102.667 0 185.334 47.667 248.001 143s94 221 94 377c0 155.333 -31.333 280.666 -94 375.999s-145.334 143 -248.001 143c-102 0 -184.333 -47.667 -247 -143s-94 -220.666 -94 -375.999c0 -156 31.333 -281.667 94 -377
s145 -143 247 -143zM651 1458l-217 -170h-62l248 326h62l249 -326h-63z" />
    <glyph glyph-name="otilde" unicode="&#xf5;" horiz-adv-x="1303" 
d="M651 -31c-164.667 0 -300.167 55.333 -406.5 166s-159.5 252 -159.5 424c0 171.333 53.167 312.333 159.5 423s241.833 166 406.5 166c165.333 0 301.166 -55.333 407.499 -166s159.5 -251.667 159.5 -423c0 -172 -53.167 -313.333 -159.5 -424
s-242.166 -166 -407.499 -166zM651 39c102.667 0 185.334 47.667 248.001 143s94 221 94 377c0 155.333 -31.333 280.666 -94 375.999s-145.334 143 -248.001 143c-102 0 -184.333 -47.667 -247 -143s-94 -220.666 -94 -375.999c0 -156 31.333 -281.667 94 -377
s145 -143 247 -143zM404 1288h-63.001c0 78.667 15.5 141 46.5 187s73.167 69 126.5 69c37.333 0 76.666 -13 117.999 -39l42 -27c53.333 -34 95 -51 125 -51c58 0 91 39 99 117h64c0 -80 -15.667 -142.667 -47 -188s-74.666 -68 -129.999 -68
c-39.333 0 -84.666 16 -135.999 48l-43 27c-41.333 27.333 -74.333 41 -99 41c-60.667 0 -95 -38.667 -103 -116z" />
    <glyph glyph-name="odieresis" unicode="&#xf6;" horiz-adv-x="1303" 
d="M651 -31c-164.667 0 -300.167 55.333 -406.5 166s-159.5 252 -159.5 424c0 171.333 53.167 312.333 159.5 423s241.833 166 406.5 166c165.333 0 301.166 -55.333 407.499 -166s159.5 -251.667 159.5 -423c0 -172 -53.167 -313.333 -159.5 -424
s-242.166 -166 -407.499 -166zM651 39c102.667 0 185.334 47.667 248.001 143s94 221 94 377c0 155.333 -31.333 280.666 -94 375.999s-145.334 143 -248.001 143c-102 0 -184.333 -47.667 -247 -143s-94 -220.666 -94 -375.999c0 -156 31.333 -281.667 94 -377
s145 -143 247 -143zM439 1288c-29.333 0 -54.166 10.167 -74.499 30.5s-30.5 44.833 -30.5 73.5c0 29.333 10.167 54.166 30.5 74.499s45.166 30.5 74.499 30.5c28.667 0 53.167 -10.167 73.5 -30.5s30.5 -45.166 30.5 -74.499c0 -28.667 -10.167 -53.167 -30.5 -73.5
s-44.833 -30.5 -73.5 -30.5zM865 1288c-28.667 0 -53.167 10.167 -73.5 30.5s-30.5 44.833 -30.5 73.5c0 29.333 10.167 54.166 30.5 74.499s44.833 30.5 73.5 30.5c29.333 0 54.166 -10.167 74.499 -30.5s30.5 -45.166 30.5 -74.499c0 -28.667 -10.167 -53.167 -30.5 -73.5
s-45.166 -30.5 -74.499 -30.5z" />
    <glyph glyph-name="divide" unicode="&#xf7;" 
d="M1241 613v-109h-1117v109h1117zM683 721c-37.333 0 -68.666 12.833 -93.999 38.5s-38 56.834 -38 93.501c0 37.333 12.667 68.666 38 93.999s56.666 38 93.999 38c36.667 0 67.667 -12.667 93 -38s38 -56.666 38 -93.999c0 -36.667 -12.667 -67.834 -38 -93.501
s-56.333 -38.5 -93 -38.5zM683 132c-37.333 0 -68.666 12.667 -93.999 38s-38 56.666 -38 93.999c0 36.667 12.667 67.834 38 93.501s56.666 38.5 93.999 38.5c36.667 0 67.667 -12.833 93 -38.5s38 -56.834 38 -93.501c0 -37.333 -12.667 -68.666 -38 -93.999
s-56.333 -38 -93 -38z" />
    <glyph glyph-name="oslash" unicode="&#xf8;" horiz-adv-x="1303" 
d="M185 -31h-100l150 175c-98.667 114 -148 252.667 -148 416c0 172 53 313 159 423s242 165 408 165c131.333 0 250.666 -39.667 357.999 -119l105 119h101l-150 -173c100.667 -126 151 -265 151 -417c0 -168.667 -53.5 -309 -160.5 -421s-241.167 -168 -402.5 -168
c-139.333 0 -260.666 40.667 -363.999 122zM355 284l558 635c-66 106 -152 159 -258 159c-104 0 -187.167 -47.5 -249.5 -142.5s-93.5 -221.5 -93.5 -379.5c0 -79.333 14.333 -170 43 -272zM948 837l-556.999 -633c70.667 -110 158.667 -165 264 -165
c101.333 0 183.166 47.667 245.499 143s93.5 220.333 93.5 375c0 110.667 -15.333 204 -46 280z" />
    <glyph glyph-name="ugrave" unicode="&#xf9;" horiz-adv-x="1412" 
d="M978 189c-67.333 -73.333 -136.168 -128.33 -206.501 -164.997s-142.166 -55 -215.499 -55c-111.333 0 -193 35.667 -245 107c-52 70.667 -78 182 -78 334v293c0 98.667 -6.33301 161.167 -19 187.5s-49.334 52.166 -110.001 77.499l-57 25v15l372 140v-672
c0 -144.667 15.333 -240.834 46 -288.501s84 -71.5 160 -71.5c61.333 0 115.833 10 163.5 30s110.834 59.333 189.501 118v442c0 96.667 -6.5 158.167 -19.5 184.5s-49.5 52.166 -109.5 77.499l-57 25v15l372 140v-884c0 -55.333 13 -92.833 39 -112.5s75 -29.5 147 -29.5h8
v-60l-380 -93v220zM819.998 1288h-86l-426 326h219z" />
    <glyph glyph-name="uacute" unicode="&#xfa;" horiz-adv-x="1412" 
d="M978 189c-67.333 -73.333 -136.168 -128.33 -206.501 -164.997s-142.166 -55 -215.499 -55c-111.333 0 -193 35.667 -245 107c-52 70.667 -78 182 -78 334v293c0 98.667 -6.33301 161.167 -19 187.5s-49.334 52.166 -110.001 77.499l-57 25v15l372 140v-672
c0 -144.667 15.333 -240.834 46 -288.501s84 -71.5 160 -71.5c61.333 0 115.833 10 163.5 30s110.834 59.333 189.501 118v442c0 96.667 -6.5 158.167 -19.5 184.5s-49.5 52.166 -109.5 77.499l-57 25v15l372 140v-884c0 -55.333 13 -92.833 39 -112.5s75 -29.5 147 -29.5h8
v-60l-380 -93v220zM819.998 1614h219l-426 -326h-86z" />
    <glyph glyph-name="ucircumflex" unicode="&#xfb;" horiz-adv-x="1412" 
d="M978 189c-67.333 -73.333 -136.168 -128.33 -206.501 -164.997s-142.166 -55 -215.499 -55c-111.333 0 -193 35.667 -245 107c-52 70.667 -78 182 -78 334v293c0 98.667 -6.33301 161.167 -19 187.5s-49.334 52.166 -110.001 77.499l-57 25v15l372 140v-672
c0 -144.667 15.333 -240.834 46 -288.501s84 -71.5 160 -71.5c61.333 0 115.833 10 163.5 30s110.834 59.333 189.501 118v442c0 96.667 -6.5 158.167 -19.5 184.5s-49.5 52.166 -109.5 77.499l-57 25v15l372 140v-884c0 -55.333 13 -92.833 39 -112.5s75 -29.5 147 -29.5h8
v-60l-380 -93v220zM701.998 1458l-217 -170h-62l248 326h62l249 -326h-63z" />
    <glyph glyph-name="udieresis" unicode="&#xfc;" horiz-adv-x="1412" 
d="M978 189c-67.333 -73.333 -136.168 -128.33 -206.501 -164.997s-142.166 -55 -215.499 -55c-111.333 0 -193 35.667 -245 107c-52 70.667 -78 182 -78 334v293c0 98.667 -6.33301 161.167 -19 187.5s-49.334 52.166 -110.001 77.499l-57 25v15l372 140v-672
c0 -144.667 15.333 -240.834 46 -288.501s84 -71.5 160 -71.5c61.333 0 115.833 10 163.5 30s110.834 59.333 189.501 118v442c0 96.667 -6.5 158.167 -19.5 184.5s-49.5 52.166 -109.5 77.499l-57 25v15l372 140v-884c0 -55.333 13 -92.833 39 -112.5s75 -29.5 147 -29.5h8
v-60l-380 -93v220zM489.998 1288c-29.333 0 -54.166 10.167 -74.499 30.5s-30.5 44.833 -30.5 73.5c0 29.333 10.167 54.166 30.5 74.499s45.166 30.5 74.499 30.5c28.667 0 53.167 -10.167 73.5 -30.5s30.5 -45.166 30.5 -74.499c0 -28.667 -10.167 -53.167 -30.5 -73.5
s-44.833 -30.5 -73.5 -30.5zM915.998 1288c-28.667 0 -53.167 10.167 -73.5 30.5s-30.5 44.833 -30.5 73.5c0 29.333 10.167 54.166 30.5 74.499s44.833 30.5 73.5 30.5c29.333 0 54.166 -10.167 74.499 -30.5s30.5 -45.166 30.5 -74.499
c0 -28.667 -10.167 -53.167 -30.5 -73.5s-45.166 -30.5 -74.499 -30.5z" />
    <glyph glyph-name="ydieresis" unicode="&#xff;" horiz-adv-x="1303" 
d="M634 35l-392.002 818.002c-42.667 84 -75.334 138.667 -98.001 164s-50 38 -82 38h-15v62h465v-62h-18c-65.333 0 -98 -16.667 -98 -50c0 -21.333 18.667 -72 56 -152l284 -604l286 604c33.333 69.333 50 114.666 50 135.999c0 44 -33.333 66 -100 66h-10v62h342v-62h-14
c-33.333 0 -61.166 -12.833 -83.499 -38.5s-53.833 -80.834 -94.5 -165.501l-455 -942c-45.333 -94.667 -81.333 -159.667 -108 -195s-67 -72.333 -121 -111c-76 -45.333 -159 -68 -249 -68c-50.667 0 -105 7.66699 -163 23l98 173c50 -12 94.333 -18 133 -18
c78.667 0 147.334 20.667 206.001 62s107.334 103.333 146.001 186zM535.998 1288c-29.333 0 -54.166 10.167 -74.499 30.5s-30.5 44.833 -30.5 73.5c0 29.333 10.167 54.166 30.5 74.499s45.166 30.5 74.499 30.5c28.667 0 53.167 -10.167 73.5 -30.5
s30.5 -45.166 30.5 -74.499c0 -28.667 -10.167 -53.167 -30.5 -73.5s-44.833 -30.5 -73.5 -30.5zM961.998 1288c-28.667 0 -53.167 10.167 -73.5 30.5s-30.5 44.833 -30.5 73.5c0 29.333 10.167 54.166 30.5 74.499s44.833 30.5 73.5 30.5
c29.333 0 54.166 -10.167 74.499 -30.5s30.5 -45.166 30.5 -74.499c0 -28.667 -10.167 -53.167 -30.5 -73.5s-45.166 -30.5 -74.499 -30.5z" />
    <glyph glyph-name="dotlessi" unicode="&#x131;" horiz-adv-x="698" 
d="M450 1143v-879c0 -82.667 11 -137 33 -163s68 -39 138 -39h16v-62h-559v62h20c68 0 112.667 12.833 134 38.5s32 80.167 32 163.5v439c0 100.667 -5.83301 162.5 -17.5 185.5s-50.5 49.5 -116.5 79.5l-52 25v15z" />
    <glyph glyph-name="OE" unicode="&#x152;" horiz-adv-x="2281" 
d="M1294 0l-0.00292969 134.002c-108.667 -120.667 -267 -181 -475 -181c-214 0 -389.833 77 -527.5 231s-206.5 351 -206.5 591c0 233.333 68.5 428.833 205.5 586.5s306.5 236.5 508.5 236.5c198 0 363 -57.333 495 -172v126h843l34 -288h-86l-3 21
c-12.667 87.333 -38.167 140.666 -76.5 159.999s-138.166 29 -299.499 29h-210v-628h232c106.667 0 174.834 9.16699 204.501 27.5s44.5 60.166 44.5 125.499v17h77v-403h-77v15c0 58.667 -12.333 100.667 -37 126c-20 20 -90.667 30 -212 30h-234v-527
c0 -66 28.167 -112.333 84.5 -139s154.833 -40 295.5 -40h41c64 0 111 15.5 141 46.5s51.333 86.5 64 166.5l3 19h80l-33 -338c-128 8.66699 -223 13 -285 13c-65.333 0 -142.666 2.66699 -231.999 8c-87.333 4.66699 -140.333 7 -159 7h-200zM1294 714.002v124
c0 219.333 -41.333 390.5 -124 513.5s-198 184.5 -346 184.5s-269.333 -71 -364 -213s-142 -324.333 -142 -547s47.333 -405 142 -547s216 -213 364 -213s263.333 61.5 346 184.5s124 294.167 124 513.5z" />
    <glyph glyph-name="oe" unicode="&#x153;" horiz-adv-x="2079" 
d="M1105 928c109.333 146.667 249.666 220.002 420.999 220.002c142 0 251.833 -45.333 329.5 -136s116.5 -218.334 116.5 -383.001v-32h-766c-1.33301 -22.667 -2 -38.334 -2 -47.001c0 -129.333 41 -237.833 123 -325.5s183.667 -131.5 305 -131.5
c115.333 0 233.333 31.667 354 95v-94c-146 -83.333 -282.333 -125 -409 -125c-100 0 -189.333 18.5 -268 55.5s-146.667 92.5 -204 166.5c-116 -148 -266.667 -222 -452 -222c-166 0 -302.167 55.167 -408.5 165.5s-159.5 251.833 -159.5 424.5
c0 171.333 53 312.333 159 423s241.333 166 406 166c200.667 0 352.334 -73.333 455.001 -220zM648 1078c-102 0 -184.333 -47.667 -247 -143s-94 -220.666 -94 -375.999c0 -156 31.333 -281.667 94 -377s145 -143 247 -143s184.333 47.667 247 143s94 221 94 377
c0 155.333 -31.333 280.666 -94 375.999s-145 143 -247 143zM1214 659.002l207 0.000976562c149.333 0 243.666 7.5 282.999 22.5s59 50.833 59 107.5c0 87.333 -21.667 158.666 -65 213.999s-98.666 83 -165.999 83c-84.667 0 -155.667 -38.5 -213 -115.5
s-92.333 -180.833 -105 -311.5z" />
    <glyph glyph-name="Ydieresis" unicode="&#x178;" horiz-adv-x="1319" 
d="M566 728l-329.999 562c-78 132.667 -151.667 199 -221 199h-15v63h496v-63h-21c-48 0 -72 -16.333 -72 -49c0 -31.333 20 -81.333 60 -150l271 -472l259 476c37.333 68 56 113 56 135c0 35.333 -27.333 55 -82 59l-23 1v63h375v-63h-22c-50 0 -87.333 -11.167 -112 -33.5
s-61.334 -77.833 -110.001 -166.5l-307 -561v-464c0 -84 12.667 -138.667 38 -164s79.333 -38 162 -38h16v-62h-634v62h16c82.667 0 136.667 12.667 162 38s38 80 38 164v464zM353.001 1719c-29.333 0 -54.166 10.167 -74.499 30.5s-30.5 44.833 -30.5 73.5
c0 29.333 10.167 54.166 30.5 74.499s45.166 30.5 74.499 30.5c28.667 0 53.167 -10.167 73.5 -30.5s30.5 -45.166 30.5 -74.499c0 -28.667 -10.167 -53.167 -30.5 -73.5s-44.833 -30.5 -73.5 -30.5zM779.001 1719c-28.667 0 -53.167 10.167 -73.5 30.5
s-30.5 44.833 -30.5 73.5c0 29.333 10.167 54.166 30.5 74.499s44.833 30.5 73.5 30.5c29.333 0 54.166 -10.167 74.499 -30.5s30.5 -45.166 30.5 -74.499c0 -28.667 -10.167 -53.167 -30.5 -73.5s-45.166 -30.5 -74.499 -30.5z" />
    <glyph glyph-name="florin" unicode="&#x192;" 
d="M467 -372h-187.002l232 1187h-279v69h295l27 133c78 387.333 241 581 489 581c109.333 0 201 -39.333 275 -118l-130 -147c-7.33301 60 -26.166 108.833 -56.499 146.5s-66.166 56.5 -107.499 56.5c-64 0 -116.167 -32.5 -156.5 -97.5s-75.833 -173.833 -106.5 -326.5
l-45 -228h358v-69h-373z" />
    <glyph glyph-name="circumflex" unicode="&#x2c6;" horiz-adv-x="1303" 
d="M651 1458l-217 -170h-62l248 326h62l249 -326h-63z" />
    <glyph glyph-name="caron" unicode="&#x2c7;" horiz-adv-x="1303" 
d="M651 1443l217 171h63l-249 -326h-62l-248 326h62z" />
    <glyph glyph-name="macron" unicode="&#x2c9;" horiz-adv-x="1303" 
d="M372 1288v77h559v-77h-559z" />
    <glyph glyph-name="breve" unicode="&#x2d8;" horiz-adv-x="1303" 
d="M376 1614h63.998c10.667 -52 36.834 -96.167 78.501 -132.5s87.167 -54.5 136.5 -54.5s95 18.167 137 54.5s68.333 80.5 79 132.5h64c-17.333 -102 -50.666 -181.833 -99.999 -239.5s-109 -86.5 -179 -86.5c-69.333 0 -128.333 28.333 -177 85s-83 137 -103 241z" />
    <glyph glyph-name="dotaccent" unicode="&#x2d9;" horiz-adv-x="1303" 
d="M652 1288c-36 0 -67.001 12.833 -93.001 38.5s-39 56.834 -39 93.501c0 36 12.833 67 38.5 93s56.834 39 93.501 39c36 0 67 -13 93 -39s39 -57 39 -93c0 -36.667 -13 -67.834 -39 -93.501s-57 -38.5 -93 -38.5z" />
    <glyph glyph-name="ring" unicode="&#x2da;" horiz-adv-x="1303" 
d="M652 1350c29.333 0 54.667 10.667 76 32s32 46.666 32 75.999c0 30 -10.5 55.667 -31.5 77s-46.5 32 -76.5 32s-55.667 -10.667 -77 -32s-32 -47 -32 -77c0 -29.333 10.667 -54.666 32 -75.999s47 -32 77 -32zM652.001 1288c-47.333 0 -87.666 16.667 -120.999 50
s-50 73.333 -50 120c0 47.333 16.667 87.666 50 120.999s73.666 50 120.999 50c46.667 0 86.667 -16.667 120 -50s50 -73.666 50 -120.999c0 -46.667 -16.667 -86.667 -50 -120s-73.333 -50 -120 -50z" />
    <glyph glyph-name="ogonek" unicode="&#x2db;" horiz-adv-x="1303" 
d="M753 0c-101.333 -94.667 -152 -172.666 -152 -233.999c0 -34.667 14 -63.834 42 -87.501s62.667 -35.5 104 -35.5c13.333 0 34.333 3 63 9v-61c-41.333 -17.333 -87.333 -26 -138 -26c-57.333 0 -105.5 16.5 -144.5 49.5s-58.5 73.5 -58.5 121.5
c0 90.667 66.333 178.667 199 264h85z" />
    <glyph glyph-name="tilde" unicode="&#x2dc;" horiz-adv-x="1303" 
d="M404 1288h-63.001c0 78.667 15.5 141 46.5 187s73.167 69 126.5 69c37.333 0 76.666 -13 117.999 -39l42 -27c53.333 -34 95 -51 125 -51c58 0 91 39 99 117h64c0 -80 -15.667 -142.667 -47 -188s-74.666 -68 -129.999 -68c-39.333 0 -84.666 16 -135.999 48l-43 27
c-41.333 27.333 -74.333 41 -99 41c-60.667 0 -95 -38.667 -103 -116z" />
    <glyph glyph-name="hungarumlaut" unicode="&#x2dd;" horiz-adv-x="1303" 
d="M511 1288h-65l143 326h121zM782 1288h-64l143 326h128z" />
    <glyph glyph-name="Delta" unicode="&#x394;" horiz-adv-x="1645" 
d="M109 0v171l677 1427h53l697 -1427v-171h-1427zM199 171h1109l-563 1155z" />
    <glyph glyph-name="Delta" unicode="&#x2206;" horiz-adv-x="1645" 
d="M109 0v171l677 1427h53l697 -1427v-171h-1427zM199 171h1109l-563 1155z" />
    <glyph glyph-name="Omega" unicode="&#x3a9;" horiz-adv-x="1815" 
d="M1185 147h175c109.333 0 182.833 7.83301 220.5 23.5s60.5 47.834 68.5 96.501l3 20h78l-31 -287h-602v147c108.667 80.667 190.167 179 244.5 295s81.5 249.333 81.5 400c0 204.667 -48 371.5 -144 500.5s-220 193.5 -372 193.5s-276 -64.667 -372 -194
s-144 -296 -144 -500c0 -302 109 -533.667 327 -695v-147h-602l-31 287h78l3 -20c7.33301 -48.667 29.833 -80.834 67.5 -96.501s111.5 -23.5 221.5 -23.5h175c-304 184.667 -456 413.667 -456 687c0 190.667 59.333 360.334 178 509.001c136.667 170 321.667 255 555 255
c234 0 419 -85 555 -255c119.333 -148.667 179 -318.334 179 -509.001c0 -136.667 -38 -262.167 -114 -376.5s-190 -217.833 -342 -310.5z" />
    <glyph glyph-name="Omega" unicode="&#x2126;" horiz-adv-x="1815" 
d="M1185 147h175c109.333 0 182.833 7.83301 220.5 23.5s60.5 47.834 68.5 96.501l3 20h78l-31 -287h-602v147c108.667 80.667 190.167 179 244.5 295s81.5 249.333 81.5 400c0 204.667 -48 371.5 -144 500.5s-220 193.5 -372 193.5s-276 -64.667 -372 -194
s-144 -296 -144 -500c0 -302 109 -533.667 327 -695v-147h-602l-31 287h78l3 -20c7.33301 -48.667 29.833 -80.834 67.5 -96.501s111.5 -23.5 221.5 -23.5h175c-304 184.667 -456 413.667 -456 687c0 190.667 59.333 360.334 178 509.001c136.667 170 321.667 255 555 255
c234 0 419 -85 555 -255c119.333 -148.667 179 -318.334 179 -509.001c0 -136.667 -38 -262.167 -114 -376.5s-190 -217.833 -342 -310.5z" />
    <glyph glyph-name="pi" unicode="&#x3c0;" horiz-adv-x="1552" 
d="M527 0h-186.001v954h-23c-83.333 0 -179 -30 -287 -90v63c70.667 76.667 136.5 127.5 197.5 152.5s148.833 37.5 263.5 37.5h934v-163h-278v-602c0 -98 5.16699 -164.333 15.5 -199s29.5 -52 57.5 -52c37.333 0 72 29.167 104 87.5s51.333 127.5 58 207.5h60
c-11.333 -130 -44.5 -233.667 -99.5 -311s-123.167 -116 -204.5 -116c-63.333 0 -108.666 23 -135.999 69s-41 122 -41 228v688h-435v-954z" />
    <glyph glyph-name="pi" unicode="&#xf006;" horiz-adv-x="1552" 
d="M527 0h-186.001v954h-23c-83.333 0 -179 -30 -287 -90v63c70.667 76.667 136.5 127.5 197.5 152.5s148.833 37.5 263.5 37.5h934v-163h-278v-602c0 -98 5.16699 -164.333 15.5 -199s29.5 -52 57.5 -52c37.333 0 72 29.167 104 87.5s51.333 127.5 58 207.5h60
c-11.333 -130 -44.5 -233.667 -99.5 -311s-123.167 -116 -204.5 -116c-63.333 0 -108.666 23 -135.999 69s-41 122 -41 228v688h-435v-954z" />
    <glyph glyph-name="endash" unicode="&#x2013;" horiz-adv-x="1055" 
d="M62 574v109h931v-109h-931z" />
    <glyph glyph-name="emdash" unicode="&#x2014;" horiz-adv-x="2110" 
d="M62 574v109h1986v-109h-1986z" />
    <glyph glyph-name="quoteleft" unicode="&#x2018;" horiz-adv-x="621" 
d="M466 1645l0.000976562 -66c-104 -66.667 -160.333 -171.667 -169 -315l169 -86c-14.667 -113.333 -71 -170 -169 -170c-44.667 0 -81.334 17.167 -110.001 51.5s-43 77.833 -43 130.5c0 173.333 107.333 325 322 455z" />
    <glyph glyph-name="quoteright" unicode="&#x2019;" horiz-adv-x="621" 
d="M155 1008l-0.000976562 67c104 66 160.333 170.667 169 314l-169 86c14.667 113.333 71 170 169 170c44.667 0 81.334 -17 110.001 -51s43 -77.667 43 -131c0 -173.333 -107.333 -325 -322 -455z" />
    <glyph glyph-name="quotesinglbase" unicode="&#x201a;" horiz-adv-x="621" 
d="M155 -372l-0.000976562 66c104 66 160.333 170.667 169 314l-169 86c14.667 113.333 71 170 169 170c44.667 0 81.334 -17 110.001 -51s43 -77.333 43 -130c0 -174 -107.333 -325.667 -322 -455z" />
    <glyph glyph-name="quotedblleft" unicode="&#x201c;" horiz-adv-x="1086" 
d="M916 1645l0.000976562 -66c-104 -66.667 -160.667 -171.667 -170 -315l170 -86c-14.667 -113.333 -71.334 -170 -170.001 -170c-44 0 -80.5 17.167 -109.5 51.5s-43.5 77.833 -43.5 130.5c0 173.333 107.667 325 323 455zM493.001 1645l0.000976562 -66
c-104 -66.667 -160.333 -171.667 -169 -315l169 -86c-14.667 -113.333 -71 -170 -169 -170c-44.667 0 -81.334 17.167 -110.001 51.5s-43 77.833 -43 130.5c0 173.333 107.333 325 322 455z" />
    <glyph glyph-name="quotedblright" unicode="&#x201d;" horiz-adv-x="1086" 
d="M171 1008l-0.000976562 67c104 66 160.333 170.667 169 314l-169 86c14.667 113.333 71 170 169 170c44.667 0 81.334 -17 110.001 -51s43 -77.667 43 -131c0 -173.333 -107.333 -325 -322 -455zM593.999 1008l-0.000976562 67c104 66 160.333 170.667 169 314l-169 86
c14.667 113.333 71 170 169 170c44.667 0 81.334 -17 110.001 -51s43 -77.667 43 -131c0 -173.333 -107.333 -325 -322 -455z" />
    <glyph glyph-name="quotedblbase" unicode="&#x201e;" horiz-adv-x="1086" 
d="M171 -372l-0.000976562 66c104 66 160.333 170.667 169 314l-169 86c14.667 113.333 71 170 169 170c44.667 0 81.334 -17 110.001 -51s43 -77.333 43 -130c0 -174 -107.333 -325.667 -322 -455zM593.999 -372l-0.000976562 66c104 66 160.333 170.667 169 314l-169 86
c14.667 113.333 71 170 169 170c44.667 0 81.334 -17 110.001 -51s43 -77.333 43 -130c0 -174 -107.333 -325.667 -322 -455z" />
    <glyph glyph-name="dagger" unicode="&#x2020;" 
d="M717 -372h-64l-82 1057l82 345l-405 -34v140l405 -28l-82 444h220l-74 -444l400 28v-140l-400 34l74 -345z" />
    <glyph glyph-name="daggerdbl" unicode="&#x2021;" 
d="M796 -372h-221l80 448l-407 -29v140l407 -34l-80 425l80 452l-407 -35v140l407 -28l-80 445h221l-77 -445l398 28v-140l-398 35l77 -452l-77 -425l398 34v-140l-398 29z" />
    <glyph glyph-name="bullet" unicode="&#x2022;" 
d="M683 341c-118 0 -218.667 41.667 -302 125s-125 184 -125 302s41.667 218.667 125 302s184 125 302 125s218.5 -41.667 301.5 -125s124.5 -184 124.5 -302s-41.5 -218.667 -124.5 -302s-183.5 -125 -301.5 -125z" />
    <glyph glyph-name="ellipsis" unicode="&#x2026;" horiz-adv-x="2110" 
d="M198 109c0 43.333 15 80 45 110s66.667 45 110 45c44 0 80.833 -15 110.5 -45s44.5 -66.667 44.5 -110c0 -44 -14.833 -81 -44.5 -111s-66.5 -45 -110.5 -45c-43.333 0 -80 15 -110 45s-45 67 -45 111zM900 109c0 43.333 15 80 45 110s66.667 45 110 45
c44 0 80.833 -15 110.5 -45s44.5 -66.667 44.5 -110c0 -44 -14.833 -81 -44.5 -111s-66.5 -45 -110.5 -45c-43.333 0 -80 15 -110 45s-45 67 -45 111zM1602 109c0 43.333 15 80 45 110s66.667 45 110 45c44 0 80.833 -15 110.5 -45s44.5 -66.667 44.5 -110
c0 -44 -14.833 -81 -44.5 -111s-66.5 -45 -110.5 -45c-43.333 0 -80 15 -110 45s-45 67 -45 111z" />
    <glyph glyph-name="perthousand" unicode="&#x2030;" horiz-adv-x="2622" 
d="M273 0l1114 1552h131l-1110 -1552h-135zM1408 0c-104 0 -188.833 43.333 -254.5 130s-98.5 198.334 -98.5 335.001c0 137.333 32.833 249.333 98.5 336s150.5 130 254.5 130c104.667 0 189.667 -43.333 255 -130s98 -198.667 98 -336
c0 -136.667 -32.667 -248.334 -98 -335.001s-150.333 -130 -255 -130zM1408 62c59.333 0 106 36 140 108s51 170.333 51 295s-17 223.167 -51 295.5s-80.667 108.5 -140 108.5c-58.667 0 -105 -36 -139 -108s-51 -170.667 -51 -296c0 -124.667 17 -223 51 -295
s80.333 -108 139 -108zM2227 0c-104 0 -188.833 43.333 -254.5 130s-98.5 198.334 -98.5 335.001c0 137.333 32.833 249.333 98.5 336s150.5 130 254.5 130s188.833 -43.333 254.5 -130s98.5 -198.667 98.5 -336c0 -136.667 -32.833 -248.334 -98.5 -335.001
s-150.5 -130 -254.5 -130zM2227 62c58.667 0 105 36 139 108s51 170.333 51 295s-17 223.167 -51 295.5s-80.333 108.5 -139 108.5s-105 -36 -139 -108s-51 -170.667 -51 -296c0 -124.667 17 -223 51 -295s80.333 -108 139 -108zM396 621
c-104 0 -188.833 43.167 -254.5 129.5s-98.5 198.166 -98.5 335.499s32.833 249.333 98.5 336s150.5 130 254.5 130s188.833 -43.333 254.5 -130s98.5 -198.667 98.5 -336s-32.833 -249.166 -98.5 -335.499s-150.5 -129.5 -254.5 -129.5zM396 683c58.667 0 105 36 139 108
s51 170.333 51 295s-17 223 -51 295s-80.333 108 -139 108s-105 -36 -139 -108s-51 -170.333 -51 -295s17 -223 51 -295s80.333 -108 139 -108z" />
    <glyph glyph-name="guilsinglleft" unicode="&#x2039;" horiz-adv-x="659" 
d="M278 559l303 -435h-61l-435 404v62l435 403h61z" />
    <glyph glyph-name="guilsinglright" unicode="&#x203a;" horiz-adv-x="659" 
d="M381 559l-303 434h62l434 -403v-62l-434 -404h-62z" />
    <glyph glyph-name="fraction" unicode="&#x2044;" horiz-adv-x="202" 
d="M-559 -47l1192 1645h127l-1184 -1645h-135z" />
    <glyph glyph-name="fraction" unicode="&#x2215;" horiz-adv-x="202" 
d="M-559 -47l1192 1645h127l-1184 -1645h-135z" />
    <glyph glyph-name="trademark" unicode="&#x2122;" horiz-adv-x="1831" 
d="M357 1483h-59.998c-52.667 0 -88.667 -6.5 -108 -19.5s-32 -39.833 -38 -80.5l-3 -23h-70l22 192h646l22 -192h-70l-3 23c-6 40.667 -18.667 67.5 -38 80.5s-55.333 19.5 -108 19.5h-60v-565c0 -35.333 4.66699 -57.666 14 -66.999s31.666 -14 66.999 -14h23v-61h-340v61
h23c35.333 0 57.666 4.66699 66.999 14s14 31.666 14 66.999v565zM1009 1346v-428c0 -35.333 3.83301 -57.666 11.5 -66.999s26.167 -14 55.5 -14h22v-61h-258v61h22c29.333 0 47.833 4.66699 55.5 14s11.5 31.666 11.5 66.999v491c0 35.333 -3.83301 57.833 -11.5 67.5
s-26.167 14.5 -55.5 14.5h-22v61h198l267 -516l245 516h204v-61h-23c-28.667 0 -47 -4.83301 -55 -14.5s-12 -32.167 -12 -67.5v-491c0 -35.333 4 -57.666 12 -66.999s26.333 -14 55 -14h23v-61h-303v61h25c29.333 0 48 4.66699 56 14s12 31.666 12 66.999v472l-268 -561z
" />
    <glyph glyph-name="partialdiff" unicode="&#x2202;" horiz-adv-x="1334" 
d="M997 1055c-38.667 142.667 -89.667 249.334 -153 320.001c-106.667 118 -227.667 177 -363 177h-24v62h28c226 0 404.333 -66.333 535 -199c70 -71.333 126.833 -167 170.5 -287s65.5 -241 65.5 -363c0 -226 -67.5 -415.167 -202.5 -567.5s-302.833 -228.5 -503.5 -228.5
c-142 0 -255 41.167 -339 123.5s-126 192.833 -126 331.5c0 185.333 69 347.166 207 485.499s299.667 207.5 485 207.5c78.667 0 152 -20.667 220 -62zM555 31c129.333 0 241 69.166 335 207.499s141 302.5 141 492.5c0 100.667 -22.167 179.834 -66.5 237.501
s-105.166 86.5 -182.499 86.5c-120.667 0 -230.834 -69.5 -330.501 -208.5s-149.5 -292.5 -149.5 -460.5c0 -110.667 22.5 -197.5 67.5 -260.5s106.833 -94.5 185.5 -94.5z" />
    <glyph glyph-name="product" unicode="&#x220f;" horiz-adv-x="1637" 
d="M466 1474v-1582c0 -82.667 11 -137 33 -163s68 -39 138 -39h15v-62h-574v62h16c70 0 115.833 13 137.5 39s32.5 80.333 32.5 163v1396c0 82.667 -10.833 136.834 -32.5 162.501s-67.5 38.5 -137.5 38.5h-16v63h1482v-63h-16c-70 0 -115.833 -12.833 -137.5 -38.5
s-32.5 -79.834 -32.5 -162.501v-1396c0 -82.667 10.833 -137 32.5 -163s67.5 -39 137.5 -39h16v-62h-574v62h15c70 0 116 13 138 39s33 80.333 33 163v1582h-706z" />
    <glyph glyph-name="summation" unicode="&#x2211;" horiz-adv-x="1303" 
d="M62 -372v155.001l568 907l-518 792v70h1009l31 -288h-78l-3 18c-17.333 95.333 -41.333 151.166 -72 167.499s-127.667 24.5 -291 24.5h-341l463 -717l-618 -974h605c120.667 0 197.167 9.66699 229.5 29s54.833 68 67.5 146l3 19h78l-36 -374
c-130.667 6.66699 -223 10 -277 10c-64 0 -140.333 2.66699 -229 8c-88 4.66699 -141.333 7 -160 7h-431z" />
    <glyph glyph-name="radical" unicode="&#x221a;" horiz-adv-x="1831" 
d="M171 463l-47 82l349 203l520 -953l640 1850h97l-696 -2017h-129l-519 954z" />
    <glyph glyph-name="infinity" unicode="&#x221e;" 
d="M663 477l-38.001 -48.999c-94.667 -120 -183.667 -180 -267 -180c-66.667 0 -122.334 27.333 -167.001 82s-67 122.667 -67 204c0 87.333 25.667 162.333 77 225s113 94 185 94c82.667 0 170.334 -55 263.001 -165l51 -61l55 73c76.667 102 160.334 153 251.001 153
c65.333 0 120.833 -26 166.5 -78s68.5 -115.667 68.5 -191c0 -98.667 -25 -179.334 -75 -242.001s-114 -94 -192 -94c-74.667 0 -159 54.333 -253 163zM615.999 534.001l-33.002 40.001c-87.333 106 -163.666 159 -228.999 159c-43.333 0 -79.666 -20 -108.999 -60
s-44 -89.333 -44 -148c0 -54.667 15.5 -100.334 46.5 -137.001s69.5 -55 115.5 -55c54 0 121.333 47 202 141zM746.997 567.002l49 -51.999c85.333 -93.333 155.666 -140 210.999 -140c44 0 80.333 19.5 109 58.5s43 88.167 43 147.5c0 53.333 -15.167 98.666 -45.5 135.999
s-67.166 56 -110.499 56c-60 0 -131.333 -51.333 -214 -154z" />
    <glyph glyph-name="integral" unicode="&#x222b;" horiz-adv-x="1094" 
d="M252 -286c9.33301 -10.667 19.668 -18.666 31.001 -23.999s23.666 -8 36.999 -8c53.333 0 90.666 30.667 111.999 92s32 169.333 32 324l-5 358l-2 111v182c0 331.333 35.333 557.666 106 678.999c66 114 152 171 258 171c52.667 0 97 -16 133 -48s54 -71.667 54 -119
c0 -35.333 -10.667 -65.666 -32 -90.999s-47 -38 -77 -38c-72 0 -108 37.333 -108 112c0 21.333 4.66699 40 14 56s23 29 41 39c-20.667 17.333 -44 26 -70 26c-46.667 0 -81.667 -26.667 -105 -80c-23.333 -54 -35 -135 -35 -243l5 -479l3 -116v-133
c0 -321.333 -29.333 -538.333 -88 -651c-71.333 -137.333 -165.666 -206 -282.999 -206c-54.667 0 -99.667 15.167 -135 45.5s-53 69.5 -53 117.5c0 34.667 11 64 33 88s49 36 81 36c74 0 111 -35.333 111 -106c0 -18.667 -4.83301 -35.834 -14.5 -51.501
s-24.167 -30.167 -43.5 -43.5z" />
    <glyph glyph-name="approxequal" unicode="&#x2248;" 
d="M202 590l-77.999 0.000976562v17c0 92 27.167 170.333 81.5 235s120.166 97 197.499 97c60.667 0 147 -34.333 259 -103l75 -46c118 -71.333 201 -107 249 -107c41.333 0 81.333 23 120 69s58 94 58 144v12h77v-19c0 -90.667 -28.333 -168.334 -85 -233.001
s-125 -97 -205 -97c-62 0 -144.667 33 -248 99l-78 50c-111.333 71.333 -191 107 -239 107c-46 0 -88.167 -21.5 -126.5 -64.5s-57.5 -90.167 -57.5 -141.5v-19zM202.001 209.001h-77.999v18c0 92 27.167 170.333 81.5 235s120.166 97 197.499 97
c60.667 0 147 -34.333 259 -103l75 -46c118 -71.333 201 -107 249 -107c41.333 0 81.333 23 120 69s58 94 58 144v12h77v-20c0 -90 -28.333 -167.5 -85 -232.5s-125 -97.5 -205 -97.5c-62 0 -144.667 33.333 -248 100l-78 50c-111.333 70.667 -191 106 -239 106
c-46 0 -88.167 -21.333 -126.5 -64s-57.5 -89.667 -57.5 -141v-20z" />
    <glyph glyph-name="notequal" unicode="&#x2260;" 
d="M1241 768v-109h-405l-169 -201h574v-109h-665l-193 -225h-146l191 225h-304v109h395l171 201h-566v109h660l184 225h141l-182 -225h314z" />
    <glyph glyph-name="lessequal" unicode="&#x2264;" 
d="M1241 1334v-114l-883 -444l883 -433v-126l-1117 559zM1241 109v-109h-1117v109h1117z" />
    <glyph glyph-name="greaterequal" unicode="&#x2265;" 
d="M124 217v115l883 444l-883 433v125l1117 -558zM1241 109v-109h-1117v109h1117z" />
    <glyph glyph-name="lozenge" unicode="&#x25ca;" 
d="M1240 776l-559 -776l-557 776l557 776zM1107 776l-426 589l-424 -589l424 -592z" />
    <glyph glyph-name="fi" unicode="&#xf001;" horiz-adv-x="1412" 
d="M233 1040h-186.001v77h186v102c0 142 34 248.5 102 319.5s169.667 106.5 305 106.5c127.333 0 223.333 -40.333 288 -121l-143 -134c-49.333 128.667 -119.333 193 -210 193c-52 0 -91 -23.333 -117 -70s-39 -117 -39 -211v-185h559l186 31v-884
c0 -83.333 11 -137.833 33 -163.5s68.333 -38.5 139 -38.5h14v-62h-566v62h17c72.667 0 120.334 12.833 143.001 38.5s34 80.167 34 163.5v776h-559v-776c0 -83.333 12.833 -137.833 38.5 -163.5s80.5 -38.5 164.5 -38.5h15v-62h-590v62h20
c68.667 0 113.5 12.833 134.5 38.5s31.5 80.167 31.5 163.5v776z" />
    <glyph glyph-name="fi" unicode="&#xfb01;" horiz-adv-x="1412" 
d="M233 1040h-186.001v77h186v102c0 142 34 248.5 102 319.5s169.667 106.5 305 106.5c127.333 0 223.333 -40.333 288 -121l-143 -134c-49.333 128.667 -119.333 193 -210 193c-52 0 -91 -23.333 -117 -70s-39 -117 -39 -211v-185h559l186 31v-884
c0 -83.333 11 -137.833 33 -163.5s68.333 -38.5 139 -38.5h14v-62h-566v62h17c72.667 0 120.334 12.833 143.001 38.5s34 80.167 34 163.5v776h-559v-776c0 -83.333 12.833 -137.833 38.5 -163.5s80.5 -38.5 164.5 -38.5h15v-62h-590v62h20
c68.667 0 113.5 12.833 134.5 38.5s31.5 80.167 31.5 163.5v776z" />
    <glyph glyph-name="fl" unicode="&#xf002;" horiz-adv-x="1427" 
d="M233 1117l0.000976562 104.999c0 143.333 35 250.833 105 322.5s174.667 107.5 314 107.5c38.667 0 87.667 -5.16699 147 -15.5s129 -26.166 209 -47.499l156 56v-1381c0 -83.333 11.167 -137.833 33.5 -163.5s69.166 -38.5 140.499 -38.5h12v-62h-558v62h17
c69.333 0 114.833 12.833 136.5 38.5s32.5 80.167 32.5 163.5l1 910v78c0 94.667 -34.833 174.667 -104.5 240s-155.5 98 -257.5 98c-66 0 -115.5 -21 -148.5 -63s-49.5 -105.333 -49.5 -190v-220h318v-77h-318v-776c0 -83.333 12.833 -137.833 38.5 -163.5
s80.5 -38.5 164.5 -38.5h15v-62h-590v62h20c68.667 0 113.5 12.833 134.5 38.5s31.5 80.167 31.5 163.5v776h-186v77h186z" />
    <glyph glyph-name="fl" unicode="&#xfb02;" horiz-adv-x="1427" 
d="M233 1117l0.000976562 104.999c0 143.333 35 250.833 105 322.5s174.667 107.5 314 107.5c38.667 0 87.667 -5.16699 147 -15.5s129 -26.166 209 -47.499l156 56v-1381c0 -83.333 11.167 -137.833 33.5 -163.5s69.166 -38.5 140.499 -38.5h12v-62h-558v62h17
c69.333 0 114.833 12.833 136.5 38.5s32.5 80.167 32.5 163.5l1 910v78c0 94.667 -34.833 174.667 -104.5 240s-155.5 98 -257.5 98c-66 0 -115.5 -21 -148.5 -63s-49.5 -105.333 -49.5 -190v-220h318v-77h-318v-776c0 -83.333 12.833 -137.833 38.5 -163.5
s80.5 -38.5 164.5 -38.5h15v-62h-590v62h20c68.667 0 113.5 12.833 134.5 38.5s31.5 80.167 31.5 163.5v776h-186v77h186z" />
    <glyph glyph-name=".null" horiz-adv-x="0" 
 />
    <glyph glyph-name="nonmarkingreturn" horiz-adv-x="683" 
 />
    <glyph glyph-name="apple" horiz-adv-x="1618" 
d="M693.5 1235c71 -20.667 118.169 -31.0029 141.502 -31.0029c30 0 79 11.667 147 35s127 35 177 35c82 0 155 -22 219 -66c36 -25.333 71.667 -59.666 107 -102.999c-53.333 -45.333 -92.333 -85.666 -117 -120.999c-44.667 -64 -67 -134.667 -67 -212
c0 -84.667 23.667 -161 71 -229s101.333 -111 162 -129c-25.333 -82 -67.333 -167.667 -126 -257c-88.667 -134 -176.667 -201 -264 -201c-34.667 0 -82.5 11 -143.5 33s-112.5 33 -154.5 33s-90.833 -11.5 -146.5 -34.5s-100.834 -34.5 -135.501 -34.5
c-104.667 0 -207.334 88.667 -308.001 266c-100.667 175.333 -151 347.333 -151 516c0 156.667 38.5 284.334 115.5 383.001s174.167 148 291.5 148c50 0 110.5 -10.333 181.5 -31zM1147 1637c0.666992 -6.66699 0.998047 -13.3301 0.998047 -19.9971
c0 -42.667 -10 -89.334 -30 -140.001s-51.667 -97.667 -95 -141c-37.333 -36.667 -74.333 -61.334 -111 -74.001c-23.333 -7.33301 -58.666 -13 -105.999 -17c1.33301 101.333 27.833 189 79.5 263s137.167 124.667 256.5 152
c2.66699 -8.66699 4.33398 -16.334 5.00098 -23.001z" />
    <glyph glyph-name="Lslash" horiz-adv-x="1195" 
d="M1094 349h78l-36 -370c-229.333 14 -452.666 21 -669.999 21h-388v62h18c69.333 0 114.666 13 135.999 39s32 81 32 165v466l-186 -71v85l186 71v471c0 82.667 -10.833 136.834 -32.5 162.501s-66.834 38.5 -135.501 38.5h-18v63h574v-63h-17
c-69.333 0 -114.833 -12.833 -136.5 -38.5s-32.5 -79.834 -32.5 -162.501v-397l186 65v-85l-186 -65v-540c0 -67.333 24.333 -113 73 -137s141.334 -36 278.001 -36h49c82 0 134.667 16 158 48c34 47.333 56.333 109 67 185z" />
    <glyph glyph-name="lslash" horiz-adv-x="698" 
d="M434 1645l0.00195312 -756l187 66v-82l-187 -68v-541c0 -83.333 11.167 -137.833 33.5 -163.5s69.166 -38.5 140.499 -38.5h13v-62h-559v62h18c69.333 0 114.666 12.833 135.999 38.5s32 80.167 32 163.5v469l-186 -73v84l186 73v387c0 96 -6.5 157 -19.5 183
s-49.5 52 -109.5 78l-57 24v16z" />
    <glyph glyph-name="Scaron" horiz-adv-x="1171" 
d="M107 16l-22 340.998h78l3 -16c20 -104 61.667 -184.167 125 -240.5s143.666 -84.5 240.999 -84.5c88 0 163.5 29.833 226.5 89.5s94.5 131.5 94.5 215.5c0 106 -81 214.333 -243 325l-154 106c-149.333 102.667 -247.166 182.5 -293.499 239.5s-69.5 125.833 -69.5 206.5
c0 120 48.5 216.667 145.5 290s224.833 110 383.5 110c124 0 250.333 -22 379 -66l33 -291h-80l-5 16c-53.333 186 -175.333 279 -366 279c-85.333 0 -156 -25.667 -212 -77s-84 -116.333 -84 -195c0 -99.333 69.333 -196.666 208 -291.999l222 -152
c138.667 -95.333 229.667 -171.166 273 -227.499s65 -126.833 65 -211.5c0 -130.667 -49.833 -234.667 -149.5 -312s-233.5 -116 -401.5 -116c-140 0 -272.333 21 -397 63zM446 1862l163 62h194l-326 -202h-62l-326 202h178z" />
    <glyph glyph-name="scaron" horiz-adv-x="993" 
d="M133 44l-24.001 281.998h80l3 -20c28.667 -183.333 122.667 -275 282 -275c68.667 0 127.667 21.5 177 64.5s74 94.5 74 154.5c0 37.333 -12.667 70.333 -38 99c-25.333 28 -86.666 68.333 -183.999 121l-95 52c-181.333 99.333 -272 210 -272 332
c0 90.667 33.333 162.334 100 215.001s157 79 271 79c96.667 0 202.667 -21 318 -63v-232h-80l-3 19c-4.66699 32 -11 59.5 -19 82.5s-19.5 43.333 -34.5 61s-36.167 33.834 -63.5 48.501s-67.666 22 -120.999 22c-56 0 -101.833 -16.167 -137.5 -48.5
s-53.5 -73.833 -53.5 -124.5c0 -74 70.333 -150 211 -228l105 -58c102.667 -56.667 173.667 -109 213 -157c38.667 -48.667 58 -108 58 -178c0 -97.333 -39 -175.5 -117 -234.5s-181 -88.5 -309 -88.5c-134.667 0 -248.334 25 -341.001 75zM503.999 1443l217 171h63
l-249 -326h-62l-248 326h62z" />
    <glyph glyph-name="Zcaron" horiz-adv-x="1226" 
d="M85 0v62.001l789 1427h-206c-181.333 0 -300.666 -12.333 -357.999 -37c-33.333 -14 -55.5 -31.833 -66.5 -53.5s-21.5 -66.834 -31.5 -135.501l-3 -22h-77v341l869 -30h100v-63l-786 -1427h275c219.333 0 347.666 19.667 384.999 59c31.333 34 57 102 77 204l3 16h77
l-23 -370c-294 19.333 -572.333 29 -835 29h-189zM462 1862l163 62h194l-326 -202h-62l-326 202h178z" />
    <glyph glyph-name="zcaron" horiz-adv-x="1117" 
d="M101 0v62l651 1001h-203c-158.667 0 -254 -13.333 -286 -40c-38 -32 -62.667 -77.667 -74 -137l-3 -17h-75l32 248h835v-54l-650 -1001h265c118.667 0 201 13.167 247 39.5s75.333 76.833 88 151.5l3 19h85l-34 -272h-881zM558 1443l217 171h63l-249 -326h-62l-248 326
h62z" />
    <glyph glyph-name="brokenbar" horiz-adv-x="504" 
d="M171 -47v730h163v-730h-163zM171 869v729h163v-729h-163z" />
    <glyph glyph-name="Eth" horiz-adv-x="1660" 
d="M85 0l-0.000976562 61.999h20c68 0 112.667 12.833 134 38.5s32 79.834 32 162.501v513h-186v77h186v433c0 84 -10.667 138.833 -32 164.5s-66 38.5 -134 38.5h-20v63h577c205.333 0 347.833 -8.83301 427.5 -26.5s157.834 -57.5 234.501 -119.5
c166.667 -133.333 250 -323 250 -569c0 -236 -70.333 -437.667 -211 -605c-74.667 -88 -162.167 -148.667 -262.5 -182s-246.5 -50 -438.5 -50h-577zM472.999 1489v-636.002h279v-77h-279v-513c0 -128.667 111 -193 333 -193c165.333 0 297.333 62.833 396 188.5
s148 293.834 148 504.501c0 206.667 -59.333 378.334 -178 515.001c-70 80 -147.5 135.167 -232.5 165.5s-205.167 45.5 -360.5 45.5h-106z" />
    <glyph glyph-name="eth" horiz-adv-x="1296" 
d="M922 1028c-56 150 -145.667 273.334 -269 370.001l-257 -226l-53 59l241 211c-106.667 62.667 -225.334 94 -356.001 94h-42v78h45c174 0 327.667 -26 461 -78l198 176l51 -61l-174 -150c295.333 -224.667 443 -513 443 -865c0 -197.333 -51.667 -357.833 -155 -481.5
s-237.333 -185.5 -402 -185.5c-159.333 0 -293.833 53.667 -403.5 161s-164.5 238.666 -164.5 393.999c0 158 53.667 291.167 161 399.5s239 162.5 395 162.5c92.667 0 186.334 -19.333 281.001 -58zM643 31.001c106 0 190.833 46.333 254.5 139s95.5 215.667 95.5 369
c0 152 -31 270.833 -93 356.5s-147.667 128.5 -257 128.5c-100.667 0 -182.667 -45.5 -246 -136.5s-95 -209.167 -95 -354.5c0 -148.667 31.667 -269.5 95 -362.5s145.333 -139.5 246 -139.5z" />
    <glyph glyph-name="Yacute" horiz-adv-x="1319" 
d="M566 728l-329.999 562c-78 132.667 -151.667 199 -221 199h-15v63h496v-63h-21c-48 0 -72 -16.333 -72 -49c0 -31.333 20 -81.333 60 -150l271 -472l259 476c37.333 68 56 113 56 135c0 35.333 -27.333 55 -82 59l-23 1v63h375v-63h-22c-50 0 -87.333 -11.167 -112 -33.5
s-61.334 -77.833 -110.001 -166.5l-307 -561v-464c0 -84 12.667 -138.667 38 -164s79.333 -38 162 -38h16v-62h-634v62h16c82.667 0 136.667 12.667 162 38s38 80 38 164v464zM198.001 1722l318 202h318l-442 -202h-194z" />
    <glyph glyph-name="yacute" horiz-adv-x="1303" 
d="M634 35l-392.002 818.002c-42.667 84 -75.334 138.667 -98.001 164s-50 38 -82 38h-15v62h465v-62h-18c-65.333 0 -98 -16.667 -98 -50c0 -21.333 18.667 -72 56 -152l284 -604l286 604c33.333 69.333 50 114.666 50 135.999c0 44 -33.333 66 -100 66h-10v62h342v-62h-14
c-33.333 0 -61.166 -12.833 -83.499 -38.5s-53.833 -80.834 -94.5 -165.501l-455 -942c-45.333 -94.667 -81.333 -159.667 -108 -195s-67 -72.333 -121 -111c-76 -45.333 -159 -68 -249 -68c-50.667 0 -105 7.66699 -163 23l98 173c50 -12 94.333 -18 133 -18
c78.667 0 147.334 20.667 206.001 62s107.334 103.333 146.001 186zM832.998 1614h219l-426 -326h-86z" />
    <glyph glyph-name="Thorn" horiz-adv-x="1241" 
d="M652 0l-574 -0.000976562v62h16c70 0 115.833 12.833 137.5 38.5s32.5 80.167 32.5 163.5v1024c0 82.667 -10.833 136.834 -32.5 162.501s-67.5 38.5 -137.5 38.5h-16v63h574v-63h-15c-70 0 -116 -12.833 -138 -38.5s-33 -79.834 -33 -162.501v-62h197
c122.667 0 211 -6 265 -18s101.333 -36 142 -72c78 -69.333 117 -166.666 117 -291.999c0 -161.333 -57.667 -289.333 -173 -384s-271.333 -142 -468 -142h-80v-54c0 -82.667 11 -137 33 -163s68 -39 138 -39h15v-62zM466 379.999l58 -0.000976562
c148.667 0 260.167 36.333 334.5 109s111.5 181.334 111.5 326.001c0 126.667 -30.333 216.5 -91 269.5s-163.667 79.5 -309 79.5h-104v-784z" />
    <glyph glyph-name="thorn" horiz-adv-x="1420" 
d="M434 7l0.000976562 -178c0 -82.667 10.667 -136.834 32 -162.501s66 -38.5 134 -38.5h13v-62h-559v62h17c72.667 0 120.334 12.833 143.001 38.5s34 79.834 34 162.501v1314c0 95.333 -6.83301 156 -20.5 182s-51.5 52 -113.5 78l-60 24v16l380 140v-643
c74.667 69.333 147.167 121.333 217.5 156s138.5 52 204.5 52c134 0 244.5 -52.167 331.5 -156.5s130.5 -236.833 130.5 -397.5c0 -185.333 -57.333 -335.833 -172 -451.5s-264.334 -173.5 -449.001 -173.5c-43.333 0 -86.833 3.16699 -130.5 9.5
s-87.834 15.833 -132.501 28.5zM434.001 855l-0.000976562 -658c38.667 -48 87.667 -86.667 147 -116s117.333 -44 174 -44c105.333 0 192 45 260 135s102 204.667 102 344c0 138.667 -34.333 251.5 -103 338.5s-157.334 130.5 -266.001 130.5
c-49.333 0 -100.166 -10.833 -152.499 -32.5s-106.166 -54.167 -161.499 -97.5z" />
    <glyph glyph-name="minus" 
d="M1241 613v-109h-1117v109h1117z" />
    <glyph glyph-name="multiply" 
d="M1241 70l-82 -70l-476 481l-484 -481l-75 79l479 480l-479 480l76 78l483 -484l482 484l76 -76l-484 -482z" />
    <glyph glyph-name="onesuperior" horiz-adv-x="822" 
d="M167 1422l-0.000976562 60l318 116v-816c0 -29.333 4.33301 -48.333 13 -57s27.667 -13 57 -13c36 0 74.667 -2.66699 116 -8v-60h-504v61c40 2.66699 75 4 105 4c32.667 0 54.334 4.83301 65.001 14.5s16 29.167 16 58.5v671z" />
    <glyph glyph-name="twosuperior" horiz-adv-x="822" 
d="M89 644l0.000976562 60.999l186 217c73.333 86 134.333 172.167 183 258.5s73 152.166 73 197.499c0 40 -14 72.5 -42 97.5s-64 37.5 -108 37.5c-78 0 -168.333 -44 -271 -132l5 111c88 70.667 182 106 282 106c85.333 0 153.666 -20.667 204.999 -62s77 -96.333 77 -165
c0 -57.333 -26 -121.666 -78 -192.999s-168.333 -202.666 -349 -393.999h450v-140h-613z" />
    <glyph glyph-name="threesuperior" horiz-adv-x="822" 
d="M232 1086l45.9961 115.998h32c58.667 0 110.334 18.167 155.001 54.5s67 78.166 67 125.499c0 40.667 -15.667 75.334 -47 104.001s-68.666 43 -111.999 43c-66.667 0 -140.667 -30 -222 -90v87c84 48 169 72 255 72c77.333 0 139.5 -18 186.5 -54
s70.5 -83.667 70.5 -143c0 -41.333 -15.167 -80.166 -45.5 -116.499s-76.166 -69.833 -137.499 -100.5c76.667 -25.333 134.167 -59.166 172.5 -101.499s57.5 -93.166 57.5 -152.499c0 -82.667 -34.667 -154.834 -104 -216.501s-150 -92.5 -242 -92.5
c-117.333 0 -211.666 37.667 -282.999 113l100 99c58.667 -100 129.667 -150 213 -150c52.667 0 95.167 18 127.5 54s48.5 83 48.5 141c0 69.333 -24.333 121.333 -73 156s-121.667 52 -219 52h-46z" />
    <glyph glyph-name="onehalf" horiz-adv-x="1808" 
d="M78 1422l-0.000976562 60l318 116v-816c0 -29.333 4.33301 -48.333 13 -57s27.667 -13 57 -13c36 0 74.667 -2.66699 116 -8v-60h-504v61c40 2.66699 75 4 105 4c32.667 0 54.334 4.83301 65.001 14.5s16 29.167 16 58.5v671zM180.999 -47l1192 1645h127l-1183 -1645
h-136zM1118 0v60.998c10.667 13.333 72.667 85.666 186 216.999c73.333 86 134.333 172.333 183 259s73 152.334 73 197.001c0 40 -14 72.5 -42 97.5s-64.333 37.5 -109 37.5c-77.333 0 -167.666 -44 -270.999 -132l6 111c87.333 70.667 181.333 106 282 106
c84.667 0 152.667 -20.667 204 -62s77 -96.333 77 -165c0 -57.333 -25.833 -121.666 -77.5 -192.999s-167.834 -202.666 -348.501 -393.999h449v-140h-612z" />
    <glyph glyph-name="onequarter" horiz-adv-x="1808" 
d="M97 1422l-0.000976562 60l318 116v-816c0 -29.333 4.33301 -48.333 13 -57s27.667 -13 57 -13c36 0 74.667 -2.66699 116 -8v-60h-504v61c40 2.66699 75 4 105 4c32.667 0 54.334 4.83301 65.001 14.5s16 29.167 16 58.5v671zM199.999 -47l1192 1645h127l-1183 -1645
h-136zM1416 264h-458v109l537 581h53v-574h163v-116h-163v-264h-132v264zM1416 380v392l-362 -392h362z" />
    <glyph glyph-name="threequarters" horiz-adv-x="1808" 
d="M170 1086l45.999 115.998h32c58 0 109.333 18.167 154 54.5s67 78.166 67 125.499c0 40.667 -15.5 75.334 -46.5 104.001s-68.167 43 -111.5 43c-66.667 0 -140.667 -30 -222 -90v87c83.333 48 168.333 72 255 72c77.333 0 139.5 -18 186.5 -54s70.5 -83.667 70.5 -143
c0 -41.333 -15.167 -80.166 -45.5 -116.499s-76.166 -69.833 -137.499 -100.5c76.667 -25.333 134 -59.166 172 -101.499s57 -93.166 57 -152.499c0 -82.667 -34.5 -154.834 -103.5 -216.501s-149.833 -92.5 -242.5 -92.5c-116.667 0 -210.667 37.667 -282 113l100 99
c58.667 -100 129.667 -150 213 -150c52 0 94.333 18 127 54s49 83 49 141c0 69.333 -24.333 121.333 -73 156s-122 52 -220 52h-45zM245.999 -47.002l1192 1645h127l-1183 -1645h-136zM1493 263.998h-458v109l537 581h53v-574h163v-116h-163v-264h-132v264zM1493 379.998
v392l-362 -392h362z" />
    <glyph glyph-name="franc" 
d="M558 752l0.00195312 -270.999h295v-78h-295v-139c0 -86.667 12.5 -142 37.5 -166s82.167 -36 171.5 -36h16v-62h-597v62h18c69.333 0 114.666 13 135.999 39s32 80.333 32 163v139h-279v78h279v804c0 85.333 -10.5 140.666 -31.5 165.999s-66.5 38 -136.5 38h-18v63h1009
l31 -288h-78l-3 21c-13.333 88.667 -38.333 142.334 -75 161.001s-135.334 28 -296.001 28h-216v-659h238c104 0 170.5 9.16699 199.5 27.5s43.5 60.166 43.5 125.499v17h78v-403h-78v15c0 58.667 -12 100.667 -36 126c-19.333 19.333 -88.333 29 -207 29h-238z" />
    <glyph glyph-name="Gbreve" horiz-adv-x="1583" 
d="M1334 40c-168.667 -58 -326.332 -86.999 -472.999 -86.999c-271.333 0 -473 88.333 -605 265c-114 153.333 -171 339.666 -171 558.999c0 246 68.167 444.333 204.5 595s316.166 226 539.499 226c176.667 0 335 -21 475 -63l30 -309h-78l-3 17
c-1.33301 49.333 -24.333 105.333 -69 168c-77.333 83.333 -190 125 -338 125c-161.333 0 -291.666 -70.667 -390.999 -212s-149 -327.333 -149 -558c0 -228.667 55.167 -404.5 165.5 -527.5s267.833 -184.5 472.5 -184.5c52 0 120 6.66699 204 20v354
c0 82 -10.833 135.833 -32.5 161.5s-66.834 38.5 -135.501 38.5h-18v62h558v-62h-14c-70.667 0 -117 -12.833 -139 -38.5s-33 -79.5 -33 -161.5v-388zM318.002 1924h162c58.667 -41.333 115.667 -62 171 -62s112.333 20.667 171 62h163
c-78.667 -134.667 -190 -202 -334 -202s-255 67.333 -333 202v0z" />
    <glyph glyph-name="gbreve" horiz-adv-x="1233" 
d="M321 0c-50.667 38.667 -84.001 70.167 -100.001 94.5s-26.667 59.5 -32 105.5l250 172c-88 22.667 -158 68 -210 136s-78 147.667 -78 239c0 119.333 38.5 215.833 115.5 289.5s177.833 110.5 302.5 110.5c71.333 0 138.333 -10.333 201 -31h401v-93h-251
c66.667 -88.667 100 -177.667 100 -267c0 -124.667 -39.167 -222.5 -117.5 -293.5s-186.5 -106.5 -324.5 -106.5h-50c-78 -45.333 -117 -85 -117 -119c0 -54.667 74.333 -82 223 -82h230c194.667 0 292 -79.333 292 -238c0 -114.667 -51 -207 -153 -277s-237 -105 -405 -105
c-159.333 0 -281.166 26.333 -365.499 79s-130.833 131.667 -139.5 237zM586.999 419c72 0 128.833 29.667 170.5 89s62.5 140.666 62.5 243.999c0 104 -20.833 185.667 -62.5 245s-98.5 89 -170.5 89s-128.833 -29.667 -170.5 -89s-62.5 -141 -62.5 -245
c0 -103.333 20.833 -184.666 62.5 -243.999s98.5 -89 170.5 -89zM397.999 0c-58.667 -52 -88 -113.332 -88 -183.999c0 -64.667 29.167 -117.5 87.5 -158.5s133.5 -61.5 225.5 -61.5c98.667 0 181.167 24.167 247.5 72.5s99.5 108.166 99.5 179.499
c0 56.667 -18.333 96.167 -55 118.5s-100.667 33.5 -192 33.5h-325zM344.999 1614h63.998c10.667 -52 36.834 -96.167 78.501 -132.5s87.167 -54.5 136.5 -54.5s95 18.167 137 54.5s68.333 80.5 79 132.5h64c-17.333 -102 -50.666 -181.833 -99.999 -239.5
s-109 -86.5 -179 -86.5c-69.333 0 -128.333 28.333 -177 85s-83 137 -103 241z" />
    <glyph glyph-name="Idotaccent" horiz-adv-x="729" 
d="M652 0h-574v62h16c70 0 115.833 12.833 137.5 38.5s32.5 80.167 32.5 163.5v1024c0 82.667 -10.833 136.834 -32.5 162.501s-67.5 38.5 -137.5 38.5h-16v63h574v-63h-15c-70 0 -116 -12.833 -138 -38.5s-33 -79.834 -33 -162.501v-1024c0 -82.667 11 -137 33 -163
s68 -39 138 -39h15v-62zM651 1722c-37.333 0 -68.666 12.667 -93.999 38s-38 56.666 -38 93.999s12.667 68.666 38 93.999s56.666 38 93.999 38s68.666 -12.667 93.999 -38s38 -56.666 38 -93.999s-12.667 -68.666 -38 -93.999s-56.666 -38 -93.999 -38z" />
    <glyph glyph-name="Scedilla" horiz-adv-x="1171" 
d="M107 16l-22 340.999h78l3 -16c20 -104 61.667 -184.167 125 -240.5s143.666 -84.5 240.999 -84.5c88 0 163.5 29.833 226.5 89.5s94.5 131.5 94.5 215.5c0 106 -81 214.333 -243 325l-154 106c-149.333 102.667 -247.166 182.5 -293.499 239.5s-69.5 125.833 -69.5 206.5
c0 120 48.5 216.667 145.5 290s224.833 110 383.5 110c124 0 250.333 -22 379 -66l33 -291h-80l-5 16c-53.333 186 -175.333 279 -366 279c-85.333 0 -156 -25.667 -212 -77s-84 -116.333 -84 -195c0 -99.333 69.333 -196.666 208 -291.999l222 -152
c138 -95.333 228.833 -171.166 272.5 -227.499s65.5 -126.5 65.5 -210.5c0 -117.333 -39.333 -212.333 -118 -285s-191.667 -119.334 -339 -140.001l-57 -101c130.667 -12 196 -62.667 196 -152c0 -46 -15.167 -80.667 -45.5 -104s-75.833 -35 -136.5 -35
s-113.667 9 -159 27v61c44 -17.333 79.333 -26 106 -26c34.667 0 60.5 6.83301 77.5 20.5s25.5 34.167 25.5 61.5c0 56.667 -55 91 -165 103l76 140c-148.667 0 -285 21.333 -409 64z" />
    <glyph glyph-name="scedilla" horiz-adv-x="993" 
d="M133 44l-24.0029 281.998h80l3 -20c28.667 -183.333 122.667 -275 282 -275c68.667 0 127.667 21.5 177 64.5s74 94.5 74 154.5c0 44 -12.667 78.667 -38 104c-25.333 24.667 -86.666 63.334 -183.999 116.001l-95 52c-181.333 99.333 -272 210 -272 332
c0 90.667 33.333 162.334 100 215.001s157 79 271 79c96.667 0 202.667 -21 318 -63v-232h-85l-3 19c-9.33301 58 -17.5 94.333 -24.5 109s-23.5 32 -49.5 52c-46 35.333 -99 53 -159 53c-56 0 -101.833 -16.167 -137.5 -48.5s-53.5 -73.833 -53.5 -124.5
c0 -74 70.333 -150 211 -228l105 -58c102 -56.667 172.667 -109 212 -157c39.333 -48.667 59 -107 59 -175c0 -90 -31.167 -162.833 -93.5 -218.5s-151.166 -90.167 -266.499 -103.5l-65 -117c130.667 -12 196 -62.667 196 -152c0 -46 -15.167 -80.667 -45.5 -104
s-75.833 -35 -136.5 -35s-114 9 -160 27v61c44 -17.333 79.333 -26 106 -26c34.667 0 60.667 6.83301 78 20.5s26 34.167 26 61.5c0 56.667 -55 91 -165 103l84 157c-131.333 0 -239.666 25 -324.999 75z" />
    <glyph glyph-name="Cacute" horiz-adv-x="1451" 
d="M1314 33c-166 -53.333 -320.001 -80 -462.001 -80c-235.333 0 -422 74.333 -560 223s-207 349.334 -207 602.001c0 247.333 68.667 445.833 206 595.5s319 224.5 545 224.5c167.333 0 322 -21 464 -63l31 -309h-75l-3 18c-16 92.667 -59.5 164.5 -130.5 215.5
s-163.167 76.5 -276.5 76.5c-156 0 -284.333 -71 -385 -213s-151 -323.333 -151 -544c0 -228.667 51.5 -413.334 154.5 -554.001s237.833 -211 404.5 -211c224.667 0 355.334 101 392.001 303l3 17h78zM332.999 1722l318 202h318l-442 -202h-194z" />
    <glyph glyph-name="cacute" horiz-adv-x="1109" 
d="M1034 140v-97.001c-128.667 -49.333 -254.667 -74 -378 -74c-169.333 0 -306.833 51.833 -412.5 155.5s-158.5 238.834 -158.5 405.501c0 180 57.667 328 173 444s262.666 174 441.999 174c141.333 0 266 -42.333 374 -127l-141 -152c-88 139.333 -192.333 209 -313 209
c-97.333 0 -174.666 -43.667 -231.999 -131s-86 -204.666 -86 -351.999c0 -162.667 37.5 -289.834 112.5 -381.501s179.167 -137.5 312.5 -137.5c110.667 0 213 21.333 307 64zM762 1614h219l-426 -326h-86z" />
    <glyph glyph-name="Ccaron" horiz-adv-x="1451" 
d="M1314 33c-166 -53.333 -320.001 -80 -462.001 -80c-235.333 0 -422 74.333 -560 223s-207 349.334 -207 602.001c0 247.333 68.667 445.833 206 595.5s319 224.5 545 224.5c167.333 0 322 -21 464 -63l31 -309h-75l-3 18c-16 92.667 -59.5 164.5 -130.5 215.5
s-163.167 76.5 -276.5 76.5c-156 0 -284.333 -71 -385 -213s-151 -323.333 -151 -544c0 -228.667 51.5 -413.334 154.5 -554.001s237.833 -211 404.5 -211c224.667 0 355.334 101 392.001 303l3 17h78zM650.999 1862l163 62h194l-326 -202h-62l-326 202h178z" />
    <glyph glyph-name="ccaron" horiz-adv-x="1109" 
d="M1034 140v-97.001c-128.667 -49.333 -254.667 -74 -378 -74c-169.333 0 -306.833 51.833 -412.5 155.5s-158.5 238.834 -158.5 405.501c0 180 57.667 328 173 444s262.666 174 441.999 174c141.333 0 266 -42.333 374 -127l-141 -152c-88 139.333 -192.333 209 -313 209
c-97.333 0 -174.666 -43.667 -231.999 -131s-86 -204.666 -86 -351.999c0 -162.667 37.5 -289.834 112.5 -381.501s179.167 -137.5 312.5 -137.5c110.667 0 213 21.333 307 64zM678 1443l217 171h63l-249 -326h-62l-248 326h62z" />
    <glyph glyph-name="dcroat" horiz-adv-x="1420" 
d="M985 177c-74.667 -69.333 -147 -121.336 -217 -156.003s-138 -52 -204 -52c-134.667 0 -245.5 52.167 -332.5 156.5s-130.5 236.833 -130.5 397.5c0 185.333 57.333 335.833 172 451.5s263.667 173.5 447 173.5c42 0 85 -2.83301 129 -8.5s89.333 -14.167 136 -25.5v138
h-248v62h248c-2 44.667 -10 74.834 -24 90.501s-50.667 35.834 -110 60.501l-60 24v16l381 140v-331h186v-62h-186v-991c0 -53.333 12.333 -89.666 37 -108.999s71.667 -29 141 -29h8v-60l-373 -98v212zM985 261.997l0.00195312 658c-38.667 48 -87.5 86.667 -146.5 116
s-116.833 44 -173.5 44c-105.333 0 -192 -45 -260 -135s-102 -204.667 -102 -344c0 -138.667 34.167 -251.5 102.5 -338.5s157.166 -130.5 266.499 -130.5c49.333 0 100.166 10.833 152.499 32.5s105.833 54.167 160.5 97.5z" />
    <glyph glyph-name="Grave" horiz-adv-x="1303" 
d="M969 1722h-194l-442 202h318z" />
    <glyph glyph-name="Acute" horiz-adv-x="1303" 
d="M333 1722l318 202h318l-442 -202h-194z" />
    <glyph glyph-name="Diaeresis" horiz-adv-x="1303" 
d="M438 1719c-29.333 0 -54.166 10.167 -74.499 30.5s-30.5 44.833 -30.5 73.5c0 29.333 10.167 54.166 30.5 74.499s45.166 30.5 74.499 30.5c28.667 0 53.167 -10.167 73.5 -30.5s30.5 -45.166 30.5 -74.499c0 -28.667 -10.167 -53.167 -30.5 -73.5
s-44.833 -30.5 -73.5 -30.5zM864 1719c-28.667 0 -53.167 10.167 -73.5 30.5s-30.5 44.833 -30.5 73.5c0 29.333 10.167 54.166 30.5 74.499s44.833 30.5 73.5 30.5c29.333 0 54.166 -10.167 74.499 -30.5s30.5 -45.166 30.5 -74.499c0 -28.667 -10.167 -53.167 -30.5 -73.5
s-45.166 -30.5 -74.499 -30.5z" />
    <glyph glyph-name="Circumflex" horiz-adv-x="1303" 
d="M651 1784l-178 -62h-179l326 202h62l326 -202h-194z" />
    <glyph glyph-name="Tilde" horiz-adv-x="1303" 
d="M364 1722h-78.002c8.66699 60.667 32.667 109.5 72 146.5s87 55.5 143 55.5c30.667 0 75.334 -9.66699 134.001 -29l84 -27c45.333 -14.667 82.333 -22 111 -22c52 0 88 26 108 78h78c-8 -61.333 -31 -110.333 -69 -147s-85 -55 -141 -55
c-39.333 0 -84.333 9.66699 -135 29l-74 27c-39.333 14.667 -76.666 22 -111.999 22c-56.667 0 -97 -26 -121 -78z" />
    <glyph glyph-name="Breve" horiz-adv-x="1303" 
d="M318 1924h162c58.667 -41.333 115.667 -62 171 -62s112.333 20.667 171 62h163c-78.667 -134.667 -190 -202 -334 -202s-255 67.333 -333 202v0z" />
    <glyph glyph-name="Dotaccent" horiz-adv-x="1303" 
d="M651 1722c-37.333 0 -68.666 12.667 -93.999 38s-38 56.666 -38 93.999s12.667 68.666 38 93.999s56.666 38 93.999 38s68.666 -12.667 93.999 -38s38 -56.666 38 -93.999s-12.667 -68.666 -38 -93.999s-56.666 -38 -93.999 -38z" />
    <glyph glyph-name="Caron" horiz-adv-x="1303" 
d="M651 1862l163 62h194l-326 -202h-62l-326 202h178z" />
  </font>
</defs>
</svg>
